<?xml version="1.0" standalone="no"?>
<!DOCTYPE svg PUBLIC "-//W3C//DTD SVG 1.1//EN" "http://www.w3.org/Graphics/SVG/1.1/DTD/svg11.dtd" >
<svg>
<metadata>
Created by FontForge 20120731 at Thu Jan 14 12:12:51 2016
 By ,,,
Copyright (c) 2000, 2001 Adobe Systems Incorporated. All Rights Reserved. U.S.Patent Des. 318,290.Adobe Garamond is either a registered trademark or a trademark of Adobe Systems Incorporated in the United States and/or other countries.
</metadata>
<defs>
<font id="AGaramondPro-Bold" horiz-adv-x="400" >
  <font-face 
    font-family="Adobe Garamond Pro"
    font-weight="700"
    font-stretch="normal"
    units-per-em="1000"
    panose-1="2 2 7 2 6 5 6 2 4 3"
    ascent="725"
    descent="-275"
    x-height="403"
    cap-height="663"
    bbox="-158 -302 1147 899"
    underline-thickness="50"
    underline-position="-50"
    stemh="53"
    stemv="130"
    unicode-range="U+0020-FB04"
  />
<missing-glyph horiz-adv-x="500" 
d="M0 0v700h500v-700h-500zM250 395l170 255h-340zM280 350l170 -255v510zM80 50h340l-170 255zM50 605v-510l170 255z" />
    <glyph glyph-name="fi" unicode="fi" horiz-adv-x="566" 
d="M84 116v202c0 27 -2 28 -25 28h-37c-6 4 -8 22 -3 27l43 22c13 7 22 13 22 26c0 50 8 114 31 163c34 73 97 131 210 131c101 0 166 -46 166 -103c0 -41 -34 -65 -71 -65c-19 0 -37 8 -45 21s-18 37 -27 52c-20 34 -38 45 -62 45c-33 0 -72 -35 -72 -184v-56
c0 -26 2 -25 26 -25h77c72 0 139 2 165 8c8 0 16 -5 17 -15c-3 -32 -5 -74 -5 -115v-162c0 -72 4 -80 37 -84l16 -2c8 -6 8 -27 -1 -33c-32 2 -73 3 -117 3c-43 0 -78 -1 -110 -3c-9 6 -9 27 -1 33l16 2c26 3 30 12 30 84v143c0 78 -3 87 -52 87h-72c-24 0 -26 -1 -26 -26
v-204c0 -72 4 -79 37 -84l13 -2c8 -6 8 -27 -1 -33c-29 2 -69 3 -116 3c-45 0 -83 -1 -115 -3c-9 6 -9 27 -1 33l16 2c33 4 37 12 37 84z" />
    <glyph glyph-name="fl" unicode="fl" horiz-adv-x="566" 
d="M59 346h-37c-6 4 -8 22 -3 27l43 22c13 7 22 13 22 26c0 58 9 126 30 171c33 70 99 123 193 123c53 0 84 -14 107 -30c24 8 45 18 66 30c6 0 13 -2 17 -7c-2 -41 -3 -83 -3 -146v-446c0 -70 4 -78 37 -82l16 -2c8 -6 8 -29 -1 -35c-32 2 -74 3 -117 3s-78 -1 -110 -3
c-9 6 -9 27 -1 33l16 2c26 3 30 12 30 84v205c0 25 -3 25 -27 25h-97c-25 0 -26 -1 -26 -28v-202c0 -72 4 -79 37 -84l13 -2c8 -6 8 -27 -1 -33c-29 2 -69 3 -116 3c-41 0 -83 -1 -115 -3c-9 6 -9 29 -1 35l16 2c33 4 37 12 37 82v202c0 27 -2 28 -25 28zM240 400h97
c24 0 27 0 27 25v161c0 31 -22 81 -67 81c-39 0 -83 -43 -83 -216v-23c0 -27 1 -28 26 -28z" />
    <glyph glyph-name="ff" unicode="ff" horiz-adv-x="591" 
d="M59 346h-37c-6 4 -8 22 -3 27l43 22c13 7 22 13 22 26c0 19 6 92 28 140c31 67 92 130 205 130c39 0 90 -9 117 -35c19 22 67 59 154 59c58 0 117 -30 117 -82c0 -33 -24 -54 -58 -54c-21 0 -33 10 -40 18c-43 55 -59 66 -71 66c-26 0 -42 -29 -42 -122v-113
c0 -27 1 -28 26 -28h95c5 -3 7 -11 7 -20c0 -13 -4 -28 -13 -34h-89c-25 0 -26 -1 -26 -28v-202c0 -72 4 -80 37 -83l33 -3c8 -6 8 -27 -1 -33c-47 2 -89 3 -134 3c-43 0 -78 -1 -110 -3c-9 6 -9 27 -1 33l16 2c26 3 30 12 30 84v202c0 27 -2 28 -25 28h-99
c-21 0 -30 -1 -26 -28v-202c0 -72 4 -79 37 -84l13 -2c8 -6 8 -27 -1 -33c-29 2 -69 3 -116 3c-41 0 -83 -1 -115 -3c-9 6 -9 27 -1 33l16 2c33 4 37 12 37 84v202c0 27 -2 28 -25 28zM240 400h102c19 0 22 4 22 21c0 36 5 96 20 148c-7 30 -30 76 -74 76
c-41 0 -96 -35 -96 -208v-9c0 -27 1 -28 26 -28z" />
    <glyph glyph-name="ffi" unicode="ffi" horiz-adv-x="846" 
d="M59 346h-37c-6 4 -8 22 -3 27l43 22c13 7 22 13 22 26c0 19 6 92 28 140c31 67 92 130 206 130c42 0 94 -9 121 -35c22 22 77 59 166 59c101 0 166 -46 166 -103c0 -41 -34 -65 -71 -65c-19 0 -37 8 -45 21s-18 37 -27 52c-20 34 -38 45 -62 45c-33 0 -72 -35 -72 -184
v-56c0 -26 2 -25 26 -25h77c72 0 139 2 165 8c8 0 16 -5 17 -15c-3 -32 -5 -74 -5 -115v-162c0 -72 4 -80 37 -84l16 -2c8 -6 8 -27 -1 -33c-31 2 -73 3 -117 3c-43 0 -78 -1 -110 -3c-9 6 -9 27 -1 33l16 2c26 3 30 12 30 84v143c0 78 -3 87 -52 87h-72
c-24 0 -26 -1 -26 -28v-202c0 -72 4 -79 37 -84l13 -2c8 -6 8 -27 -1 -33c-29 2 -69 3 -116 3c-41 0 -76 -1 -108 -3c-9 6 -9 27 -1 33l16 2c26 3 30 12 30 84v202c0 27 -2 28 -25 28h-99c-21 0 -30 -1 -26 -28v-202c0 -72 4 -79 37 -84l13 -2c8 -6 8 -27 -1 -33
c-29 2 -69 3 -116 3c-41 0 -83 -1 -115 -3c-9 6 -9 27 -1 33l16 2c33 4 37 12 37 84v202c0 27 -2 28 -25 28zM240 400h102c19 0 22 4 22 21c0 36 5 96 20 148c-7 30 -30 76 -74 76c-41 0 -96 -35 -96 -208v-9c0 -27 1 -28 26 -28z" />
    <glyph glyph-name="ffl" unicode="ffl" horiz-adv-x="846" 
d="M59 346h-37c-6 4 -8 22 -3 27l43 22c13 7 22 13 22 26c0 19 6 92 28 140c31 67 92 130 205 130c39 0 90 -9 117 -35c20 22 75 59 151 59c54 0 86 -14 109 -30c24 8 45 18 66 30c6 0 13 -2 17 -7c-2 -41 -3 -83 -3 -146v-446c0 -70 4 -78 37 -82l16 -2c8 -6 8 -29 -1 -35
c-32 2 -74 3 -117 3s-78 -1 -110 -3c-9 6 -9 27 -1 33l16 2c26 3 30 12 30 84v205c0 25 -3 25 -27 25h-97c-25 0 -26 -1 -26 -28v-202c0 -72 4 -79 37 -84l13 -2c8 -6 8 -27 -1 -33c-29 2 -69 3 -116 3c-41 0 -83 -1 -115 -3c-9 6 -9 29 -1 35l16 2c33 4 37 12 37 82v202
c0 27 -2 28 -25 28h-99c-21 0 -30 -1 -26 -28v-202c0 -72 4 -79 37 -84l13 -2c8 -6 8 -27 -1 -33c-29 2 -69 3 -116 3c-41 0 -83 -1 -115 -3c-9 6 -9 27 -1 33l16 2c33 4 37 12 37 84v202c0 27 -2 28 -25 28zM240 400h102c19 0 22 4 22 21c0 36 5 96 20 148
c-7 30 -30 76 -74 76c-41 0 -96 -35 -96 -208v-9c0 -27 1 -28 26 -28zM520 400h97c24 0 27 0 27 25v161c0 31 -22 81 -67 81c-39 0 -83 -43 -83 -216v-23c0 -27 1 -28 26 -28z" />
    <glyph glyph-name="f_j" unicode="fj" horiz-adv-x="557" 
d="M84 116v202c0 27 -2 28 -25 28h-37c-6 4 -8 22 -3 27l43 22c13 7 22 13 22 26c0 50 8 114 31 163c34 73 97 131 210 131c101 0 166 -46 166 -103c0 -41 -34 -65 -71 -65c-19 0 -37 8 -45 21s-18 37 -27 52c-20 34 -38 45 -62 45c-33 0 -72 -35 -72 -184v-56
c0 -26 2 -25 26 -25h77c72 0 139 2 165 8c8 0 16 -5 17 -15c-3 -32 -5 -74 -5 -115v-162v-63c0 -69 -6 -123 -21 -161c-27 -71 -72 -118 -201 -161c-15 5 -20 24 -14 33c21 11 40 26 49 36c39 39 57 110 57 232v84v143c0 78 -3 87 -52 87h-72c-24 0 -26 -1 -26 -26v-204
c0 -72 4 -79 37 -84l13 -2c8 -6 8 -27 -1 -33c-29 2 -69 3 -116 3c-45 0 -83 -1 -115 -3c-9 6 -9 27 -1 33l16 2c33 4 37 12 37 84z" />
    <glyph glyph-name="f_f_j" unicode="ffj" horiz-adv-x="837" 
d="M59 346h-37c-6 4 -8 22 -3 27l43 22c13 7 22 13 22 26c0 19 6 92 28 140c31 67 92 130 206 130c42 0 94 -9 121 -35c22 22 77 59 166 59c101 0 166 -46 166 -103c0 -41 -34 -65 -71 -65c-19 0 -37 8 -45 21s-18 37 -27 52c-20 34 -38 45 -62 45c-33 0 -72 -35 -72 -184
v-56c0 -26 2 -25 26 -25h77c72 0 139 2 165 8c8 0 16 -5 17 -15c-3 -32 -5 -74 -5 -115v-162v-63c0 -69 -6 -123 -21 -161c-27 -71 -72 -118 -201 -161c-15 5 -20 24 -14 33c21 11 40 26 49 36c39 39 57 110 57 232v84v143c0 78 -3 87 -52 87h-72c-24 0 -26 -1 -26 -28v-202
c0 -72 4 -79 37 -84l13 -2c8 -6 8 -27 -1 -33c-29 2 -69 3 -116 3c-41 0 -76 -1 -108 -3c-9 6 -9 27 -1 33l16 2c26 3 30 12 30 84v202c0 27 -2 28 -25 28h-99c-21 0 -30 -1 -26 -28v-202c0 -72 4 -79 37 -84l13 -2c8 -6 8 -27 -1 -33c-29 2 -69 3 -116 3
c-41 0 -83 -1 -115 -3c-9 6 -9 27 -1 33l16 2c33 4 37 12 37 84v202c0 27 -2 28 -25 28zM240 400h102c19 0 22 4 22 21c0 36 5 96 20 148c-7 30 -30 76 -74 76c-41 0 -96 -35 -96 -208v-9c0 -27 1 -28 26 -28z" />
    <glyph glyph-name="T_h" unicode="Th" horiz-adv-x="1104" 
d="M265 144v441c0 24 0 29 -24 29h-72c-73 0 -94 -40 -124 -113c-12 -6 -31 -4 -37 9c21 69 26 131 33 170c4 3 9 5 14 5s10 -1 14 -4c5 -17 8 -21 84 -21h392c77 0 91 6 95 14v10l116 31c6 0 13 -2 17 -7c-2 -41 -3 -83 -3 -146v-184c0 -9 2 -12 7 -12c1 0 6 2 16 8
c22 15 65 40 115 40c84 0 126 -57 126 -126v-172c0 -70 4 -78 40 -82l16 -2c8 -6 8 -29 -1 -35c-31 2 -73 3 -121 3c-43 0 -86 -1 -108 -3c-9 6 -9 29 -1 35l18 3c23 4 27 11 27 66v173c0 35 -21 67 -70 67c-28 0 -48 -13 -56 -24c-6 -7 -8 -19 -8 -37v-179
c0 -55 4 -62 27 -66l18 -3c8 -6 8 -29 -1 -35c-31 2 -63 3 -111 3c-41 0 -83 -1 -117 -3c-9 6 -9 29 -1 35l18 2c33 4 37 12 37 82v416c0 60 -15 82 -130 82h-75c-24 0 -27 -3 -27 -29v-441c0 -93 6 -101 51 -107l40 -5c7 -6 7 -29 0 -35c-65 2 -115 3 -160 3
c-48 0 -100 -1 -170 -3c-8 6 -8 29 0 35l45 5c45 5 51 14 51 107z" />
    <glyph glyph-name="T_h.commaaccent" unicode="&#x162;h" horiz-adv-x="1104" 
d="M265 144v441c0 24 0 29 -24 29h-72c-73 0 -94 -40 -124 -113c-12 -6 -31 -4 -37 9c21 69 26 131 33 170c4 3 9 5 14 5s10 -1 14 -4c5 -17 8 -21 84 -21h392c77 0 91 6 95 14v10l116 31c6 0 13 -2 17 -7c-2 -41 -3 -83 -3 -146v-184c0 -9 2 -12 7 -12c1 0 6 2 16 8
c22 15 65 40 115 40c84 0 126 -57 126 -126v-172c0 -70 4 -78 40 -82l16 -2c8 -6 8 -29 -1 -35c-31 2 -73 3 -121 3c-43 0 -86 -1 -108 -3c-9 6 -9 29 -1 35l18 3c23 4 27 11 27 66v173c0 35 -21 67 -70 67c-28 0 -48 -13 -56 -24c-6 -7 -8 -19 -8 -37v-179
c0 -55 4 -62 27 -66l18 -3c8 -6 8 -29 -1 -35c-31 2 -63 3 -111 3c-41 0 -83 -1 -117 -3c-9 6 -9 29 -1 35l18 2c33 4 37 12 37 82v416c0 60 -15 82 -130 82h-75c-24 0 -27 -3 -27 -29v-441c0 -93 6 -101 51 -107l40 -5c7 -6 7 -29 0 -35c-65 2 -115 3 -160 3
c-48 0 -100 -1 -170 -3c-8 6 -8 29 0 35l45 5c45 5 51 14 51 107zM318 -45c33 0 84 -28 84 -99c0 -82 -60 -125 -131 -140c-14 1 -17 27 -8 33c28 10 68 37 68 71c0 31 -25 45 -44 50c-14 4 -24 18 -24 35c0 28 25 50 55 50z" />
    <glyph glyph-name="T_h.caron" unicode="&#x164;h" horiz-adv-x="1104" 
d="M265 144v441c0 24 0 29 -24 29h-72c-73 0 -94 -40 -124 -113c-12 -6 -31 -4 -37 9c21 69 26 131 33 170c4 3 9 5 14 5s10 -1 14 -4c5 -17 8 -21 84 -21h392c77 0 91 6 95 14v10l116 31c6 0 13 -2 17 -7c-2 -41 -3 -83 -3 -146v-184c0 -9 2 -12 7 -12c1 0 6 2 16 8
c22 15 65 40 115 40c84 0 126 -57 126 -126v-172c0 -70 4 -78 40 -82l16 -2c8 -6 8 -29 -1 -35c-31 2 -73 3 -121 3c-43 0 -86 -1 -108 -3c-9 6 -9 29 -1 35l18 3c23 4 27 11 27 66v173c0 35 -21 67 -70 67c-28 0 -48 -13 -56 -24c-6 -7 -8 -19 -8 -37v-179
c0 -55 4 -62 27 -66l18 -3c8 -6 8 -29 -1 -35c-31 2 -63 3 -111 3c-41 0 -83 -1 -117 -3c-9 6 -9 29 -1 35l18 2c33 4 37 12 37 82v416c0 60 -15 82 -130 82h-75c-24 0 -27 -3 -27 -29v-441c0 -93 6 -101 51 -107l40 -5c7 -6 7 -29 0 -35c-65 2 -115 3 -160 3
c-48 0 -100 -1 -170 -3c-8 6 -8 29 0 35l45 5c45 5 51 14 51 107zM194 856l121 -50c13 -5 21 -7 35 -1l120 51c9 0 15 -14 13 -26l-129 -117c-15 -13 -30 -13 -44 0l-128 117c-2 12 5 25 12 26z" />
    <glyph glyph-name=".notdef" horiz-adv-x="500" 
d="M0 0v700h500v-700h-500zM250 395l170 255h-340zM280 350l170 -255v510zM80 50h340l-170 255zM50 605v-510l170 255z" />
    <glyph glyph-name="space" unicode=" " horiz-adv-x="240" 
 />
    <glyph glyph-name="space" unicode="&#xa0;" horiz-adv-x="240" 
 />
    <glyph glyph-name="exclam" unicode="!" horiz-adv-x="254" 
d="M127 646c52 0 80 -9 80 -43c0 -16 -6 -47 -16 -117l-42 -281c-12 -8 -32 -8 -44 0l-42 281c-10 70 -16 101 -16 117c0 34 28 43 80 43zM127 -14c-40 0 -81 32 -81 81c0 47 36 83 81 83c48 0 81 -40 81 -83c0 -46 -33 -81 -81 -81z" />
    <glyph glyph-name="quotedbl" unicode="&#x22;" horiz-adv-x="472" 
d="M136 700c42 0 64 -2 64 -34c0 -11 -3 -28 -8 -57l-37 -205c-11 -8 -27 -8 -38 0l-37 205c-5 29 -8 46 -8 57c0 32 22 34 64 34zM336 700c42 0 64 -2 64 -34c0 -11 -3 -28 -8 -57l-37 -205c-11 -8 -27 -8 -38 0l-37 205c-5 29 -8 46 -8 57c0 32 22 34 64 34z" />
    <glyph glyph-name="numbersign" unicode="#" horiz-adv-x="520" 
d="M330 396h-96l-40 -147h97zM492 396h-99l-40 -147h88l-11 -64h-94l-50 -182h-60l48 182h-97l-50 -182h-59l48 182h-98l11 64h104l39 147h-99l12 65h104l43 163h64l-44 -163h95l43 163h65l-44 -163h90z" />
    <glyph glyph-name="dollar" unicode="$" horiz-adv-x="520" 
d="M255 406l21 175c-59 -4 -89 -41 -89 -87c0 -38 24 -65 68 -88zM284 253l-24 -207c67 5 99 44 99 98c0 42 -22 81 -75 109zM338 703l-9 -77c46 -3 87 -14 113 -20c8 -23 17 -76 17 -130c-5 -9 -26 -12 -34 -3c-10 33 -40 89 -102 105l-23 -194l49 -21
c56 -24 135 -80 135 -181c0 -106 -87 -178 -230 -182l-11 -93c-6 -10 -42 -10 -48 0l11 95c-71 4 -121 26 -138 38c-19 20 -32 81 -32 143c7 11 25 13 34 2c17 -53 70 -121 142 -136l27 225l-32 14c-69 30 -135 78 -135 167c-1 100 80 167 209 172l9 76c6 10 42 10 48 0z
" />
    <glyph glyph-name="percent" unicode="%" horiz-adv-x="866" 
d="M663 -12c-118 0 -161 115 -161 194c0 80 43 194 161 194s161 -114 161 -194c0 -79 -43 -194 -161 -194zM601 183c0 -54 8 -155 64 -155c55 0 60 103 60 155s-5 153 -60 153c-56 0 -64 -98 -64 -153zM204 252c-118 0 -161 115 -161 194c0 80 43 194 161 194
s161 -114 161 -194c0 -79 -43 -194 -161 -194zM142 447c0 -54 8 -155 64 -155c55 0 60 103 60 155s-5 153 -60 153c-56 0 -64 -98 -64 -153zM268 -40c-18 -4 -38 7 -45 24c125 223 249 447 370 670c15 2 40 -7 45 -24c-125 -223 -249 -447 -370 -670z" />
    <glyph glyph-name="ampersand" unicode="&#x26;" horiz-adv-x="825" 
d="M313 640c97 0 156 -59 156 -134c0 -72 -63 -102 -92 -120c53 -28 106 -84 149 -140c22 38 36 66 53 106c14 32 25 61 25 70s-10 15 -27 18l-18 3c-9 6 -8 31 3 35h41c77 0 145 4 197 6c11 -4 13 -29 2 -35l-27 -4c-33 -5 -55 -20 -67 -30c-22 -17 -46 -57 -75 -100
c-20 -30 -49 -75 -60 -91c-5 -7 -12 -17 -14 -26h2c0 4 2 -5 17 -29c35 -46 61 -105 148 -105c36 0 75 17 90 27c8 -3 14 -16 12 -25c-25 -30 -93 -80 -199 -80c-70 0 -111 22 -124 43c-7 12 -23 33 -33 55c-55 -52 -109 -98 -202 -98c-133 0 -214 76 -214 179
c0 116 103 174 155 196c-36 28 -65 72 -65 120c0 101 86 159 167 159zM189 203c0 -85 62 -136 135 -136c75 0 121 60 121 63s-4 8 -16 29c-40 68 -107 123 -149 150c-12 8 -19 14 -24 14s-67 -40 -67 -120zM375 520c0 37 -19 76 -60 76c-34 0 -60 -31 -60 -73
c0 -71 69 -105 77 -107c10 4 43 46 43 104z" />
    <glyph glyph-name="quoteright" unicode="&#x2019;" horiz-adv-x="253" 
d="M114 700c41 0 99 -35 99 -122c0 -93 -75 -151 -158 -170c-17 2 -21 24 -10 31c36 13 85 46 85 93c0 42 -31 56 -55 62c-17 5 -30 21 -30 44c0 34 31 62 69 62z" />
    <glyph glyph-name="parenleft" unicode="(" horiz-adv-x="340" 
d="M181 270c0 -145 41 -317 149 -414c0 -9 -5 -18 -17 -19c-156 85 -229 263 -229 433s73 348 229 433c12 -1 17 -10 17 -19c-108 -97 -149 -269 -149 -414z" />
    <glyph glyph-name="parenright" unicode=")" horiz-adv-x="340" 
d="M159 270c0 145 -41 317 -149 414c0 9 5 18 17 19c156 -85 229 -263 229 -433s-73 -348 -229 -433c-12 1 -17 10 -17 19c108 97 149 269 149 414z" />
    <glyph glyph-name="asterisk" unicode="*" horiz-adv-x="405" 
d="M231 539l124 66c11 -3 18 -17 16 -31l-114 -80l113 -78c3 -12 -4 -26 -14 -31l-125 64l-13 -132c-6 -5 -24 -5 -31 0l-13 132l-127 -64c-10 4 -16 18 -13 28l115 81l-115 81c-3 10 3 24 13 29l127 -65l13 133c8 5 24 5 31 0z" />
    <glyph glyph-name="plus" unicode="+" horiz-adv-x="520" 
d="M305 0h-88v177h-157v72h157v159h88v-159h156v-72h-156v-177z" />
    <glyph glyph-name="comma" unicode="," horiz-adv-x="260" 
d="M116 168c43 0 103 -36 103 -129c0 -99 -78 -155 -164 -175c-18 2 -22 25 -11 32c38 14 89 48 89 97c0 44 -33 58 -58 65c-17 5 -31 22 -31 45c0 36 32 65 72 65z" />
    <glyph glyph-name="hyphen" unicode="-" horiz-adv-x="328" 
d="M45 237l239 22c9 -10 14 -25 14 -42c0 -13 -5 -29 -13 -39l-240 -22c-8 8 -15 22 -15 40c0 19 7 31 15 41z" />
    <glyph glyph-name="hyphen" unicode="&#xad;" horiz-adv-x="328" 
d="M45 237l239 22c9 -10 14 -25 14 -42c0 -13 -5 -29 -13 -39l-240 -22c-8 8 -15 22 -15 40c0 19 7 31 15 41z" />
    <glyph glyph-name="period" unicode="." horiz-adv-x="260" 
d="M130 -14c-40 0 -81 32 -81 81c0 47 36 83 81 83c48 0 81 -40 81 -83c0 -46 -33 -81 -81 -81z" />
    <glyph glyph-name="slash" unicode="/" horiz-adv-x="339" 
d="M319 676l-209 -692h-90l209 692h90z" />
    <glyph glyph-name="zero" unicode="0" horiz-adv-x="520" 
d="M260 640c162 0 231 -172 231 -327c0 -161 -69 -327 -231 -327s-231 166 -231 327c0 155 69 327 231 327zM175 313c0 -89 9 -281 85 -281s85 192 85 281s-9 281 -85 281s-85 -192 -85 -281z" />
    <glyph glyph-name="one" unicode="1" horiz-adv-x="520" 
d="M330 514v-385c0 -80 6 -90 55 -94l41 -3c9 -6 8 -32 -2 -35c-36 2 -96 3 -158 3c-66 0 -126 -1 -162 -3c-10 3 -11 29 -2 35l41 3c49 4 55 14 55 94v327c0 66 -4 81 -48 87l-46 6c-9 5 -10 29 -2 35c41 6 88 17 128 28c44 13 82 32 89 32c5 0 12 -3 14 -11
c-2 -23 -3 -69 -3 -119z" />
    <glyph glyph-name="two" unicode="2" horiz-adv-x="520" 
d="M221 103h121c73 0 85 2 114 55c7 7 30 7 34 -6c-9 -62 -32 -131 -49 -155c-40 2 -76 3 -140 3h-159c-52 0 -95 -1 -112 -3c-9 2 -12 13 -10 22c38 35 95 88 155 154c69 76 131 160 131 267c0 69 -42 122 -109 122c-57 0 -97 -37 -129 -92c-12 -8 -31 -2 -33 14
c41 101 133 156 230 156c117 0 189 -76 189 -170c0 -78 -31 -134 -151 -247l-48 -45c-44 -41 -53 -55 -53 -63c0 -6 5 -12 19 -12z" />
    <glyph glyph-name="three" unicode="3" horiz-adv-x="520" 
d="M213 577c-48 0 -93 -38 -123 -83c-14 -4 -28 7 -28 19c40 81 119 127 209 127c98 0 159 -48 159 -115c0 -41 -17 -82 -126 -129c-11 -5 -4 -13 9 -13c90 3 168 -59 168 -155c0 -72 -35 -145 -115 -204c-86 -62 -177 -80 -231 -80s-108 20 -108 71c0 27 20 55 60 55
c36 0 58 -40 67 -53c12 -18 29 -23 43 -23c43 0 134 57 134 180c0 89 -46 153 -117 153c-41 0 -74 -19 -99 -42c-20 4 -32 25 -23 48c40 15 121 48 161 81c18 15 42 45 42 90c0 37 -33 73 -82 73z" />
    <glyph glyph-name="four" unicode="4" horiz-adv-x="520" 
d="M277 129v28c0 26 -2 29 -23 29h-231c-12 5 -15 19 -11 32l325 464c11 16 19 24 33 24h29c17 0 25 -7 10 -27l-300 -416c-9 -13 -10 -21 22 -21h123c21 0 23 3 23 29v140c0 23 6 30 22 36c26 11 80 31 97 31c9 0 13 -7 13 -17v-190c0 -26 2 -29 23 -29h66
c15 -8 15 -47 0 -56h-66c-21 0 -23 -3 -23 -29v-28c0 -82 6 -91 50 -95l21 -2c9 -6 8 -32 -2 -35c-36 2 -89 3 -135 3c-66 0 -126 -1 -160 -3c-10 3 -11 29 -2 35l41 3c49 4 55 12 55 94z" />
    <glyph glyph-name="five" unicode="5" horiz-adv-x="520" 
d="M165 622l265 32c8 0 11 -5 11 -12c-9 -38 -30 -79 -55 -103l-226 -25c-14 -2 -19 -12 -23 -29l-6 -23c-6 -23 7 -27 27 -29c53 -6 146 -20 204 -49c56 -28 106 -84 106 -167c0 -104 -61 -171 -144 -216s-187 -64 -271 -66c-15 7 -19 38 -6 47c72 3 153 17 200 45
c59 35 93 81 93 135c0 143 -150 158 -250 166c-32 2 -36 11 -30 34l60 230c7 26 13 26 45 30z" />
    <glyph glyph-name="six" unicode="6" horiz-adv-x="520" 
d="M29 254c0 113 51 225 131 302c77 74 198 131 318 137c11 -6 13 -23 3 -35c-122 -30 -175 -71 -231 -140c-53 -66 -75 -162 -75 -255c0 -106 35 -231 110 -231c60 0 76 66 76 113c0 68 -28 190 -114 190c-7 1 -14 0 -23 -1c-6 4 -8 11 -7 18c18 21 65 44 100 44
c124 0 180 -93 180 -189c0 -131 -90 -221 -229 -221c-152 0 -239 111 -239 268z" />
    <glyph glyph-name="seven" unicode="7" horiz-adv-x="520" 
d="M169 626h192c63 0 132 1 145 3c7 -2 10 -10 9 -16c-25 -37 -57 -91 -99 -165l-288 -510c-17 -3 -46 9 -48 31l263 457c22 39 33 62 33 79c0 13 -14 16 -29 16h-212c-58 0 -68 -7 -91 -49c-8 -9 -30 -4 -34 7c17 49 30 112 39 150c33 -2 57 -3 120 -3z" />
    <glyph glyph-name="eight" unicode="8" horiz-adv-x="520" 
d="M255 -14c-117 0 -219 53 -219 162c0 75 53 126 132 166c-62 34 -106 83 -106 154c0 98 81 172 205 172c113 0 193 -61 193 -156c0 -71 -56 -108 -109 -138c75 -38 134 -91 134 -187c0 -94 -73 -173 -230 -173zM271 32c44 0 83 34 83 94c0 79 -55 121 -138 160
c-36 -36 -51 -79 -51 -127c0 -70 41 -127 106 -127zM265 594c-46 0 -81 -39 -81 -93c0 -47 34 -89 116 -124c31 19 48 61 48 109c0 69 -43 108 -83 108z" />
    <glyph glyph-name="nine" unicode="9" horiz-adv-x="520" 
d="M250 640c153 0 238 -118 238 -257c0 -121 -53 -226 -138 -304c-83 -77 -216 -136 -300 -139c-12 5 -13 26 -4 33c195 48 296 216 296 400c0 76 -22 221 -106 221c-47 0 -74 -57 -74 -117c0 -82 33 -168 101 -180c13 -2 19 -2 28 -2c5 -3 7 -13 6 -21
c-17 -18 -58 -31 -99 -31c-94 0 -170 77 -170 178c0 128 98 219 222 219z" />
    <glyph glyph-name="colon" unicode=":" horiz-adv-x="260" 
d="M130 -14c-40 0 -81 32 -81 81c0 47 36 83 81 83c48 0 81 -40 81 -83c0 -46 -33 -81 -81 -81zM130 230c-40 0 -81 30 -81 78c0 49 36 86 81 86c48 0 81 -40 81 -86c0 -45 -33 -78 -81 -78z" />
    <glyph glyph-name="semicolon" unicode=";" horiz-adv-x="260" 
d="M116 168c43 0 103 -36 103 -129c0 -99 -78 -155 -164 -175c-18 2 -22 25 -11 32c38 14 89 48 89 97c0 44 -33 58 -58 65c-17 5 -31 22 -31 45c0 36 32 65 72 65zM130 230c-40 0 -81 30 -81 78c0 49 36 86 81 86c48 0 81 -40 81 -86c0 -45 -33 -78 -81 -78z" />
    <glyph glyph-name="less" unicode="&#x3c;" horiz-adv-x="520" 
d="M66 236l389 178v-83l-286 -123v-2l286 -124v-82l-389 177v59z" />
    <glyph glyph-name="equal" unicode="=" horiz-adv-x="520" 
d="M461 106h-401v72h401v-72zM461 250h-401v72h401v-72z" />
    <glyph glyph-name="greater" unicode="&#x3e;" horiz-adv-x="520" 
d="M66 414l389 -178v-59l-389 -177v82l286 124v2l-286 123v83z" />
    <glyph glyph-name="question" unicode="?" horiz-adv-x="332" 
d="M55 321c0 56 32 74 90 99l47 20c30 13 48 22 48 36c0 30 -39 44 -145 44c-19 0 -55 19 -55 64c0 33 28 62 70 62c92 0 182 -95 182 -204c0 -58 -26 -90 -63 -107l-66 -30c-27 -12 -41 -27 -41 -43c0 -15 3 -34 10 -54c-5 -9 -25 -13 -33 -5c-17 23 -44 77 -44 118z
M131 -14c-40 0 -81 32 -81 81c0 47 36 83 81 83c48 0 81 -40 81 -83c0 -46 -33 -81 -81 -81z" />
    <glyph glyph-name="at" unicode="@" horiz-adv-x="769" 
d="M441 541c190 0 293 -128 293 -270c0 -130 -96 -230 -265 -230c-58 0 -67 20 -67 28c0 9 4 18 9 32l21 55l-2 1c-51 -62 -139 -116 -181 -116c-30 0 -44 22 -44 44c0 19 19 83 76 156c45 56 122 124 197 124c16 0 29 -6 34 -16l24 45c5 1 10 2 16 2c21 0 41 -5 53 -14
c-12 -30 -100 -234 -113 -267c-9 -25 -7 -34 14 -34c81 0 175 69 175 188c0 138 -107 227 -240 227c-185 0 -306 -161 -306 -335c0 -109 61 -266 279 -266c76 0 122 20 154 33c10 -4 15 -23 9 -32c-60 -33 -137 -46 -195 -46c-176 0 -342 99 -342 312c0 233 189 379 401 379
zM379 139c40 37 99 131 110 168c-5 13 -14 25 -30 25c-8 0 -24 -9 -49 -31c-53 -48 -101 -148 -101 -186c0 -10 4 -14 10 -14c8 0 24 5 60 38z" />
    <glyph glyph-name="A" unicode="A" horiz-adv-x="624" 
d="M324 226h-112c-24 0 -27 -1 -33 -20l-37 -116c-6 -20 -7 -28 -7 -36c0 -6 8 -12 36 -17l30 -5c6 -7 8 -30 -2 -35c-35 2 -75 2 -117 3c-34 0 -57 -3 -103 -3c-11 6 -10 27 -3 35l27 3c24 3 44 11 61 50c17 40 35 88 62 160l90 244c23 63 42 98 39 127c48 11 85 60 87 60
c13 0 19 -5 23 -20c8 -29 20 -66 45 -137l136 -392c21 -60 30 -83 67 -89l38 -6c6 -5 8 -29 -1 -35c-48 2 -102 3 -154 3c-50 0 -89 -1 -135 -3c-11 6 -13 27 -2 35l32 5c23 4 27 11 27 17c0 7 -7 31 -19 68l-27 86c-5 16 -13 18 -48 18zM232 279h87c23 0 28 3 20 29l-26 81
c-14 43 -27 84 -36 105c-10 -22 -26 -64 -41 -110l-25 -75c-9 -27 -4 -30 21 -30z" />
    <glyph glyph-name="B" unicode="B" horiz-adv-x="635" 
d="M114 144v353c0 101 -2 111 -44 117l-27 4c-9 5 -11 35 4 36c76 5 149 9 249 9c96 0 160 -11 204 -37c43 -26 69 -68 69 -127c0 -84 -71 -117 -102 -125c-10 -2 -20 -6 -20 -11c0 -3 5 -6 14 -8c79 -17 146 -69 147 -166c1 -92 -54 -146 -117 -168s-138 -25 -199 -25
c-36 0 -74 4 -103 4c-49 0 -98 -1 -155 -3c-8 6 -8 32 0 35l29 6c45 9 51 16 51 106zM252 565v-165c0 -26 1 -28 53 -28c86 0 118 55 118 115c0 87 -54 130 -123 130c-47 0 -48 -8 -48 -52zM252 287v-118c0 -78 10 -127 88 -127c74 0 113 57 113 138c0 87 -50 148 -146 148
c-55 0 -55 -1 -55 -41z" />
    <glyph glyph-name="C" unicode="C" horiz-adv-x="689" 
d="M438 676c102 0 176 -24 206 -26c0 -18 3 -98 12 -156c-4 -12 -31 -16 -38 -7c-27 93 -91 143 -188 143c-111 0 -230 -95 -230 -294s115 -306 235 -306c121 0 177 87 204 155c8 8 32 5 38 -7c-7 -74 -24 -134 -38 -157c-54 -15 -125 -37 -203 -37c-98 0 -198 23 -269 76
c-72 55 -127 138 -127 262c0 122 52 208 121 265c71 59 173 89 277 89z" />
    <glyph glyph-name="D" unicode="D" horiz-adv-x="793" 
d="M114 144v354c0 95 -2 114 -48 119l-19 2c-10 5 -10 34 2 35c84 5 162 9 268 9c82 0 164 -8 233 -33c131 -47 203 -165 203 -290c0 -134 -64 -242 -179 -299c-68 -34 -150 -47 -253 -47c-47 0 -97 6 -133 6c-48 0 -99 -1 -156 -3c-8 6 -8 30 0 35l31 5c45 7 51 15 51 107z
M257 546v-365c0 -55 2 -91 20 -112c18 -20 47 -29 83 -29c173 0 232 154 232 290c0 180 -95 287 -276 287c-27 0 -46 -5 -52 -13s-7 -27 -7 -58z" />
    <glyph glyph-name="E" unicode="E" horiz-adv-x="593" 
d="M257 575v-175c0 -28 1 -30 28 -30h69c52 0 64 7 74 55l5 25c7 8 32 8 37 -1c-2 -32 -3 -68 -3 -106s1 -74 3 -106c-5 -9 -30 -10 -37 -1l-5 25c-10 48 -22 56 -74 56h-69c-27 0 -28 -1 -28 -31v-119c0 -46 4 -78 16 -95c13 -18 32 -26 105 -26c87 0 121 3 176 116
c8 11 33 7 37 -5c-4 -52 -28 -133 -42 -160c-53 2 -149 3 -231 3h-130c-48 0 -97 -1 -172 -3c-8 6 -8 30 0 35l47 7c45 7 51 13 51 105v373c0 91 -6 97 -51 106l-25 5c-9 6 -8 29 2 35c47 -2 96 -3 144 -3h212c64 0 121 1 134 3c1 -16 8 -88 13 -155c-4 -11 -27 -13 -37 -4
c-11 35 -25 65 -38 79c-19 19 -49 31 -98 31h-80c-33 0 -33 -2 -33 -39z" />
    <glyph glyph-name="F" unicode="F" horiz-adv-x="548" 
d="M257 573v-181c0 -27 1 -30 28 -30h77c53 0 64 7 74 56l5 24c7 9 32 8 38 -1c-2 -32 -3 -69 -3 -107c0 -37 1 -74 3 -104c-6 -9 -31 -10 -38 -1l-5 24c-10 48 -21 56 -74 56h-77c-27 0 -28 -3 -28 -30v-135c0 -93 6 -101 51 -107l37 -5c7 -6 7 -29 0 -35
c-62 2 -111 3 -159 3c-46 0 -96 -1 -156 -3c-8 6 -8 29 0 35l33 5c45 7 51 14 51 107v372c0 93 -6 102 -51 109l-20 3c-9 6 -9 31 2 35c43 -2 93 -3 141 -3h210c64 0 121 1 135 3c0 -17 0 -89 2 -156c-4 -11 -26 -12 -38 -4c-11 41 -19 65 -29 78c-17 21 -47 33 -98 33h-78
c-33 0 -33 -2 -33 -41z" />
    <glyph glyph-name="G" unicode="G" horiz-adv-x="734" 
d="M663 169v-56c0 -42 2 -62 21 -66c4 -4 3 -21 -3 -24c-17 -3 -43 -6 -70 -15c-35 -11 -121 -24 -177 -24c-68 0 -126 7 -197 35c-117 47 -197 158 -197 302c0 125 56 235 176 302c68 37 149 53 234 53c111 0 166 -24 198 -24c3 -30 4 -100 14 -161c-4 -11 -31 -12 -38 -2
c-32 94 -95 141 -188 141c-159 0 -236 -132 -236 -290c0 -143 49 -228 114 -272c48 -32 100 -38 137 -38c57 0 69 11 69 76v63c0 54 -6 60 -54 67l-44 6c-11 6 -11 29 0 35c71 -2 120 -3 169 -3c48 0 97 1 131 3c8 -6 8 -29 0 -35l-23 -4c-30 -5 -36 -15 -36 -69z" />
    <glyph glyph-name="H" unicode="H" horiz-adv-x="806" 
d="M507 317h-208c-41 0 -42 -1 -42 -29v-144c0 -93 6 -102 51 -108l32 -4c8 -6 8 -29 0 -35c-57 2 -107 3 -152 3c-48 0 -98 -1 -149 -3c-8 6 -8 29 0 35l24 3c46 6 51 16 51 109v372c0 93 -5 103 -51 109l-24 3c-8 6 -8 29 0 35c49 -2 101 -3 149 -3c45 0 95 1 139 3
c8 -6 8 -29 0 -35l-21 -3c-43 -6 -49 -16 -49 -109v-116c0 -29 1 -30 42 -30h208c42 0 42 1 42 30v116c0 93 -5 101 -51 108l-27 4c-8 6 -8 29 0 35c55 -2 104 -3 152 -3c49 0 95 1 141 3c8 -6 8 -29 0 -35l-20 -3c-46 -7 -52 -16 -52 -109v-372c0 -93 6 -100 52 -108l24 -4
c8 -6 8 -29 0 -35c-50 2 -99 3 -145 3c-50 0 -99 -1 -147 -3c-8 6 -8 29 0 35l22 3c46 6 51 16 51 109v144c0 28 0 29 -42 29z" />
    <glyph glyph-name="I" unicode="I" horiz-adv-x="371" 
d="M257 514v-368c0 -94 6 -101 52 -109l28 -5c8 -6 7 -29 -1 -35c-54 2 -103 3 -150 3c-48 0 -98 -1 -152 -3c-8 6 -8 29 0 35l28 5c46 8 52 15 52 109v368c0 94 -6 101 -52 109l-28 5c-8 6 -8 29 0 35c54 -2 104 -3 152 -3c47 0 97 1 151 3c8 -6 8 -29 0 -35l-28 -5
c-46 -8 -52 -15 -52 -109z" />
    <glyph glyph-name="J" unicode="J" horiz-adv-x="383" 
d="M134 138v376c0 94 -6 101 -52 108l-38 6c-8 6 -8 29 0 35c64 -2 114 -3 161 -3c48 0 98 1 150 3c8 -6 8 -29 0 -35l-26 -5c-46 -9 -52 -15 -52 -109v-362c0 -79 -6 -148 -23 -193c-34 -88 -107 -155 -234 -160c-28 -1 -76 6 -76 40c0 19 12 44 26 58c8 8 17 13 28 13
c16 0 34 -12 51 -25s33 -25 44 -25c23 0 28 47 32 82c2 17 9 90 9 196z" />
    <glyph glyph-name="K" unicode="K" horiz-adv-x="715" 
d="M257 516v-122c0 -33 6 -37 18 -37c21 0 61 38 77 58c53 64 102 123 134 170c9 13 13 22 13 26s-4 11 -17 13l-23 4c-11 7 -9 31 4 35c51 -2 88 -3 124 -3c37 0 81 1 121 3c12 -4 13 -27 5 -35c-35 -4 -65 -9 -86 -18c-40 -16 -83 -54 -148 -128l-46 -52
c-10 -11 -13 -19 -13 -23c0 -5 6 -17 36 -62c50 -75 109 -171 177 -261c27 -36 46 -43 74 -47l32 -5c6 -9 6 -30 -3 -35c-50 2 -98 3 -144 3c-51 0 -101 -1 -157 -3c-13 4 -13 29 -2 35l25 6c11 3 17 6 17 10s-2 11 -8 20s-48 74 -58 89l-53 81c-36 55 -53 79 -75 79
c-23 0 -24 -14 -24 -68v-105c0 -93 6 -102 51 -108l28 -4c8 -7 8 -29 0 -35c-53 2 -103 3 -151 3c-45 0 -97 -1 -150 -3c-8 6 -8 29 0 35l28 4c45 6 51 15 51 108v372c0 93 -6 102 -51 108l-28 4c-11 6 -11 29 0 35c50 -2 100 -3 150 -3c48 0 98 1 151 3c9 -6 9 -29 0 -35
l-28 -4c-45 -6 -51 -15 -51 -108z" />
    <glyph glyph-name="L" unicode="L" horiz-adv-x="585" 
d="M257 516v-350c0 -47 4 -79 17 -95c13 -17 31 -25 104 -25c91 0 119 3 178 119c8 10 31 6 38 -6c-5 -52 -29 -135 -43 -162c-53 2 -149 3 -231 3h-134c-46 0 -96 -1 -158 -3c-9 6 -11 29 -3 35l38 5c45 6 51 14 51 107v372c0 93 -6 102 -51 108l-29 4c-10 6 -10 29 2 35
c52 -2 102 -3 150 -3s98 1 148 3c8 -6 8 -29 0 -35l-26 -4c-45 -7 -51 -15 -51 -108z" />
    <glyph glyph-name="M" unicode="M" horiz-adv-x="908" 
d="M56 624l-22 4c-8 8 -8 32 3 35c34 -2 77 -3 126 -3c33 0 62 0 98 3c0 -62 35 -123 79 -217l66 -141c9 -20 40 -77 54 -102c13 24 29 55 56 114l51 110c48 103 70 150 92 236c46 -4 77 -3 107 -3c33 0 79 1 115 3c11 -6 11 -25 3 -35l-29 -5c-41 -7 -61 -19 -61 -72
c0 -206 2 -314 8 -440c2 -46 6 -70 45 -75l32 -4c8 -8 8 -31 -2 -35c-46 2 -89 3 -138 3c-45 0 -100 -1 -148 -3c-12 5 -13 28 -3 35l30 4c46 6 46 18 46 79l-2 260v114h-2c-74 -160 -154 -327 -220 -496c-5 -4 -12 -7 -20 -7c-9 0 -20 2 -26 6c-39 124 -158 367 -214 497
h-2c-4 -65 -6 -104 -7 -156c-1 -65 -2 -165 -2 -225c0 -50 6 -64 46 -70l39 -6c8 -7 6 -30 -2 -35c-37 2 -80 3 -118 3c-32 0 -73 -1 -113 -3c-13 4 -13 30 -4 35l18 3c51 9 54 15 60 77c5 49 10 136 16 231c4 67 7 148 7 202c0 57 -22 72 -62 79z" />
    <glyph glyph-name="N" unicode="N" horiz-adv-x="748" 
d="M652 409v-239c0 -65 0 -128 2 -161c-7 -12 -35 -23 -59 -23c-1 0 -34 51 -81 109l-231 286c-58 71 -91 113 -109 128c-5 -10 -5 -27 -5 -64v-194c0 -81 4 -156 15 -183c9 -21 32 -28 58 -32l28 -4c8 -8 6 -29 0 -35c-54 2 -94 3 -134 3c-37 0 -74 -1 -112 -3
c-6 6 -8 27 0 35l17 3c27 5 47 12 55 33c11 27 14 102 14 183v254c0 55 -1 71 -7 85c-8 17 -22 29 -57 34l-28 4c-7 8 -6 32 4 35c47 -2 97 -3 138 -3c34 0 63 1 84 3c10 -45 75 -121 165 -228l84 -99c44 -52 73 -87 96 -110c4 10 4 27 4 45v138c0 81 -4 156 -15 183
c-9 21 -31 28 -58 32l-27 4c-8 8 -6 29 0 35c54 -2 93 -3 134 -3c37 0 73 1 112 3c6 -6 8 -27 0 -35l-18 -3c-26 -4 -45 -12 -54 -33c-11 -27 -15 -102 -15 -183z" />
    <glyph glyph-name="O" unicode="O" horiz-adv-x="788" 
d="M397 676c208 0 351 -140 351 -343c0 -218 -146 -349 -361 -349c-201 0 -347 132 -347 341c0 198 148 351 357 351zM588 320c0 171 -75 310 -199 310c-123 0 -189 -115 -189 -282c0 -122 43 -318 206 -318c131 0 182 128 182 290z" />
    <glyph glyph-name="P" unicode="P" horiz-adv-x="601" 
d="M114 144v354c0 101 -2 113 -44 118l-31 4c-9 5 -9 27 2 34c66 5 144 9 231 9c85 0 141 -10 183 -26c61 -23 122 -76 122 -173c0 -164 -165 -188 -218 -188c-12 0 -21 0 -32 1c-8 5 -10 21 -3 27c83 26 100 85 100 159s-38 154 -128 154c-37 0 -39 -11 -39 -51v-422
c0 -93 6 -101 51 -108l32 -5c11 -5 11 -28 0 -34c-56 2 -105 3 -153 3s-96 -1 -150 -3c-11 6 -13 29 -2 34l28 5c45 8 51 15 51 108z" />
    <glyph glyph-name="Q" unicode="Q" horiz-adv-x="788" 
d="M397 676c208 0 351 -139 351 -344c0 -162 -80 -275 -209 -323c-7 -4 -4 -11 9 -23c64 -60 141 -124 217 -144c29 -7 58 -8 75 -8c14 0 30 3 43 8c9 -4 12 -16 9 -24c-37 -26 -94 -37 -143 -37c-144 0 -268 76 -361 172c-19 20 -29 32 -53 34c-164 14 -295 142 -295 338
c0 198 148 351 357 351zM389 630c-123 0 -189 -115 -189 -282c0 -122 43 -319 206 -319c131 0 182 129 182 291c0 171 -75 310 -199 310z" />
    <glyph glyph-name="R" unicode="R" horiz-adv-x="664" 
d="M114 144v354c0 100 -2 111 -44 117l-27 4c-10 5 -10 30 2 35c75 5 153 9 248 9c85 0 158 -13 196 -36c58 -34 88 -84 88 -148c0 -89 -60 -127 -106 -150c-10 -5 -10 -11 -5 -22c66 -134 107 -209 155 -250c26 -21 52 -27 67 -28c9 -5 9 -20 4 -26c-16 -7 -48 -9 -79 -9
c-92 0 -150 33 -194 105c-32 53 -55 102 -78 155c-12 27 -28 35 -53 35c-35 0 -37 -2 -37 -22v-123c0 -92 6 -99 51 -107l27 -5c7 -5 7 -29 0 -35c-53 2 -99 3 -147 3c-50 0 -94 -1 -146 -3c-8 6 -8 30 0 35l27 5c45 8 51 15 51 107zM251 566v-195c0 -35 3 -38 62 -38
c36 0 57 9 76 28c17 17 36 49 36 108c0 90 -53 148 -131 148c-41 0 -43 -3 -43 -51z" />
    <glyph glyph-name="S" unicode="S" horiz-adv-x="506" 
d="M477 187c0 -123 -101 -203 -252 -203c-92 0 -149 26 -170 38c-19 22 -32 94 -32 162c7 13 30 14 38 3c20 -65 87 -157 172 -157c74 0 108 51 108 101c0 81 -76 129 -136 159c-72 36 -151 96 -151 195c-1 113 87 191 232 191c33 0 74 -4 114 -16c13 -4 22 -6 34 -8
c8 -22 18 -76 18 -143c-5 -12 -30 -13 -39 -3c-17 51 -60 124 -132 124c-66 0 -102 -43 -102 -93c0 -46 41 -88 91 -114l66 -35c62 -33 141 -91 141 -201z" />
    <glyph glyph-name="T" unicode="T" horiz-adv-x="645" 
d="M255 144v441c0 24 0 29 -24 29h-62c-73 0 -94 -40 -124 -113c-12 -6 -31 -4 -37 9c21 69 26 131 33 170c4 3 9 5 14 5s10 -1 14 -4c5 -17 8 -21 84 -21h372c66 0 81 1 90 22c4 2 7 3 13 3s13 -4 15 -7c-10 -34 -17 -115 -15 -172c-5 -9 -32 -11 -37 -3
c-17 64 -31 111 -106 111h-60c-24 0 -27 -3 -27 -29v-441c0 -93 6 -101 51 -107l40 -5c7 -6 7 -29 0 -35c-65 2 -115 3 -160 3c-48 0 -100 -1 -170 -3c-8 6 -8 29 0 35l45 5c45 5 51 14 51 107z" />
    <glyph glyph-name="U" unicode="U" horiz-adv-x="740" 
d="M109 266v250c0 93 -6 99 -51 108l-25 5c-8 6 -9 28 2 34c48 -2 98 -3 146 -3c49 0 98 1 146 3c8 -6 8 -28 0 -34l-24 -4c-45 -8 -51 -16 -51 -109v-231c0 -117 13 -246 165 -246c128 0 167 112 167 249v121c0 81 -4 157 -15 183c-9 21 -31 27 -58 32l-27 5
c-8 8 -6 28 0 34c54 -2 93 -3 134 -3c37 0 74 1 112 3c6 -6 8 -26 0 -34l-18 -4c-26 -6 -45 -12 -54 -33c-11 -26 -15 -102 -15 -183v-112c0 -94 -9 -180 -64 -241c-44 -47 -117 -72 -198 -72c-76 0 -144 12 -198 56c-52 43 -74 117 -74 226z" />
    <glyph glyph-name="V" unicode="V" horiz-adv-x="642" 
d="M527 421l-73 -173c-51 -121 -78 -200 -101 -256c-8 -5 -20 -8 -35 -8c-12 0 -21 3 -27 8c-11 27 -28 80 -42 114l-162 407c-38 96 -43 98 -75 106l-40 10c-8 11 -5 29 4 34c51 -1 84 -3 136 -3c46 0 89 1 150 3c8 -6 7 -25 1 -34l-30 -6c-18 -4 -25 -10 -25 -19
c0 -8 16 -50 40 -110l88 -225c14 -37 24 -60 31 -77c8 17 20 44 32 74l37 94c25 63 67 175 79 209c7 19 10 30 10 36c0 7 -3 11 -27 17l-29 7c-8 8 -8 29 4 34c47 -2 85 -3 123 -3c34 0 64 1 93 3c8 -4 9 -28 2 -34l-26 -5c-28 -5 -42 -14 -55 -35c-22 -33 -49 -87 -83 -168
z" />
    <glyph glyph-name="W" unicode="W" horiz-adv-x="960" 
d="M1011 628l-30 -7c-23 -5 -34 -13 -41 -22c-11 -16 -28 -48 -55 -111c-49 -117 -162 -366 -211 -496c-6 -5 -20 -8 -33 -8c-11 0 -20 3 -27 8c-11 24 -26 60 -38 88l-42 95c-14 32 -27 62 -36 77c-9 -17 -21 -41 -34 -69l-47 -102c-15 -32 -26 -61 -42 -94
c-5 -5 -18 -8 -33 -8c-11 0 -17 3 -26 8c-16 42 -56 132 -90 207l-164 358c-27 59 -33 64 -66 71l-25 5c-8 10 -7 30 4 35c37 -2 79 -3 130 -3c44 0 83 1 121 3c8 -4 12 -29 2 -35l-18 -3c-18 -3 -25 -8 -25 -15s21 -54 52 -124l99 -221c28 -62 38 -83 50 -107
c12 22 28 52 48 97l13 29c7 16 13 38 13 44s-2 17 -6 27l-96 211c-23 50 -30 57 -68 61l-10 1c-10 8 -8 31 3 35c43 -2 82 -3 126 -3c51 0 89 1 115 3c12 -3 11 -30 4 -35l-17 -4c-12 -3 -27 -7 -27 -14c0 -8 4 -19 9 -30l30 -69c9 -21 19 -43 28 -61c10 21 20 41 30 63
l9 20c17 38 27 68 27 74c0 7 -4 10 -20 14l-30 7c-7 7 -6 30 3 35c29 -2 65 -3 98 -3c39 0 76 1 102 3c8 -5 10 -29 1 -36l-28 -6c-34 -7 -41 -11 -76 -71c-24 -41 -49 -87 -62 -113c-9 -18 -22 -47 -22 -52c0 -3 1 -9 8 -25l47 -101c26 -55 38 -84 44 -98
c48 116 95 240 143 362c7 17 27 74 27 85c0 7 -6 10 -19 14l-22 6c-8 9 -6 30 3 35c32 -2 72 -3 102 -3c35 0 64 1 92 3c9 -5 10 -27 3 -35z" />
    <glyph glyph-name="X" unicode="X" horiz-adv-x="665" 
d="M-12 30l23 3c60 8 83 39 116 84c29 38 81 112 124 176c9 13 14 25 14 31c0 4 -3 14 -16 32c-33 49 -96 148 -143 215c-23 33 -44 46 -89 54l-17 3c-9 8 -9 29 1 35c32 -2 95 -3 156 -3c81 0 121 1 152 3c11 -5 11 -27 4 -35l-22 -4c-16 -3 -34 -8 -34 -15
c0 -9 4 -18 16 -39c27 -47 57 -93 88 -138c37 56 68 98 99 151c11 18 11 25 11 30c0 3 -7 8 -20 10l-32 5c-8 7 -8 30 3 35c31 -2 68 -3 115 -3c48 0 84 1 116 3c10 -5 11 -26 4 -35l-32 -4c-21 -3 -39 -7 -57 -25c-48 -49 -102 -117 -149 -181c-10 -14 -20 -29 -20 -34
s4 -16 14 -31c75 -116 124 -191 160 -245c35 -53 60 -67 98 -72l31 -4c7 -7 7 -28 -3 -35c-44 2 -75 3 -156 3c-69 0 -114 -1 -168 -3c-9 4 -13 30 -3 35l27 3c25 3 37 8 37 14c0 8 -4 17 -29 59c-15 27 -87 139 -102 158c-39 -57 -84 -128 -117 -191c-7 -14 -9 -21 -9 -27
s11 -11 32 -13l26 -3c9 -7 8 -31 -3 -35c-44 2 -95 3 -137 3c-33 0 -75 -1 -105 -3c-10 5 -13 27 -4 33z" />
    <glyph glyph-name="Y" unicode="Y" horiz-adv-x="575" 
d="M367 214v-70c0 -93 6 -101 51 -107l40 -5c7 -6 7 -29 0 -35c-65 2 -114 3 -162 3s-98 -1 -157 -3c-8 6 -8 29 0 35l34 5c45 7 51 14 51 107v50c0 50 -1 66 -27 119l-119 246c-20 41 -29 57 -64 63l-34 6c-9 8 -8 32 4 35c45 -2 82 -3 141 -3c61 0 112 1 146 3
c9 -4 11 -27 2 -35l-34 -8c-18 -4 -24 -8 -24 -9c0 -8 5 -23 26 -70l47 -107c15 -33 34 -73 46 -98c29 49 57 107 84 158c38 71 52 104 52 116c0 6 -10 10 -34 14l-23 4c-8 5 -9 30 1 35c40 -2 76 -3 112 -3c38 0 69 1 98 3c12 -4 12 -28 4 -35l-26 -5
c-18 -3 -37 -10 -48 -24c-15 -19 -40 -55 -88 -142l-63 -114c-26 -47 -36 -72 -36 -129z" />
    <glyph glyph-name="Z" unicode="Z" horiz-adv-x="614" 
d="M360 614h-108c-116 0 -137 -31 -171 -115c-13 -8 -35 -4 -41 7c19 70 29 124 39 177c4 4 18 4 26 1c6 -20 11 -24 85 -24h286c69 0 100 1 117 3c5 -3 7 -9 6 -15c-16 -17 -71 -92 -150 -214l-109 -169c-101 -157 -126 -194 -126 -206c0 -8 11 -13 92 -13h93
c98 0 132 13 187 126c12 8 32 4 39 -7c-6 -55 -28 -143 -44 -168c-84 2 -139 3 -209 3h-252c-53 0 -85 -1 -101 -3c-7 3 -10 11 -8 17c15 17 62 89 92 134l197 300c18 28 66 103 84 136c7 13 10 18 10 24c0 4 -9 6 -34 6z" />
    <glyph glyph-name="bracketleft" unicode="[" horiz-adv-x="340" 
d="M121 -152v840c23 1 45 1 78 1c55 0 95 -2 110 -4c8 -4 8 -27 1 -31l-69 -11c-32 -5 -38 -20 -38 -160v-430c0 -140 6 -155 38 -160l69 -11c7 -4 7 -27 -1 -31c-15 -2 -55 -4 -110 -4c-33 0 -55 0 -78 1z" />
    <glyph glyph-name="backslash" unicode="\" horiz-adv-x="321" 
d="M110 676l191 -692h-90l-191 692h90z" />
    <glyph glyph-name="bracketright" unicode="]" horiz-adv-x="340" 
d="M219 688v-840c-23 -1 -45 -1 -78 -1c-55 0 -95 2 -110 4c-8 4 -8 27 -1 31l69 11c32 5 38 20 38 160v430c0 140 -6 155 -38 160l-69 11c-7 4 -7 27 1 31c15 2 55 4 110 4c33 0 55 0 78 -1z" />
    <glyph glyph-name="asciicircum" unicode="^" horiz-adv-x="520" 
d="M461 244h-89l-111 263l-111 -263h-90l167 382h68z" />
    <glyph glyph-name="underscore" unicode="_" horiz-adv-x="500" 
d="M500 -75v-50h-500v50h500z" />
    <glyph glyph-name="quoteleft" unicode="&#x2018;" horiz-adv-x="253" 
d="M139 414c-41 0 -99 35 -99 122c0 93 75 151 158 170c17 -2 21 -24 10 -31c-36 -13 -85 -46 -85 -93c0 -42 31 -56 55 -62c17 -5 30 -21 30 -44c0 -34 -31 -62 -69 -62z" />
    <glyph glyph-name="a" unicode="a" horiz-adv-x="443" 
d="M378 269l-7 -132c-4 -68 25 -86 45 -86c12 0 22 3 38 12c9 -2 15 -14 12 -23c-12 -16 -59 -54 -116 -54c-35 0 -57 12 -84 35c-7 6 -11 8 -16 8s-11 -4 -21 -11c-18 -13 -48 -32 -85 -32c-58 0 -112 35 -112 105c0 51 31 82 104 104c38 12 66 20 94 28c18 5 23 12 24 20
c1 11 2 22 2 34c0 38 -15 86 -58 86c-24 0 -45 -14 -52 -57c-2 -16 -8 -25 -17 -32c-15 -11 -54 -23 -72 -23c-17 0 -23 11 -23 25c0 26 24 58 48 77c34 27 97 61 168 61c84 0 133 -42 128 -145zM249 100l2 63c1 16 0 19 -7 18c-45 -6 -84 -23 -84 -70c0 -32 23 -60 51 -60
c31 0 37 18 38 49z" />
    <glyph glyph-name="b" unicode="b" horiz-adv-x="532" 
d="M196 562v-151c0 -17 5 -23 12 -25c26 14 63 28 106 28c113 0 187 -86 187 -200c0 -145 -102 -228 -246 -228c-45 0 -88 10 -107 18c-15 6 -24 9 -31 9c-10 0 -27 -8 -34 -15c-7 -1 -15 2 -20 7c2 13 3 47 3 99v452c0 40 0 51 -20 63l-17 10c-7 6 -7 24 0 30
c43 10 103 34 154 56c6 0 13 -2 17 -7c-3 -41 -4 -83 -4 -146zM196 294v-153c0 -26 5 -53 20 -75c13 -20 34 -34 59 -34c65 0 88 71 88 151c0 100 -49 168 -118 168c-18 0 -32 -5 -40 -11c-7 -5 -9 -22 -9 -46z" />
    <glyph glyph-name="c" unicode="c" horiz-adv-x="416" 
d="M281 414c34 0 78 -7 105 -17c13 -11 21 -25 21 -52c0 -30 -14 -57 -26 -57c-5 0 -14 2 -16 5c-28 40 -67 75 -103 75c-65 0 -100 -74 -100 -143c0 -79 51 -159 143 -159c37 0 67 12 89 49c12 1 26 -6 26 -22c-22 -50 -82 -107 -177 -107c-126 0 -212 84 -212 202
c0 142 115 226 250 226z" />
    <glyph glyph-name="d" unicode="d" horiz-adv-x="537" 
d="M466 562v-398c0 -94 4 -117 23 -117c18 0 26 2 43 8c11 -9 11 -34 1 -43c-99 -6 -177 -36 -180 -36c-7 0 -15 6 -17 14l3 31c-1 8 -5 11 -9 8c-35 -22 -71 -43 -108 -43c-114 0 -191 89 -191 197c0 141 106 231 238 231c22 0 46 -2 57 -5c7 3 10 11 10 19v128
c0 40 0 51 -20 63l-17 10c-8 6 -7 24 0 30c43 10 104 34 153 56c7 0 13 -2 17 -7c-2 -41 -3 -83 -3 -146zM336 103v194c0 16 -3 26 -7 34c-12 21 -34 37 -57 37c-51 0 -101 -53 -101 -158c0 -66 30 -157 112 -157c14 0 28 4 41 12c11 7 12 20 12 38z" />
    <glyph glyph-name="e" unicode="e" horiz-adv-x="420" 
d="M372 237h-192c-23 0 -25 -2 -25 -18c0 -75 48 -148 141 -148c28 0 66 6 93 52c11 2 26 -6 26 -23c-41 -85 -115 -114 -175 -114c-135 0 -208 95 -208 204c0 126 91 224 216 224c104 0 160 -67 160 -144c0 -19 -5 -33 -36 -33zM209 281h37c14 0 30 2 41 9c5 3 7 13 7 23
c0 33 -19 55 -53 55c-42 0 -78 -40 -78 -72c0 -14 14 -15 46 -15z" />
    <glyph glyph-name="f" unicode="f" horiz-adv-x="311" 
d="M329 346h-89c-25 0 -26 -1 -26 -28v-202c0 -72 4 -80 37 -83l33 -3c8 -6 8 -27 -1 -33c-47 2 -89 3 -136 3c-45 0 -87 -1 -118 -3c-9 6 -9 27 -1 33l16 2c36 4 40 12 40 84v202c0 27 -2 28 -25 28h-37c-6 4 -8 22 -3 27l43 22c13 7 22 13 22 26c0 43 7 116 28 165
c29 66 84 129 196 129c58 0 117 -30 117 -82c0 -33 -24 -54 -58 -54c-21 0 -33 10 -40 18c-43 55 -59 66 -71 66c-26 0 -42 -29 -42 -122v-113c0 -27 1 -28 26 -28h95c5 -3 7 -11 7 -20c0 -13 -4 -28 -13 -34z" />
    <glyph glyph-name="g" unicode="g" horiz-adv-x="479" 
d="M377 377h115c7 -6 9 -14 9 -25c0 -16 -5 -34 -15 -40h-74c2 -9 3 -18 3 -35c0 -79 -47 -175 -205 -175c-16 0 -30 2 -41 3c-10 -4 -17 -12 -17 -24c0 -22 21 -36 51 -36c34 0 75 2 122 2c75 0 155 -20 155 -121c0 -63 -38 -119 -90 -151c-52 -31 -117 -44 -175 -44
c-144 0 -196 66 -196 128c0 24 15 40 32 50c20 12 38 25 49 31c12 7 9 12 1 14c-37 12 -62 45 -62 80c0 8 2 16 7 21c28 18 58 41 64 47c9 7 13 13 8 22c-50 20 -85 68 -85 129c0 83 65 161 195 161c59 0 112 -17 149 -37zM163 270c0 -76 29 -123 69 -123c31 0 57 29 57 102
c0 81 -29 119 -65 119c-31 0 -61 -30 -61 -98zM277 -56h-67c-27 0 -47 -6 -56 -13c-10 -9 -14 -22 -14 -35c0 -68 51 -112 130 -112c63 0 105 31 105 79c0 58 -43 81 -98 81z" />
    <glyph glyph-name="h" unicode="h" horiz-adv-x="547" 
d="M80 116v440c0 40 0 51 -20 63l-17 10c-7 6 -7 24 0 30c42 10 100 34 153 56c6 0 13 -2 17 -7c-2 -41 -3 -83 -3 -146v-184c0 -9 2 -12 7 -12c1 0 6 2 16 8c22 15 65 40 115 40c84 0 126 -57 126 -126v-172c0 -70 4 -78 40 -82l16 -2c8 -6 8 -29 -1 -35
c-31 2 -73 3 -121 3c-43 0 -86 -1 -108 -3c-9 6 -9 29 -1 35l18 3c23 4 27 11 27 66v173c0 35 -21 67 -70 67c-28 0 -48 -13 -56 -24c-6 -7 -8 -19 -8 -37v-179c0 -55 4 -62 27 -66l18 -3c8 -6 8 -29 -1 -35c-31 2 -63 3 -111 3c-41 0 -83 -1 -117 -3c-9 6 -9 29 -1 35l18 2
c33 4 37 12 37 82z" />
    <glyph glyph-name="i" unicode="i" horiz-adv-x="286" 
d="M214 300v-184c0 -70 4 -79 37 -82l19 -2c8 -6 8 -29 -1 -35c-35 2 -74 3 -120 3c-45 0 -87 -1 -120 -3c-9 6 -9 29 -1 35l19 2c33 3 37 12 37 82v151c0 40 0 52 -19 64l-14 9c-7 6 -7 24 0 30c47 13 118 40 148 58c8 0 14 -3 18 -9c-2 -30 -3 -74 -3 -119zM152 639
c42 0 70 -31 70 -71c0 -48 -37 -73 -75 -73c-44 0 -70 30 -70 71c0 44 35 73 75 73z" />
    <glyph glyph-name="j" unicode="j" horiz-adv-x="281" 
d="M215 300v-247c0 -69 -6 -123 -21 -161c-27 -71 -72 -118 -201 -161c-15 5 -20 24 -14 33c21 11 40 26 49 36c39 39 57 110 57 232v235c0 40 0 52 -19 64l-14 9c-7 6 -7 24 0 30c47 13 117 40 148 58c8 0 14 -3 18 -9c-2 -30 -3 -74 -3 -119zM153 639c42 0 70 -31 70 -71
c0 -48 -37 -73 -75 -73c-44 0 -70 30 -70 71c0 44 35 73 75 73z" />
    <glyph glyph-name="k" unicode="k" horiz-adv-x="532" 
d="M76 116v440c0 40 0 51 -20 63l-17 10c-7 6 -7 24 0 30c41 10 102 34 153 56c6 0 13 -2 17 -7c-2 -41 -3 -83 -3 -146v-314c0 -11 3 -14 14 -14c17 0 38 5 58 28l42 49c19 23 24 34 24 40c0 5 -10 9 -19 10l-25 4c-9 9 -8 31 2 35h24c47 0 130 5 189 14
c10 -5 11 -27 4 -35l-32 -7c-19 -4 -40 -14 -67 -35c-38 -29 -53 -44 -67 -58c-5 -6 -6 -10 -6 -13s2 -9 7 -17c18 -32 106 -168 131 -191c14 -13 33 -18 59 -23l15 -3c8 -7 6 -31 -4 -35c-31 2 -68 3 -126 3c-59 0 -95 -1 -123 -3c-10 5 -12 26 -4 35l13 3c10 2 16 4 16 8
s-9 20 -17 32l-71 108c-7 11 -15 15 -25 15c-7 0 -12 -5 -12 -24v-58c0 -70 4 -78 39 -82l16 -2c8 -6 8 -29 -1 -35c-32 2 -74 3 -120 3s-87 -1 -122 -3c-9 6 -9 29 -1 35l19 2c36 4 40 12 40 82z" />
    <glyph glyph-name="l" unicode="l" horiz-adv-x="278" 
d="M76 116v440c0 40 0 51 -20 63l-17 10c-7 6 -7 24 0 30c43 10 103 34 153 56c6 0 13 -2 17 -7c-2 -41 -3 -83 -3 -146v-446c0 -70 4 -78 39 -82l17 -2c8 -6 8 -29 -1 -35c-33 2 -75 3 -120 3c-43 0 -85 -1 -120 -3c-9 6 -9 29 -1 35l19 2c33 3 37 12 37 82z" />
    <glyph glyph-name="m" unicode="m" horiz-adv-x="806" 
d="M84 116v151c0 40 0 52 -19 64l-14 9c-7 6 -7 24 0 30c46 13 117 40 148 58c8 0 14 -3 18 -9c0 -14 -3 -38 -3 -45c0 -6 2 -8 5 -8s13 5 19 8c22 13 67 40 115 40c36 0 67 -12 90 -38c12 -14 18 -18 24 -18c4 0 13 7 32 17c22 12 60 39 114 39c79 0 121 -57 121 -126v-172
c0 -70 4 -78 37 -82l16 -2c8 -6 8 -29 -1 -35c-31 2 -69 3 -117 3c-40 0 -82 -1 -109 -3c-9 6 -9 29 -1 35l16 2c25 3 29 12 29 67v170c0 38 -21 70 -67 70c-28 0 -49 -13 -56 -25c-4 -6 -7 -16 -7 -30v-185c0 -55 4 -64 27 -67l16 -2c8 -6 8 -29 -1 -35c-31 2 -63 3 -108 3
c-40 0 -80 -1 -106 -3c-9 6 -9 29 -1 35l16 2c23 3 27 12 27 67v170c0 38 -20 70 -68 70c-26 0 -46 -13 -54 -24c-6 -7 -8 -19 -8 -37v-179c0 -55 4 -64 29 -67l16 -2c8 -6 8 -29 -1 -35c-31 2 -63 3 -111 3c-45 0 -84 -1 -114 -3c-10 6 -10 29 -2 35l16 2c33 4 37 12 37 82
z" />
    <glyph glyph-name="n" unicode="n" horiz-adv-x="550" 
d="M84 116v151c0 40 0 52 -19 64l-14 9c-7 6 -7 24 0 30c47 13 119 40 148 58c8 0 14 -3 18 -9c0 -14 -3 -38 -3 -45c0 -6 2 -8 5 -8s13 5 19 8c22 13 69 40 115 40c83 0 125 -57 125 -126v-172c0 -70 4 -78 40 -82l16 -2c8 -6 8 -29 -1 -35c-31 2 -73 3 -121 3
c-40 0 -79 -1 -108 -3c-9 6 -9 29 -1 35l18 3c23 4 27 11 27 66v169c0 39 -20 71 -70 71c-28 0 -48 -13 -56 -24c-6 -7 -8 -19 -8 -37v-179c0 -55 4 -64 29 -67l16 -2c8 -6 8 -29 -1 -35c-31 2 -63 3 -111 3c-42 0 -83 -1 -118 -3c-9 6 -9 29 -1 35l16 2c36 4 40 12 40 82z
" />
    <glyph glyph-name="o" unicode="o" horiz-adv-x="516" 
d="M255 -14c-119 0 -223 68 -224 206c-1 143 112 222 230 222s224 -72 224 -213c0 -146 -107 -215 -230 -215zM255 368c-44 0 -80 -45 -80 -154c0 -105 33 -182 91 -182c57 0 76 65 75 155c-1 97 -29 181 -86 181z" />
    <glyph glyph-name="p" unicode="p" horiz-adv-x="543" 
d="M77 -139v406c0 40 0 52 -19 64l-14 9c-7 6 -7 24 0 30c41 12 116 44 144 63c7 1 17 -3 21 -12c-2 -12 -2 -23 -2 -33c0 -7 4 -13 8 -14c30 15 74 40 127 40c106 0 170 -83 170 -191c0 -140 -99 -237 -245 -237c-14 0 -36 1 -45 3c-9 -2 -15 -8 -15 -29v-99
c0 -70 4 -78 37 -81l34 -3c8 -6 8 -29 -1 -35c-50 2 -90 3 -137 3c-44 0 -83 -1 -119 -3c-9 6 -9 29 -1 35l20 2c33 3 37 12 37 82zM207 273v-160c0 -22 8 -43 23 -58c13 -14 32 -23 48 -23c62 0 96 66 96 159c0 98 -48 154 -114 154c-17 0 -34 -4 -42 -14
c-5 -6 -11 -19 -11 -58z" />
    <glyph glyph-name="q" unicode="q" horiz-adv-x="528" 
d="M466 281v-420c0 -70 4 -78 37 -81l34 -3c8 -6 8 -29 -1 -35c-47 2 -88 3 -135 3c-45 0 -87 -1 -125 -3c-9 6 -9 29 -1 35l22 2c35 3 39 12 39 82v130c0 11 -1 19 -9 19c-48 -22 -74 -24 -99 -24c-123 0 -197 90 -197 197c0 141 107 231 252 231c43 0 85 -7 108 -12
c8 -2 14 -3 19 -3c8 0 15 1 30 14l6 7c12 1 23 -3 25 -10c-5 -41 -5 -74 -5 -129zM336 78v179c0 42 -9 75 -20 89c-9 11 -24 22 -48 22c-53 0 -98 -60 -98 -148c0 -116 67 -174 129 -174c15 0 24 3 30 7s7 14 7 25z" />
    <glyph glyph-name="r" unicode="r" horiz-adv-x="371" 
d="M84 114v151c0 40 0 52 -19 64l-14 9c-7 6 -7 24 0 30c46 13 115 40 146 60c8 0 14 -3 18 -9c-2 -20 -4 -34 -4 -43c0 -7 2 -10 10 -12c27 17 56 50 98 50c27 0 55 -21 55 -59c0 -46 -32 -65 -64 -65c-14 0 -26 6 -39 18c-23 19 -32 20 -38 20c-14 0 -19 -22 -19 -60v-154
c0 -70 4 -78 37 -81l32 -3c8 -6 8 -29 -1 -35c-48 2 -88 3 -135 3c-41 0 -85 -1 -118 -3c-9 6 -9 29 -1 35l19 2c33 3 37 12 37 82z" />
    <glyph glyph-name="s" unicode="s" horiz-adv-x="358" 
d="M164 -14c-57 0 -97 10 -124 31c-11 20 -18 68 -16 113c6 10 28 11 34 2c13 -41 51 -100 102 -100c30 0 52 18 52 52c0 37 -32 58 -66 75c-60 30 -103 66 -103 126c0 87 73 129 159 129c51 0 96 -13 107 -21c10 -22 15 -62 15 -100c-4 -11 -29 -11 -35 -4
c-20 58 -45 79 -78 79c-29 0 -50 -17 -50 -44c0 -23 19 -42 64 -64c68 -33 110 -75 110 -140c-1 -89 -77 -134 -171 -134z" />
    <glyph glyph-name="t" unicode="t" horiz-adv-x="323" 
d="M311 346h-90c-13 0 -14 -1 -14 -23v-150c0 -56 0 -118 70 -118c14 0 30 7 42 15c10 -3 16 -14 14 -26c-28 -30 -82 -58 -144 -58c-83 0 -112 48 -112 114v223c0 21 -1 23 -19 23h-31c-11 4 -14 24 -6 31c31 11 59 29 83 45c18 13 43 34 74 78c7 4 25 3 30 -5v-75
c0 -19 1 -20 19 -20h89c5 -4 8 -10 8 -19c0 -11 -3 -29 -13 -35z" />
    <glyph glyph-name="u" unicode="u" horiz-adv-x="544" 
d="M471 314v-182c0 -59 3 -85 27 -85c13 0 28 4 40 8c9 -2 10 -38 -3 -43c-98 -4 -182 -36 -185 -36c-7 1 -11 6 -12 12c2 12 3 28 3 36c0 6 -5 10 -11 10c-39 -25 -74 -48 -136 -48c-83 0 -117 43 -117 128v170c0 53 -6 58 -30 65l-13 4c-7 9 -6 28 4 35c33 1 68 4 97 9
c30 5 59 17 63 17c6 0 11 -7 12 -12c-2 -25 -3 -52 -3 -88v-165c0 -48 7 -90 71 -90c28 0 44 13 52 19c7 5 11 20 11 30v189c0 40 -7 49 -43 54l-14 2c-8 7 -7 31 5 35c36 2 72 6 104 10c35 5 65 16 71 16c4 0 9 -5 10 -12c-1 -18 -3 -51 -3 -88z" />
    <glyph glyph-name="v" unicode="v" horiz-adv-x="457" 
d="M16 363l-21 5c-9 7 -10 31 3 35c37 -2 71 -3 124 -3c37 0 74 2 111 3c9 -5 8 -30 2 -35l-16 -4c-12 -3 -17 -4 -17 -10s4 -20 9 -35c20 -55 42 -107 63 -155c22 50 47 103 68 164c4 10 6 19 6 25c0 5 -7 8 -24 12l-14 3c-9 6 -9 30 1 35c32 -2 53 -3 82 -3
c32 0 55 2 77 3c11 -5 9 -29 2 -35l-17 -3c-30 -5 -38 -17 -58 -55c-52 -103 -97 -210 -143 -317c-5 -4 -13 -7 -23 -7c-9 0 -18 3 -24 7c-52 126 -73 174 -136 307c-24 49 -30 57 -55 63z" />
    <glyph glyph-name="w" unicode="w" horiz-adv-x="682" 
d="M111 400h202c63 0 113 1 177 3c11 -1 10 -31 3 -35l-15 -3c-23 -5 -37 -10 -37 -15c0 -8 2 -14 8 -31c18 -48 46 -113 68 -161c24 58 40 107 56 153c6 18 9 32 9 39c0 5 -8 10 -25 14l-17 4c-6 7 -6 31 4 35c33 -2 57 -3 82 -3c29 0 55 1 77 3c9 -4 11 -26 3 -35l-14 -3
c-33 -7 -40 -17 -56 -54c-46 -102 -92 -212 -134 -318c-6 -6 -13 -7 -23 -7s-17 1 -23 7c-21 54 -73 171 -103 235c-26 -52 -86 -185 -109 -235c-6 -6 -13 -7 -23 -7s-17 1 -23 7c-48 113 -97 228 -146 332c-14 29 -24 33 -41 38l-18 5c-7 8 -7 30 3 35c41 -2 73 -3 115 -3z
M323 307c0 16 -17 48 -37 52c-14 3 -30 4 -48 4c-32 0 -51 -4 -51 -15c0 -6 3 -18 9 -33c14 -35 54 -125 71 -157c14 27 48 99 53 119c3 13 3 22 3 30z" />
    <glyph glyph-name="x" unicode="x" horiz-adv-x="458" 
d="M447 368l-14 -2c-29 -4 -44 -8 -60 -18c-14 -9 -52 -51 -75 -80c-12 -16 -19 -25 -19 -30c0 -6 12 -26 21 -39l68 -101c35 -52 55 -62 89 -65l11 -1c8 -7 8 -31 -3 -35c-44 2 -83 3 -121 3c-40 0 -87 -1 -133 -3c-9 4 -11 28 -3 35l22 4c14 3 17 7 17 11s-4 14 -12 27
c-14 22 -27 43 -43 66c-14 -21 -28 -44 -41 -66c-8 -14 -12 -23 -12 -29c0 -5 4 -7 18 -10l16 -3c8 -6 6 -31 -2 -35c-29 2 -59 3 -90 3c-23 0 -47 -1 -78 -3c-9 5 -12 27 -2 35l25 4c17 3 38 10 47 20c15 15 68 84 82 105c6 10 9 17 9 22c0 4 -9 17 -32 53l-54 83
c-20 31 -39 39 -61 44l-21 5c-7 5 -7 32 3 35c39 -2 66 -3 121 -3c36 0 71 1 107 3c12 -4 13 -29 2 -35l-12 -3c-8 -1 -15 -4 -15 -7c0 -4 2 -9 9 -21c13 -22 27 -41 41 -61c10 14 27 38 43 62c6 9 7 13 7 18c0 4 -6 6 -16 9l-11 3c-9 6 -7 31 3 35c29 -2 55 -3 91 -3
c25 0 51 1 76 3c10 -3 11 -29 2 -35z" />
    <glyph glyph-name="y" unicode="y" horiz-adv-x="469" 
d="M12 365l-18 3c-7 7 -7 31 3 35c36 -2 79 -3 132 -3c37 0 75 1 112 3c10 -4 11 -28 3 -35l-20 -4c-28 -6 -30 -10 -30 -19c0 -12 11 -38 30 -89c11 -28 33 -89 45 -114c11 21 21 44 31 66l18 41c21 48 37 90 37 101c0 7 -10 12 -22 14l-20 4c-9 7 -8 32 3 35
c22 -2 52 -3 97 -3c26 0 52 1 78 3c10 -4 11 -29 2 -35l-19 -2c-20 -2 -37 -10 -46 -22c-12 -16 -37 -59 -59 -105l-53 -109c-35 -72 -116 -241 -152 -315c-21 -45 -49 -65 -86 -66c-54 -1 -64 33 -64 60c0 30 22 52 57 52h24c24 0 39 8 49 21c11 15 19 34 29 55
c6 12 14 30 14 42c0 13 -3 32 -19 73l-96 242c-19 48 -28 66 -60 71z" />
    <glyph glyph-name="z" unicode="z" horiz-adv-x="415" 
d="M223 0h-97c-54 0 -81 -1 -97 -3c-6 2 -9 9 -7 16c16 24 60 94 88 144l93 165c8 15 11 24 11 29c0 3 -6 5 -28 5h-31c-36 0 -58 -4 -71 -19c-8 -8 -22 -28 -32 -58c-9 -8 -31 -3 -36 8c6 40 21 107 31 132c5 5 17 5 21 0c3 -16 5 -19 56 -19h180c43 0 71 1 83 3
c4 -2 7 -9 6 -13c-19 -26 -39 -63 -71 -117l-107 -182c-12 -21 -18 -34 -18 -41c0 -5 11 -6 40 -6h24c43 0 77 7 94 34c7 10 17 28 30 54c8 8 31 5 36 -5c-3 -38 -25 -111 -38 -130c-82 2 -114 3 -160 3z" />
    <glyph glyph-name="braceleft" unicode="{" horiz-adv-x="340" 
d="M239 162c0 -69 -19 -137 -19 -205c0 -36 10 -74 84 -87c6 -6 4 -25 -2 -28c-91 0 -169 13 -169 131c0 66 16 141 16 204c0 28 -4 72 -88 78c-7 8 -7 21 0 26c90 6 88 47 88 78c0 63 -16 138 -16 204c0 118 84 131 169 131c6 -3 8 -22 2 -28c-74 -13 -84 -57 -84 -87
c0 -68 19 -136 19 -205c0 -55 -23 -91 -75 -104v-4c52 -13 75 -49 75 -104z" />
    <glyph glyph-name="bar" unicode="|" horiz-adv-x="248" 
d="M168 750v-1000h-88v1000h88z" />
    <glyph glyph-name="braceright" unicode="}" horiz-adv-x="340" 
d="M101 162c0 55 23 91 75 104v4c-52 13 -75 49 -75 104c0 69 19 137 19 205c0 30 -10 74 -84 87c-6 6 -4 25 2 28c85 0 169 -13 169 -131c0 -66 -16 -141 -16 -204c0 -31 -2 -72 88 -78c7 -5 7 -18 0 -26c-84 -6 -88 -50 -88 -78c0 -63 16 -138 16 -204
c0 -118 -78 -131 -169 -131c-6 3 -8 22 -2 28c74 13 84 51 84 87c0 68 -19 136 -19 205z" />
    <glyph glyph-name="asciitilde" unicode="~" horiz-adv-x="520" 
d="M196 249h127c48 0 66 23 85 74c16 10 45 4 56 -15c-10 -37 -33 -81 -55 -105c-19 -22 -41 -26 -76 -26h-138c-43 0 -65 -30 -85 -79c-15 -9 -48 -5 -54 13c3 24 26 78 50 108c23 27 50 30 90 30z" />
    <glyph glyph-name="exclamdown" unicode="&#xa1;" horiz-adv-x="254" 
d="M127 -266c-52 0 -80 9 -80 43c0 16 6 47 16 117l42 281c12 8 32 8 44 0l42 -281c10 -70 16 -101 16 -117c0 -34 -28 -43 -80 -43zM127 394c48 0 81 -35 81 -81c0 -43 -33 -83 -81 -83c-45 0 -81 36 -81 83c0 49 41 81 81 81z" />
    <glyph glyph-name="cent" unicode="&#xa2;" horiz-adv-x="520" 
d="M268 188l35 296c-69 -3 -110 -72 -110 -153c0 -70 26 -121 75 -143zM366 612l-10 -87c29 -1 55 -6 75 -13c9 -7 21 -26 21 -50c0 -34 -14 -54 -27 -54c-5 0 -12 2 -16 6c-17 18 -41 48 -56 59c-1 0 -1 1 -3 1l-36 -298c5 -2 11 -2 16 -2c47 0 77 16 109 58
c15 2 28 -6 27 -19c-22 -43 -64 -98 -160 -105l-13 -104c-10 -8 -36 -8 -48 0l13 104c-128 8 -202 89 -202 195c0 154 125 221 252 224l10 85c10 8 38 8 48 0z" />
    <glyph glyph-name="sterling" unicode="&#xa3;" horiz-adv-x="520" 
d="M273 340h128c9 -10 4 -34 -5 -45h-122c-18 0 -22 -1 -22 -14c0 -88 -44 -126 -106 -156l1 -2c16 2 33 5 69 -1c23 -3 58 -17 99 -38c33 -17 71 -29 95 -29c29 0 27 14 11 54c-15 38 8 53 28 53c22 0 50 -16 50 -62c0 -59 -74 -140 -160 -140c-36 0 -67 12 -116 43
c-40 25 -80 48 -113 48c-25 0 -35 -24 -37 -38c-3 -14 -55 -27 -66 -27c-14 0 -19 6 -19 18c0 20 23 44 50 65c51 41 73 110 73 214c0 13 -1 8 -17 12h-86c-8 8 -8 32 5 45h80c15 0 16 1 15 9c-1 10 -1 26 -1 37c0 153 110 254 246 254c29 0 52 -6 65 -15
c8 -7 12 -18 12 -33c0 -30 -25 -57 -36 -57c-9 0 -14 1 -24 10c-43 35 -63 39 -78 39c-17 0 -46 -32 -46 -126c0 -36 2 -64 6 -103c1 -13 3 -15 21 -15z" />
    <glyph glyph-name="fraction" unicode="&#x2044;" horiz-adv-x="100" 
d="M259 630l-370 -670c-18 -4 -40 7 -47 24l370 670c15 2 42 -7 47 -24z" />
    <glyph glyph-name="fraction" unicode="&#x2215;" horiz-adv-x="100" 
d="M259 630l-370 -670c-18 -4 -40 7 -47 24l370 670c15 2 42 -7 47 -24z" />
    <glyph glyph-name="yen" unicode="&#xa5;" horiz-adv-x="520" 
d="M325 245h150c11 -9 11 -35 0 -45h-150v-84c0 -72 4 -80 37 -83l33 -3c8 -6 8 -27 -1 -33c-50 2 -92 3 -135 3c-45 0 -88 -1 -140 -3c-9 6 -9 27 -1 33l36 3c33 3 37 11 37 83v84h-150c-10 10 -10 36 0 45h150v76h-150c-10 10 -10 36 0 45h131l-96 170
c-17 29 -32 53 -68 59l-18 3c-8 7 -7 28 3 33c46 -2 91 -3 142 -3c57 0 93 1 118 3c12 -3 9 -25 1 -33l-27 -7c-15 -4 -20 -9 -20 -17c0 -10 15 -40 23 -56c24 -47 43 -79 68 -123c4 9 35 60 56 101c15 29 36 68 36 78c0 8 -10 14 -29 19l-18 5c-11 7 -11 28 4 33
c40 -2 69 -3 96 -3c22 0 54 1 88 3c10 -4 9 -27 1 -33l-22 -6c-33 -9 -42 -19 -78 -76l-94 -150h137c11 -9 11 -35 0 -45h-150v-76z" />
    <glyph glyph-name="florin" unicode="&#x192;" horiz-adv-x="520" 
d="M80 427h85c11 55 23 95 44 137c25 51 97 133 205 133c63 0 86 -25 86 -47c0 -36 -32 -65 -59 -65c-11 0 -18 6 -25 18c-13 23 -29 41 -42 41c-23 0 -49 -99 -70 -217h113c8 -6 5 -33 -10 -45h-111c-8 -41 -17 -92 -26 -145c-34 -200 -64 -256 -124 -310
c-32 -30 -78 -49 -124 -49c-52 0 -74 30 -74 69c0 31 11 57 23 57c8 0 19 -8 29 -19c30 -32 48 -50 66 -50c14 0 19 16 24 45c28 156 47 284 68 402h-88c-7 10 -2 39 10 45z" />
    <glyph glyph-name="section" unicode="&#xa7;" horiz-adv-x="525" 
d="M320 676c82 0 100 -37 100 -58c0 -31 -29 -43 -52 -43c-14 0 -29 7 -41 16c-43 32 -56 35 -67 35c-19 0 -42 -22 -42 -47c0 -35 17 -69 145 -163c76 -56 122 -124 122 -236c0 -136 -125 -304 -298 -304c-55 0 -89 21 -89 59c0 24 17 45 48 45c12 0 29 -5 55 -23
s42 -26 66 -26s45 17 45 49c0 50 -71 123 -137 175c-86 68 -135 137 -135 235c0 144 134 286 280 286zM248 240c93 -77 128 -145 118 -234l2 -2c36 38 50 76 50 124c0 75 -40 135 -128 205c-110 87 -137 131 -132 221c-27 -21 -51 -61 -51 -101s2 -98 141 -213z" />
    <glyph glyph-name="currency" unicode="&#xa4;" horiz-adv-x="520" 
d="M260 450c-67 0 -124 -56 -124 -137c0 -82 58 -137 124 -137s124 56 124 137s-58 137 -124 137zM260 527c47 0 89 -14 119 -36l37 49c28 -3 59 -26 65 -60l-46 -42c24 -28 41 -75 41 -125s-17 -97 -41 -125l46 -42c-6 -34 -37 -57 -65 -60l-37 49
c-30 -22 -72 -36 -119 -36s-89 14 -119 36l-37 -49c-28 3 -59 26 -65 60l46 42c-24 28 -41 75 -41 125s17 97 41 125l-46 42c6 34 37 57 65 60l37 -49c30 22 72 36 119 36z" />
    <glyph glyph-name="quotesingle" unicode="'" horiz-adv-x="253" 
d="M127 700c42 0 64 -2 64 -34c0 -11 -3 -28 -8 -57l-37 -205c-11 -8 -27 -8 -38 0l-37 205c-5 29 -8 46 -8 57c0 32 22 34 64 34z" />
    <glyph glyph-name="quotedblleft" unicode="&#x201c;" horiz-adv-x="472" 
d="M139 414c-41 0 -99 35 -99 122c0 93 75 151 158 170c17 -2 21 -24 10 -31c-36 -13 -85 -46 -85 -93c0 -42 31 -56 55 -62c17 -5 30 -21 30 -44c0 -34 -31 -62 -69 -62zM358 414c-41 0 -99 35 -99 122c0 93 75 151 158 170c17 -2 21 -24 10 -31c-36 -13 -85 -46 -85 -93
c0 -42 31 -56 55 -62c17 -5 30 -21 30 -44c0 -34 -31 -62 -69 -62z" />
    <glyph glyph-name="guillemotleft" unicode="&#xab;" horiz-adv-x="432" 
d="M218 384l-76 -160c-5 -11 -4 -20 0 -29l76 -163c-4 -8 -12 -16 -22 -15c-49 58 -99 116 -152 174c-11 13 -11 23 0 36c53 57 103 114 152 172c8 -2 18 -6 22 -15zM396 384l-76 -160c-5 -11 -4 -20 0 -29l76 -163c-4 -8 -12 -16 -22 -15c-49 58 -99 116 -152 174
c-11 13 -11 23 0 36c53 57 103 114 152 172c8 -2 18 -6 22 -15z" />
    <glyph glyph-name="guilsinglleft" unicode="&#x2039;" horiz-adv-x="255" 
d="M219 384l-76 -160c-5 -11 -4 -20 0 -29l76 -163c-4 -8 -12 -16 -22 -15c-49 58 -99 116 -152 174c-11 13 -11 23 0 36c53 57 103 114 152 172c8 -2 18 -6 22 -15z" />
    <glyph glyph-name="guilsinglright" unicode="&#x203a;" horiz-adv-x="255" 
d="M112 224l-76 160c4 9 14 13 22 15c49 -58 99 -115 152 -172c11 -13 11 -23 0 -36c-53 -58 -103 -116 -152 -174c-10 -1 -18 7 -22 15l76 163c4 9 5 18 0 29z" />
    <glyph glyph-name="endash" unicode="&#x2013;" horiz-adv-x="500" 
d="M0 242h500v-69h-500v69z" />
    <glyph glyph-name="dagger" unicode="&#x2020;" horiz-adv-x="490" 
d="M274 -127h-58v127c0 121 -21 195 -41 262c31 38 40 84 40 158c-52 0 -81 -32 -118 -32c-32 0 -57 20 -57 55c0 33 25 54 57 54c37 0 66 -32 118 -32c-4 80 -38 100 -38 141c0 40 25 70 68 70s68 -30 68 -70c0 -41 -34 -61 -38 -141c52 0 81 32 119 32c31 0 56 -21 56 -54
c0 -35 -25 -55 -56 -55c-38 0 -67 32 -119 32c0 -74 9 -120 40 -158c-20 -67 -41 -141 -41 -262v-127z" />
    <glyph glyph-name="daggerdbl" unicode="&#x2021;" horiz-adv-x="492" 
d="M246 676c53 0 65 -39 65 -65c0 -41 -32 -62 -36 -138c57 0 92 31 123 31s54 -22 54 -53c0 -32 -23 -54 -54 -54s-66 31 -123 31c0 -65 11 -110 42 -141c-31 -28 -42 -73 -42 -149c57 0 92 31 123 31s54 -22 54 -56c0 -29 -23 -51 -54 -51s-66 31 -123 31
c0 -76 36 -100 36 -153c0 -33 -20 -64 -65 -64c-44 0 -65 31 -65 64c0 53 36 77 36 153c-57 0 -92 -31 -122 -31c-31 0 -55 22 -55 51c0 34 24 56 55 56c30 0 65 -31 122 -31c0 76 -11 121 -42 149c31 31 42 76 42 141c-57 0 -92 -31 -122 -31c-31 0 -55 22 -55 54
c0 31 24 53 55 53c30 0 65 -31 122 -31c-4 76 -36 97 -36 138c0 26 12 65 65 65z" />
    <glyph glyph-name="periodcentered" unicode="&#xb7;" horiz-adv-x="260" 
d="M130 126c-40 0 -81 32 -81 81c0 47 36 83 81 83c48 0 81 -40 81 -83c0 -46 -33 -81 -81 -81z" />
    <glyph glyph-name="periodcentered" unicode="&#x2219;" horiz-adv-x="260" 
d="M130 126c-40 0 -81 32 -81 81c0 47 36 83 81 83c48 0 81 -40 81 -83c0 -46 -33 -81 -81 -81z" />
    <glyph glyph-name="paragraph" unicode="&#xb6;" horiz-adv-x="490" 
d="M372 448v-426c0 -95 -13 -164 -62 -201c-21 -16 -53 -21 -82 -21c-50 0 -107 25 -107 88c0 33 18 56 33 61c39 1 66 -17 70 -34c-3 -7 -14 -21 -14 -37c0 -25 18 -39 41 -39c29 0 68 24 68 144v117c0 28 -7 36 -26 36c-145 0 -253 82 -253 203c0 81 40 140 96 172
c58 33 129 44 203 44c66 0 103 -3 119 -6c9 -5 9 -24 1 -31l-34 -6c-51 -9 -53 -10 -53 -64z" />
    <glyph glyph-name="bullet" unicode="&#x2022;" horiz-adv-x="395" 
d="M197 492c86 0 156 -69 156 -156c0 -88 -70 -157 -156 -157c-85 0 -155 68 -155 157c0 87 68 156 155 156z" />
    <glyph glyph-name="quotesinglbase" unicode="&#x201a;" horiz-adv-x="253" 
d="M114 170c41 0 99 -35 99 -124c0 -95 -75 -149 -158 -168c-17 2 -21 24 -10 31c36 13 85 46 85 93c0 42 -31 56 -55 62c-17 5 -30 21 -30 44c0 34 31 62 69 62z" />
    <glyph glyph-name="quotedblbase" unicode="&#x201e;" horiz-adv-x="472" 
d="M114 170c41 0 99 -35 99 -124c0 -95 -75 -149 -158 -168c-17 2 -21 24 -10 31c36 13 85 46 85 93c0 42 -31 56 -55 62c-17 5 -30 21 -30 44c0 34 31 62 69 62zM333 170c41 0 99 -35 99 -124c0 -95 -75 -149 -158 -168c-17 2 -21 24 -10 31c36 13 85 46 85 93
c0 42 -31 56 -55 62c-17 5 -30 21 -30 44c0 34 31 62 69 62z" />
    <glyph glyph-name="quotedblright" unicode="&#x201d;" horiz-adv-x="472" 
d="M114 700c41 0 99 -35 99 -122c0 -93 -75 -151 -158 -170c-17 2 -21 24 -10 31c36 13 85 46 85 93c0 42 -31 56 -55 62c-17 5 -30 21 -30 44c0 34 31 62 69 62zM333 700c41 0 99 -35 99 -122c0 -93 -75 -151 -158 -170c-17 2 -21 24 -10 31c36 13 85 46 85 93
c0 42 -31 56 -55 62c-17 5 -30 21 -30 44c0 34 31 62 69 62z" />
    <glyph glyph-name="guillemotright" unicode="&#xbb;" horiz-adv-x="432" 
d="M112 224l-76 160c4 9 14 13 22 15c49 -58 99 -115 152 -172c11 -13 11 -23 0 -36c-53 -58 -103 -116 -152 -174c-10 -1 -18 7 -22 15l76 163c4 9 5 18 0 29zM290 224l-76 160c4 9 14 13 22 15c49 -58 99 -115 152 -172c11 -13 11 -23 0 -36c-53 -58 -103 -116 -152 -174
c-10 -1 -18 7 -22 15l76 163c4 9 5 18 0 29z" />
    <glyph glyph-name="ellipsis" unicode="&#x2026;" horiz-adv-x="1000" 
d="M500 -14c-40 0 -81 32 -81 81c0 47 36 83 81 83c48 0 81 -40 81 -83c0 -46 -33 -81 -81 -81zM833 -14c-40 0 -81 32 -81 81c0 47 36 83 81 83c48 0 81 -40 81 -83c0 -46 -33 -81 -81 -81zM167 -14c-40 0 -81 32 -81 81c0 47 36 83 81 83c48 0 81 -40 81 -83
c0 -46 -33 -81 -81 -81z" />
    <glyph glyph-name="perthousand" unicode="&#x2030;" horiz-adv-x="1188" 
d="M620 -12c-116 0 -157 109 -157 184c0 77 41 185 157 185s157 -108 157 -185c0 -75 -41 -184 -157 -184zM681 173c0 50 -8 144 -59 144c-52 0 -63 -91 -63 -144c0 -51 11 -145 63 -145c51 0 59 96 59 145zM193 271c-117 0 -157 109 -157 184c0 76 40 185 157 185
c116 0 157 -109 157 -185c0 -75 -41 -184 -157 -184zM254 456c0 49 -8 144 -60 144s-62 -92 -62 -144c0 -51 10 -145 62 -145s60 96 60 145zM990 -12c-116 0 -157 109 -157 184c0 77 41 185 157 185s157 -108 157 -185c0 -75 -41 -184 -157 -184zM1051 173
c0 50 -8 144 -59 144c-52 0 -63 -91 -63 -144c0 -51 11 -145 63 -145c51 0 59 96 59 145zM240 -40c-18 -4 -38 7 -45 24c125 223 249 447 370 670c15 2 40 -7 45 -24c-125 -223 -249 -447 -370 -670z" />
    <glyph glyph-name="questiondown" unicode="&#xbf;" horiz-adv-x="332" 
d="M222 -266c-92 0 -182 95 -182 204c0 58 26 90 63 107l66 30c27 12 41 27 41 43c0 15 -3 34 -10 54c5 9 25 13 33 5c17 -23 44 -77 44 -118c0 -56 -32 -74 -90 -99l-47 -20c-30 -13 -48 -22 -48 -36c0 -30 39 -44 145 -44c19 0 55 -19 55 -64c0 -33 -28 -62 -70 -62z
M201 394c48 0 81 -40 81 -83c0 -46 -33 -81 -81 -81c-40 0 -81 32 -81 81c0 47 36 83 81 83z" />
    <glyph glyph-name="grave" unicode="`" horiz-adv-x="380" 
d="M185 655l91 -182c-2 -12 -11 -18 -25 -16l-141 139c-13 13 -22 26 -22 37s9 22 27 36c17 12 28 16 39 16c10 0 20 -7 31 -30z" />
    <glyph glyph-name="acute" unicode="&#xb4;" horiz-adv-x="380" 
d="M96 473l91 182c11 23 21 30 31 30c11 0 22 -4 39 -16c18 -14 27 -25 27 -36s-9 -24 -22 -37l-141 -139c-14 -2 -23 4 -25 16z" />
    <glyph glyph-name="circumflex" unicode="&#x2c6;" horiz-adv-x="380" 
d="M61 473l106 191c6 11 11 13 23 13s17 -2 23 -13l106 -191c-5 -12 -18 -17 -29 -18l-80 87c-12 13 -17 19 -20 19s-10 -6 -21 -18l-80 -88c-10 1 -23 6 -28 18z" />
    <glyph glyph-name="tilde" unicode="&#x2dc;" horiz-adv-x="380" 
d="M230 515h-56c-45 0 -68 -18 -86 -49c-6 -4 -27 -2 -31 6c6 19 25 67 41 87c17 21 34 28 61 28h56c40 0 62 6 78 47c8 3 26 1 30 -5c-6 -32 -18 -63 -33 -86c-14 -21 -29 -28 -60 -28z" />
    <glyph glyph-name="macron" unicode="&#xaf;" horiz-adv-x="380" 
d="M316 501h-253c-12 16 -12 55 0 71h253c13 -16 13 -55 0 -71z" />
    <glyph glyph-name="macron" unicode="&#x2c9;" horiz-adv-x="380" 
d="M316 501h-253c-12 16 -12 55 0 71h253c13 -16 13 -55 0 -71z" />
    <glyph glyph-name="breve" unicode="&#x2d8;" horiz-adv-x="380" 
d="M190 488c-82 0 -125 56 -121 154c7 5 24 5 30 0c10 -44 47 -74 91 -74s81 25 91 74c6 5 23 5 30 0c4 -98 -39 -154 -121 -154z" />
    <glyph glyph-name="dotaccent" unicode="&#x2d9;" horiz-adv-x="380" 
d="M191 492c-35 0 -62 20 -63 59c0 37 27 64 63 64c35 0 61 -28 61 -59c0 -39 -26 -64 -61 -64z" />
    <glyph glyph-name="dieresis" unicode="&#xa8;" horiz-adv-x="380" 
d="M101 487c-35 0 -62 20 -63 59c0 37 27 64 63 64c35 0 61 -28 61 -59c0 -39 -26 -64 -61 -64zM281 487c-35 0 -62 20 -63 59c0 37 27 64 63 64c35 0 61 -28 61 -59c0 -39 -26 -64 -61 -64z" />
    <glyph glyph-name="ring" unicode="&#x2da;" horiz-adv-x="380" 
d="M190 459c-67 0 -108 49 -108 99s41 98 108 98c68 0 108 -48 108 -98s-40 -99 -108 -99zM190 497c31 0 48 28 48 61s-17 61 -48 63c-31 -2 -48 -30 -48 -63s17 -61 48 -61z" />
    <glyph glyph-name="cedilla" unicode="&#xb8;" horiz-adv-x="380" 
d="M217 0h53l-38 -52c-8 -10 -6 -13 9 -21c37 -20 61 -46 61 -85c0 -55 -62 -93 -127 -93c-48 0 -77 16 -77 44c0 18 13 33 32 33c28 0 46 -37 68 -37c11 0 26 9 26 25c0 32 -40 57 -76 72l-3 8z" />
    <glyph glyph-name="hungarumlaut" unicode="&#x2dd;" horiz-adv-x="380" 
d="M71 473l64 181c8 24 18 31 28 31c11 0 22 -4 39 -16c18 -14 27 -25 27 -36s-9 -24 -20 -38l-110 -138c-14 -2 -26 4 -28 16zM246 473l64 181c8 24 18 31 28 31c11 0 22 -4 39 -16c18 -14 27 -25 27 -36s-9 -24 -20 -38l-109 -138c-14 -2 -27 4 -29 16z" />
    <glyph glyph-name="ogonek" unicode="&#x2db;" horiz-adv-x="380" 
d="M214 15h49c-53 -53 -90 -107 -90 -152c0 -34 23 -59 60 -59c20 0 35 4 50 15c7 -2 10 -11 10 -19c-26 -39 -67 -55 -106 -55c-77 0 -100 48 -100 90c0 54 44 117 127 180z" />
    <glyph glyph-name="caron" unicode="&#x2c7;" horiz-adv-x="380" 
d="M319 660l-106 -191c-6 -11 -11 -13 -23 -13s-17 2 -23 13l-106 191c5 12 18 17 29 18l80 -87c12 -13 17 -19 20 -19s10 6 21 18l80 88c10 -1 23 -6 28 -18z" />
    <glyph glyph-name="emdash" unicode="&#x2014;" horiz-adv-x="1000" 
d="M0 242h1000v-69h-1000v69z" />
    <glyph glyph-name="AE" unicode="&#xc6;" horiz-adv-x="841" 
d="M367 144v140c0 29 -2 33 -26 33h-101c-25 0 -31 -3 -38 -19c-48 -102 -80 -169 -98 -216c-6 -15 -8 -23 -8 -29c0 -7 6 -12 25 -15l38 -6c11 -7 10 -31 -1 -35c-34 2 -79 3 -124 3c-41 0 -67 -1 -103 -3c-9 6 -10 29 -1 35l27 4c29 4 49 16 74 63c74 140 139 278 216 431
c15 30 30 64 30 74c0 8 -9 14 -21 16l-46 8c-9 7 -11 30 3 35c27 -1 56 -2 85 -2c29 -1 59 -1 88 -1h258c64 0 121 1 134 3c1 -16 8 -88 13 -155c-4 -11 -27 -13 -37 -4c-11 35 -25 65 -38 79c-19 19 -49 31 -98 31h-80c-33 0 -33 -2 -33 -39v-175c0 -28 1 -30 28 -30h69
c52 0 64 7 74 55l5 25c7 8 32 8 37 -1c-2 -32 -3 -68 -3 -106s1 -74 3 -106c-5 -9 -30 -10 -37 -1l-5 25c-10 48 -22 56 -74 56h-69c-27 0 -28 -1 -28 -31v-119c0 -46 4 -78 16 -95c13 -18 32 -26 105 -26c87 0 121 3 176 116c8 11 33 7 37 -5c-4 -52 -28 -133 -42 -160
c-26 1 -64 1 -105 2c-40 0 -85 1 -126 1h-130c-43 0 -92 -1 -167 -3c-8 6 -8 30 0 35l47 7c45 7 51 13 51 105zM255 370h86c24 0 26 4 26 38v160c0 26 -1 41 -3 46h-5c-8 -10 -18 -27 -40 -72l-78 -156c-7 -15 -2 -16 14 -16z" />
    <glyph glyph-name="ordfeminine" unicode="&#xaa;" horiz-adv-x="374" 
d="M196 540c78 0 115 -26 112 -97l-5 -107c-2 -35 11 -50 29 -50c10 0 18 3 27 7c8 -1 14 -9 9 -21c-16 -18 -55 -32 -81 -32c-22 0 -47 5 -62 19c-6 6 -13 10 -16 10s-9 -4 -21 -12c-13 -7 -38 -17 -61 -17c-71 0 -95 44 -95 76c0 30 14 57 55 70c48 16 78 24 101 30
c18 5 21 12 22 19v10c0 29 -10 60 -44 60c-20 0 -31 -11 -34 -32c-2 -14 -7 -24 -16 -31c-12 -7 -35 -15 -59 -15c-16 0 -25 8 -25 17c0 12 5 28 31 51c25 21 79 45 133 45zM132 326c0 -19 17 -39 40 -39s32 13 33 28l3 49c1 12 -2 19 -8 19c-8 0 -18 -1 -28 -5
c-21 -9 -40 -21 -40 -52z" />
    <glyph glyph-name="Lslash" unicode="&#x141;" horiz-adv-x="591" 
d="M402 407l-139 -86v-155c0 -47 4 -79 17 -95c13 -17 31 -25 104 -25c91 0 119 3 178 119c8 10 31 6 38 -6c-5 -52 -29 -135 -43 -162c-53 2 -149 3 -231 3h-134c-46 0 -96 -1 -158 -3c-9 6 -11 29 -3 35l38 5c45 6 51 14 51 107v88l-82 -51c-10 7 -22 29 -18 48l100 62
v225c0 93 -6 102 -51 108l-29 4c-10 6 -10 29 0 35c52 -2 102 -3 152 -3c48 0 97 1 148 3c8 -6 8 -29 0 -35l-26 -4c-45 -7 -51 -15 -51 -108v-137l118 73c15 -3 24 -28 21 -45z" />
    <glyph glyph-name="Oslash" unicode="&#xd8;" horiz-adv-x="788" 
d="M236 157l285 403c-33 44 -78 70 -132 70c-123 0 -189 -115 -189 -282c0 -57 9 -130 36 -191zM550 509l-285 -404c31 -45 77 -75 141 -75c131 0 182 128 182 290c0 72 -13 138 -38 189zM663 668l-42 -59c80 -59 127 -156 127 -277c0 -217 -146 -348 -361 -348
c-66 0 -127 14 -178 42l-49 -69c-16 -1 -39 14 -43 32l46 65c-76 59 -123 153 -123 271c0 198 148 351 357 351c68 0 128 -14 178 -39l43 60c18 1 40 -13 45 -29z" />
    <glyph glyph-name="OE" unicode="&#x152;" horiz-adv-x="1018" 
d="M650 660h171c64 0 121 1 134 3c1 -16 8 -88 13 -155c-4 -11 -27 -13 -37 -4c-11 35 -25 65 -38 79c-19 19 -49 31 -98 31h-80c-33 0 -33 -2 -33 -39v-175c0 -28 1 -30 28 -30h69c52 0 64 7 74 55l5 25c7 8 32 8 37 -1c-2 -32 -3 -68 -3 -106s1 -74 3 -106
c-5 -9 -30 -10 -37 -1l-5 25c-10 48 -22 56 -74 56h-69c-27 0 -28 -1 -28 -31v-119c0 -46 4 -78 16 -95c13 -18 32 -26 105 -26c87 0 121 3 176 116c8 11 33 7 37 -5c-4 -52 -28 -133 -42 -160c-53 2 -149 3 -231 3h-100c-79 0 -145 -6 -212 -6c-257 0 -391 138 -391 322
c0 197 143 350 416 350c73 0 133 -6 194 -6zM539 121v404c0 55 -9 76 -31 85c-18 7 -40 10 -65 10c-160 0 -242 -132 -242 -291c0 -140 78 -289 251 -289c58 0 87 13 87 81z" />
    <glyph glyph-name="ordmasculine" unicode="&#xba;" horiz-adv-x="404" 
d="M205 540c98 0 166 -58 166 -148c0 -101 -76 -152 -171 -152c-93 0 -166 50 -166 143c0 102 80 157 171 157zM257 370c0 76 -18 134 -56 134c-29 0 -53 -31 -53 -99c0 -79 22 -129 59 -129c34 0 50 44 50 94z" />
    <glyph glyph-name="ae" unicode="&#xe6;" horiz-adv-x="627" 
d="M249 102v66c0 10 -3 14 -10 14c-11 -1 -28 -6 -43 -13c-23 -10 -39 -29 -39 -58c0 -38 27 -58 51 -58c26 0 41 17 41 49zM442 -14c-68 0 -117 25 -142 59c-3 4 -7 8 -11 8s-7 -3 -14 -7c-47 -32 -81 -60 -135 -60c-50 0 -108 40 -108 107c0 49 31 83 100 103l104 30
c11 3 13 8 13 26v11c0 43 0 100 -53 100c-24 0 -44 -14 -51 -57c-2 -16 -8 -25 -17 -32c-15 -11 -55 -23 -71 -23c-15 0 -23 11 -23 24c0 26 23 57 49 79c35 28 97 60 154 60c42 0 76 -11 100 -44c39 32 87 44 135 44c90 0 146 -57 146 -106c0 -21 -10 -30 -34 -36l-197 -53
c-14 -4 -17 -5 -17 -25c0 -77 47 -131 134 -131c28 0 65 10 93 56c12 0 23 -6 25 -20c-37 -85 -108 -113 -180 -113zM496 313c0 32 -21 55 -51 55c-43 0 -72 -44 -72 -81c0 -20 3 -25 20 -20l82 22c17 5 21 10 21 24z" />
    <glyph glyph-name="dotlessi" unicode="&#x131;" horiz-adv-x="286" 
d="M214 300v-184c0 -70 4 -79 37 -82l19 -2c8 -6 8 -29 -1 -35c-35 2 -74 3 -120 3c-45 0 -87 -1 -120 -3c-9 6 -9 29 -1 35l19 2c33 3 37 12 37 82v151c0 40 0 52 -19 64l-14 9c-7 6 -7 24 0 30c47 13 118 40 148 58c8 0 14 -3 18 -9c-2 -30 -3 -74 -3 -119z" />
    <glyph glyph-name="lslash" unicode="&#x142;" horiz-adv-x="286" 
d="M317 408l-105 -76v-216c0 -70 4 -78 39 -82l17 -2c8 -6 8 -29 -1 -35c-33 2 -75 3 -120 3c-43 0 -85 -1 -120 -3c-9 6 -9 29 -1 35l19 2c33 3 37 12 37 82v119l-77 -56c-14 5 -26 27 -19 44l96 71v252c0 50 0 61 -20 73l-17 10c-7 6 -7 24 0 30c44 10 103 34 153 56
c6 0 13 -2 17 -7c-2 -41 -3 -83 -3 -146v-171l85 61c16 -7 25 -27 20 -44z" />
    <glyph glyph-name="oslash" unicode="&#xf8;" horiz-adv-x="516" 
d="M183 129l134 192c-13 29 -34 47 -62 47c-47 0 -83 -45 -83 -154c0 -30 3 -58 11 -85zM334 271l-134 -191c13 -30 37 -48 66 -48c60 0 79 65 78 155c0 29 -3 57 -10 84zM147 9l-41 -56c-19 3 -30 12 -34 26l38 51c-48 34 -78 88 -79 162c-1 143 112 222 230 222
c36 0 77 -7 107 -23l35 48c16 -1 31 -11 35 -26l-33 -44c49 -35 80 -91 80 -168c0 -146 -107 -215 -230 -215c-37 0 -75 6 -108 23z" />
    <glyph glyph-name="oe" unicode="&#x153;" horiz-adv-x="740" 
d="M348 187c-1 97 -29 181 -87 181c-45 0 -81 -45 -81 -154c0 -107 33 -182 92 -182c58 0 77 63 76 155zM696 237h-198c-25 0 -27 -2 -27 -20c0 -77 51 -146 145 -146c28 0 66 6 95 52c11 0 24 -6 24 -23c-38 -85 -110 -114 -173 -114c-68 0 -121 29 -152 65
c-32 -38 -94 -65 -159 -65c-115 0 -219 69 -220 207c-1 143 113 221 229 221c68 0 127 -29 156 -73c34 42 94 73 152 73c110 0 164 -68 164 -144c0 -19 -5 -33 -36 -33zM526 281h44c14 0 30 2 41 9c5 3 7 13 7 23c0 33 -23 55 -55 55c-44 0 -84 -42 -84 -72
c0 -14 14 -15 47 -15z" />
    <glyph glyph-name="germandbls" unicode="&#xdf;" horiz-adv-x="573" 
d="M214 423v-307c0 -70 4 -76 37 -83l5 -1c8 -6 8 -29 -1 -35c-19 2 -61 3 -108 3c-44 0 -86 -1 -117 -3c-10 6 -10 29 -2 35l16 2c36 4 40 12 40 82v202c0 27 -3 28 -25 28h-37c-6 4 -8 22 -3 27l43 22c13 7 22 13 22 26c0 53 9 108 26 144c35 77 114 150 236 150
c132 0 187 -74 187 -143c0 -59 -26 -81 -64 -112l-16 -13c-28 -23 -45 -49 -45 -73c0 -36 36 -62 73 -97c40 -37 75 -83 75 -140c0 -89 -68 -151 -178 -151c-42 0 -96 13 -96 66c0 23 8 51 29 51c20 0 58 -71 99 -71c19 0 36 16 36 45c0 31 -24 65 -60 96
c-45 38 -86 78 -86 133c0 57 31 87 61 120c30 32 59 67 59 121c0 75 -40 122 -87 122c-75 0 -119 -91 -119 -246z" />
    <glyph glyph-name="onesuperior" unicode="&#xb9;" 
d="M150 417v160c0 35 -3 50 -32 54l-31 4c-8 5 -8 23 0 28c59 8 128 29 167 50c7 0 11 -3 12 -8c-1 -17 -3 -55 -3 -88v-200c0 -51 -1 -64 30 -68l30 -4c6 -6 5 -23 -2 -27c-37 1 -77 2 -115 2c-37 0 -77 -1 -114 -2c-7 4 -8 21 -2 27l30 4c31 4 30 17 30 68z" />
    <glyph glyph-name="logicalnot" unicode="&#xac;" horiz-adv-x="520" 
d="M373 67v183h-313v72h401v-255h-88z" />
    <glyph glyph-name="mu" unicode="&#xb5;" horiz-adv-x="536" 
d="M467 314v-182c0 -59 3 -85 27 -85c13 0 28 4 40 8c9 -2 10 -38 -3 -43c-98 -4 -182 -36 -185 -36c-7 1 -11 6 -12 12c2 12 3 28 3 36c0 6 -5 10 -11 10c-39 -25 -74 -48 -136 -48c-10 0 -27 6 -35 12c-6 -1 -10 -8 -10 -22v-31c0 -65 49 -113 49 -141
c0 -32 -50 -73 -97 -73c-17 0 -24 10 -24 36v517c0 53 -6 58 -30 65l-13 4c-7 9 -6 28 4 35c33 1 68 4 97 9c30 5 59 17 63 17c6 0 11 -7 12 -12c-2 -25 -3 -52 -3 -88v-165c0 -48 7 -90 71 -90c28 0 44 13 52 19c7 5 11 20 11 30v189c0 40 -7 49 -43 54l-14 2
c-8 7 -7 31 5 35c36 2 72 6 104 10c35 5 65 16 71 16c4 0 9 -5 10 -12c-1 -18 -3 -51 -3 -88z" />
    <glyph glyph-name="mu" unicode="&#x3bc;" horiz-adv-x="536" 
d="M467 314v-182c0 -59 3 -85 27 -85c13 0 28 4 40 8c9 -2 10 -38 -3 -43c-98 -4 -182 -36 -185 -36c-7 1 -11 6 -12 12c2 12 3 28 3 36c0 6 -5 10 -11 10c-39 -25 -74 -48 -136 -48c-10 0 -27 6 -35 12c-6 -1 -10 -8 -10 -22v-31c0 -65 49 -113 49 -141
c0 -32 -50 -73 -97 -73c-17 0 -24 10 -24 36v517c0 53 -6 58 -30 65l-13 4c-7 9 -6 28 4 35c33 1 68 4 97 9c30 5 59 17 63 17c6 0 11 -7 12 -12c-2 -25 -3 -52 -3 -88v-165c0 -48 7 -90 71 -90c28 0 44 13 52 19c7 5 11 20 11 30v189c0 40 -7 49 -43 54l-14 2
c-8 7 -7 31 5 35c36 2 72 6 104 10c35 5 65 16 71 16c4 0 9 -5 10 -12c-1 -18 -3 -51 -3 -88z" />
    <glyph glyph-name="trademark" unicode="&#x2122;" horiz-adv-x="614" 
d="M114 524v97c0 11 0 12 -11 12h-8c-22 0 -36 -10 -45 -35c-3 -7 -19 -5 -20 3c6 37 10 57 14 71c2 5 13 5 15 0c9 -11 11 -12 31 -12h127c14 0 18 0 30 12c3 5 13 5 15 0c-4 -18 -6 -51 -5 -74c-2 -9 -17 -9 -19 -2c-5 24 -13 37 -39 37h-13c-8 0 -8 -1 -8 -12v-100
c0 -30 1 -41 18 -44l16 -3c4 -3 3 -19 -1 -20c-22 1 -45 1 -72 1c-25 0 -40 0 -58 -1c-4 2 -4 15 -1 20l16 3c16 3 18 17 18 47zM519 502l-2 98c0 6 0 10 -2 11c-1 0 -10 -22 -19 -43l-19 -44c-14 -33 -21 -48 -28 -70c-6 -2 -16 -5 -25 1c-4 16 -17 45 -23 60l-23 55
c-10 23 -21 46 -23 47c-1 -2 -2 -16 -4 -52c-1 -18 0 -46 0 -61c1 -22 4 -27 20 -29l9 -1c2 -3 2 -15 0 -20c-10 1 -24 1 -47 1c-17 0 -36 0 -47 -1c-3 2 -3 16 -1 20l6 1c19 3 24 10 25 24c4 37 9 81 9 112c0 19 -8 26 -24 28l-8 2c-8 3 -7 19 1 20c17 0 28 -1 40 -1
c17 0 30 0 66 1c0 -11 13 -37 23 -56l19 -37c5 -10 9 -15 12 -15c2 0 6 2 12 12l17 37c9 19 16 35 23 59c31 -1 40 -1 48 -1c14 0 38 0 50 1c6 -1 6 -18 1 -20l-10 -2c-17 -3 -19 -9 -19 -24c0 -28 1 -80 3 -108c2 -23 4 -26 14 -29l15 -4c6 -2 6 -18 0 -20
c-14 1 -28 1 -61 1c-26 0 -40 0 -55 -1c-3 2 -4 18 0 20l15 4c12 3 12 8 12 24z" />
    <glyph glyph-name="Eth" unicode="&#xd0;" horiz-adv-x="803" 
d="M120 144v173h-84c-10 12 -10 38 0 53h84v128c0 95 -2 114 -48 119l-19 2c-10 5 -10 34 2 35c84 5 162 9 268 9c82 0 164 -8 233 -33c131 -47 203 -165 203 -290c0 -134 -64 -242 -179 -299c-68 -34 -150 -47 -253 -47c-47 0 -97 6 -133 6c-48 0 -99 -1 -156 -3
c-8 6 -8 30 0 35l31 5c45 7 51 15 51 107zM263 546v-176h134c11 -11 10 -41 0 -53h-134v-136c0 -55 2 -91 20 -112c18 -20 47 -29 83 -29c173 0 232 154 232 290c0 180 -95 287 -276 287c-27 0 -46 -5 -52 -13s-7 -27 -7 -58z" />
    <glyph glyph-name="onehalf" unicode="&#xbd;" horiz-adv-x="840" 
d="M616 630l-370 -670c-18 -4 -40 7 -47 24l370 670c15 2 42 -7 47 -24zM129 344v160c0 35 -3 50 -32 54l-31 4c-8 5 -8 23 0 28c59 8 128 29 167 50c7 0 11 -3 12 -8c-1 -17 -3 -55 -3 -88v-200c0 -51 -1 -64 30 -68l30 -4c6 -6 5 -23 -2 -27c-37 1 -77 2 -115 2
c-37 0 -77 -1 -114 -2c-7 4 -8 21 -2 27l30 4c31 4 30 17 30 68zM653 0h-96c-37 0 -54 -1 -65 -2c-7 4 -9 13 -7 19c23 18 47 36 101 91c36 38 75 97 75 158c0 41 -22 69 -59 69c-33 0 -61 -23 -81 -59c-10 -7 -28 1 -28 17c34 67 94 100 155 100c88 0 135 -48 135 -112
c0 -42 -20 -87 -98 -145l-31 -23l-25 -21c-10 -9 -5 -17 8 -17h62c46 0 67 2 84 34c8 3 18 1 23 -4c-6 -33 -26 -87 -39 -107c-27 1 -55 2 -114 2z" />
    <glyph glyph-name="plusminus" unicode="&#xb1;" horiz-adv-x="520" 
d="M305 100h-88v147h-157v72h157v139h88v-139h156v-72h-156v-147zM461 0h-401v72h401v-72z" />
    <glyph glyph-name="Thorn" unicode="&#xde;" horiz-adv-x="594" 
d="M257 429v-285c0 -93 6 -100 51 -107l33 -5c8 -6 8 -29 0 -35c-58 2 -106 3 -154 3c-47 0 -97 -1 -152 -3c-8 6 -8 29 0 35l28 5c45 8 51 14 51 107v372c0 93 -6 99 -51 107l-28 5c-9 6 -9 29 3 35c49 -2 101 -3 149 -3s98 1 149 3c10 -6 10 -29 0 -35l-28 -5
c-45 -8 -51 -14 -51 -97h67c48 0 94 -8 126 -20c63 -22 115 -74 115 -164c0 -126 -112 -177 -224 -177c-6 0 -11 1 -19 1c-10 5 -10 20 -3 26c75 25 91 70 91 149c0 63 -34 139 -108 139c-41 0 -45 -10 -45 -51z" />
    <glyph glyph-name="onequarter" unicode="&#xbc;" horiz-adv-x="840" 
d="M608 76v14c0 17 -1 18 -15 18h-153c-7 4 -9 14 -7 23l216 283c6 7 11 12 20 12h29c11 0 13 -9 3 -22l-196 -247c-5 -6 -3 -11 15 -11h73c14 0 15 2 15 17v75c0 14 8 19 18 22c20 6 71 18 82 18c8 0 11 -4 11 -10v-105c0 -15 1 -17 15 -17h44c11 -4 11 -32 0 -38h-44
c-14 0 -15 -1 -15 -18v-14c0 -39 2 -47 36 -50l13 -1c7 -5 7 -22 -1 -27c-39 1 -74 2 -112 2s-77 -1 -106 -2c-8 4 -8 22 -2 27l20 1c41 2 41 8 41 50zM628 630l-370 -670c-18 -4 -40 7 -47 24l370 670c15 2 42 -7 47 -24zM140 344v160c0 35 -3 50 -32 54l-31 4
c-8 5 -8 23 0 28c59 8 128 29 167 50c7 0 11 -3 12 -8c-1 -17 -3 -55 -3 -88v-200c0 -51 -1 -64 30 -68l30 -4c6 -6 5 -23 -2 -27c-37 1 -77 2 -115 2c-37 0 -77 -1 -114 -2c-7 4 -8 21 -2 27l30 4c31 4 30 17 30 68z" />
    <glyph glyph-name="divide" unicode="&#xf7;" horiz-adv-x="520" 
d="M261 10c-34 0 -61 27 -61 61c0 33 27 60 61 60c31 0 59 -27 59 -60c0 -34 -28 -61 -59 -61zM261 295c-34 0 -61 27 -61 61c0 33 27 60 61 60c31 0 59 -27 59 -60c0 -34 -28 -61 -59 -61zM461 177h-401v72h401v-72z" />
    <glyph glyph-name="brokenbar" unicode="&#xa6;" horiz-adv-x="248" 
d="M168 675v-350h-88v350h88zM168 175v-350h-88v350h88z" />
    <glyph glyph-name="degree" unicode="&#xb0;" horiz-adv-x="374" 
d="M187 640c80 0 147 -56 147 -142c0 -90 -67 -142 -147 -142s-147 52 -147 142c0 86 67 142 147 142zM265 498c0 57 -33 98 -78 98s-78 -41 -78 -98c0 -58 33 -98 78 -98c50 0 78 40 78 98z" />
    <glyph glyph-name="thorn" unicode="&#xfe;" horiz-adv-x="533" 
d="M73 -139v675c0 40 0 51 -20 63l-17 10c-7 6 -7 24 0 30c41 10 101 34 153 56c6 0 13 -2 17 -7c-2 -41 -3 -83 -3 -146v-159c0 -2 4 -8 8 -9c28 15 72 40 127 40c106 0 170 -83 170 -191c0 -140 -99 -237 -245 -237c-14 0 -36 1 -45 3c-9 -2 -15 -8 -15 -29v-99
c0 -70 4 -78 37 -81l34 -3c8 -6 8 -29 -1 -35c-50 2 -90 3 -137 3c-44 0 -83 -1 -119 -3c-9 6 -9 29 -1 35l20 2c33 3 37 12 37 82zM203 273v-160c0 -22 8 -43 23 -58c13 -14 32 -23 48 -23c62 0 96 66 96 159c0 98 -48 154 -114 154c-17 0 -34 -4 -42 -14
c-5 -6 -11 -19 -11 -58z" />
    <glyph glyph-name="threequarters" unicode="&#xbe;" horiz-adv-x="840" 
d="M643 76v14c0 17 -1 18 -15 18h-153c-7 4 -9 14 -7 23l216 283c6 7 11 12 20 12h29c11 0 13 -9 3 -22l-196 -247c-5 -6 -3 -11 15 -11h73c14 0 15 2 15 17v75c0 14 8 19 18 22c20 6 71 18 82 18c8 0 11 -4 11 -10v-105c0 -15 1 -17 15 -17h44c11 -4 11 -32 0 -38h-44
c-14 0 -15 -1 -15 -18v-14c0 -39 2 -47 36 -50l13 -1c7 -5 7 -22 -1 -27c-39 1 -74 2 -112 2s-77 -1 -106 -2c-8 4 -8 22 -2 27l20 1c41 2 41 8 41 50zM653 630l-370 -670c-18 -4 -40 7 -47 24l370 670c15 2 42 -7 47 -24zM119 208c-34 0 -76 15 -76 53c0 17 11 41 43 41
c25 0 39 -26 47 -37c8 -12 16 -17 29 -17c28 -1 75 30 75 105c0 52 -27 84 -65 84c-27 0 -49 -9 -67 -25c-19 4 -24 25 -16 36c40 15 125 45 125 100c0 23 -16 40 -45 40c-22 0 -50 -14 -74 -50c-12 -5 -26 5 -25 17c28 54 85 85 142 85c65 0 109 -32 109 -74
c0 -29 -13 -52 -77 -78c-7 -3 0 -8 8 -9c51 -6 105 -31 105 -98c0 -49 -25 -90 -83 -126c-55 -35 -119 -47 -155 -47z" />
    <glyph glyph-name="twosuperior" unicode="&#xb2;" 
d="M210 320h-96c-37 0 -54 -1 -65 -2c-7 4 -9 13 -7 19c23 18 47 36 101 91c36 38 75 97 75 158c0 41 -22 69 -59 69c-33 0 -61 -23 -81 -59c-10 -7 -28 1 -28 17c34 67 94 100 155 100c88 0 135 -48 135 -112c0 -42 -20 -87 -98 -145l-31 -23l-25 -21c-10 -9 -5 -17 8 -17
h62c46 0 67 2 84 34c8 3 18 1 23 -4c-6 -33 -26 -87 -39 -107c-27 1 -55 2 -114 2z" />
    <glyph glyph-name="registered" unicode="&#xae;" horiz-adv-x="346" 
d="M123 506v63c0 14 -3 21 -13 22h-5c-2 4 -2 11 2 12c25 1 46 2 66 2c26 0 60 -5 60 -37c0 -16 -12 -27 -22 -31c-2 -1 -2 -3 0 -8c12 -23 22 -38 30 -44c5 -3 7 -5 11 -6c2 0 2 -7 0 -8c-6 -1 -11 -1 -17 -1c-19 0 -33 7 -44 23c-6 9 -11 18 -17 28c-2 4 -6 6 -10 6
s-5 -3 -5 -5v-16c0 -16 0 -21 14 -23l4 -1c2 -1 2 -10 0 -11c-12 0 -22 1 -36 1c-13 0 -24 -1 -34 -1c-4 1 -4 10 -2 11l5 1c13 3 13 6 13 23zM159 581v-33c0 -8 1 -8 12 -8c16 0 20 14 20 22c0 18 -8 28 -19 28c-12 0 -13 -2 -13 -9zM173 677c79 0 143 -63 143 -140
s-64 -140 -143 -140s-143 63 -143 140s64 140 143 140zM173 653c-59 0 -109 -51 -109 -116c0 -64 50 -115 109 -115c60 0 109 51 109 115c0 65 -49 116 -109 116z" />
    <glyph glyph-name="minus" unicode="&#x2212;" horiz-adv-x="520" 
d="M461 177h-401v72h401v-72z" />
    <glyph glyph-name="eth" unicode="&#xf0;" horiz-adv-x="516" 
d="M491 630l-115 -55c16 -19 34 -42 50 -69c46 -79 60 -165 60 -224c0 -223 -108 -296 -239 -296c-113 0 -215 68 -216 206c-1 143 112 222 237 222c30 0 51 -5 67 -12c-5 44 -25 83 -53 127l-144 -70c-19 8 -22 34 -16 48l131 63c-25 32 -56 60 -87 79
c-20 12 -51 29 -82 33c-10 5 -14 28 1 33c58 0 114 -15 149 -32c37 -17 72 -40 104 -70l134 64c16 -7 24 -32 19 -47zM269 368c-50 0 -94 -45 -94 -169c0 -97 31 -167 90 -167c29 0 51 21 64 62s18 102 17 183c-1 37 -12 56 -24 68c-16 15 -35 23 -53 23z" />
    <glyph glyph-name="multiply" unicode="&#xd7;" horiz-adv-x="520" 
d="M458 351l-146 -147l146 -146l-52 -54l-147 147l-145 -147l-51 54l144 145l-144 145l51 54l146 -146l146 148z" />
    <glyph glyph-name="threesuperior" unicode="&#xb3;" 
d="M116 281c-34 0 -76 15 -76 53c0 17 11 41 43 41c25 0 39 -26 47 -37c8 -12 16 -17 29 -17c28 -1 75 30 75 105c0 52 -27 84 -65 84c-27 0 -49 -9 -67 -25c-19 4 -24 25 -16 36c40 15 125 45 125 100c0 23 -16 40 -45 40c-22 0 -50 -14 -74 -50c-12 -5 -26 5 -25 17
c28 54 85 85 142 85c65 0 109 -32 109 -74c0 -29 -13 -52 -77 -78c-7 -3 0 -8 8 -9c51 -6 105 -31 105 -98c0 -49 -25 -90 -83 -126c-55 -35 -119 -47 -155 -47z" />
    <glyph glyph-name="copyright" unicode="&#xa9;" horiz-adv-x="780" 
d="M422 149c-170 0 -209 111 -209 180c0 107 78 189 209 189c55 0 94 -13 116 -17c3 -31 6 -68 9 -103c-5 -7 -21 -8 -27 -3c-21 71 -64 88 -94 88c-44 0 -106 -35 -106 -149c0 -106 57 -150 112 -150c42 0 74 29 103 83c6 6 20 5 26 -2c-3 -32 -14 -69 -26 -89
c-32 -21 -86 -27 -113 -27zM390 -16c-193 0 -350 155 -350 346s157 346 350 346s350 -155 350 -346s-157 -346 -350 -346zM672 331c0 167 -128 298 -282 298s-282 -131 -282 -298s128 -300 282 -300s282 133 282 300z" />
    <glyph glyph-name="Aacute" unicode="&#xc1;" horiz-adv-x="624" 
d="M324 226h-112c-24 0 -27 -1 -33 -20l-37 -116c-6 -20 -7 -28 -7 -36c0 -6 8 -12 36 -17l30 -5c6 -7 8 -30 -2 -35c-35 2 -75 2 -117 3c-34 0 -57 -3 -103 -3c-11 6 -10 27 -3 35l27 3c24 3 44 11 61 50c17 40 35 88 62 160l90 244c23 63 42 98 39 127c48 11 85 60 87 60
c13 0 19 -5 23 -20c8 -29 20 -66 45 -137l136 -392c21 -60 30 -83 67 -89l38 -6c6 -5 8 -29 -1 -35c-48 2 -102 3 -154 3c-50 0 -89 -1 -135 -3c-11 6 -13 27 -2 35l32 5c23 4 27 11 27 17c0 7 -7 31 -19 68l-27 86c-5 16 -13 18 -48 18zM232 279h87c23 0 28 3 20 29l-26 81
c-14 43 -27 84 -36 105c-10 -22 -26 -64 -41 -110l-25 -75c-9 -27 -4 -30 21 -30zM249 731l162 121c16 12 26 17 33 17c10 0 22 -8 34 -31c12 -21 12 -36 10 -43c-2 -8 -12 -19 -32 -25l-196 -64c-8 3 -14 14 -11 25z" />
    <glyph glyph-name="Acircumflex" unicode="&#xc2;" horiz-adv-x="624" 
d="M324 226h-112c-24 0 -27 -1 -33 -20l-37 -116c-6 -20 -7 -28 -7 -36c0 -6 8 -12 36 -17l30 -5c6 -7 8 -30 -2 -35c-35 2 -75 2 -117 3c-34 0 -57 -3 -103 -3c-11 6 -10 27 -3 35l27 3c24 3 44 11 61 50c17 40 35 88 62 160l90 244c23 63 42 98 39 127c48 11 85 60 87 60
c13 0 19 -5 23 -20c8 -29 20 -66 45 -137l136 -392c21 -60 30 -83 67 -89l38 -6c6 -5 8 -29 -1 -35c-48 2 -102 3 -154 3c-50 0 -89 -1 -135 -3c-11 6 -13 27 -2 35l32 5c23 4 27 11 27 17c0 7 -7 31 -19 68l-27 86c-5 16 -13 18 -48 18zM232 279h87c23 0 28 3 20 29l-26 81
c-14 43 -27 84 -36 105c-10 -22 -26 -64 -41 -110l-25 -75c-9 -27 -4 -30 21 -30zM459 706l-121 54c-11 5 -22 5 -33 0l-120 -54c-9 0 -18 13 -14 24l127 119c14 14 33 13 47 0l127 -119c4 -11 -6 -23 -13 -24z" />
    <glyph glyph-name="Adieresis" unicode="&#xc4;" horiz-adv-x="624" 
d="M324 226h-112c-24 0 -27 -1 -33 -20l-37 -116c-6 -20 -7 -28 -7 -36c0 -6 8 -12 36 -17l30 -5c6 -7 8 -30 -2 -35c-35 2 -75 2 -117 3c-34 0 -57 -3 -103 -3c-11 6 -10 27 -3 35l27 3c24 3 44 11 61 50c17 40 35 88 62 160l90 244c23 63 42 98 39 127c48 11 85 60 87 60
c13 0 19 -5 23 -20c8 -29 20 -66 45 -137l136 -392c21 -60 30 -83 67 -89l38 -6c6 -5 8 -29 -1 -35c-48 2 -102 3 -154 3c-50 0 -89 -1 -135 -3c-11 6 -13 27 -2 35l32 5c23 4 27 11 27 17c0 7 -7 31 -19 68l-27 86c-5 16 -13 18 -48 18zM232 279h87c23 0 28 3 20 29l-26 81
c-14 43 -27 84 -36 105c-10 -22 -26 -64 -41 -110l-25 -75c-9 -27 -4 -30 21 -30zM208 712c-34 0 -60 20 -61 58c0 37 26 64 61 64s60 -28 60 -59c0 -38 -25 -63 -60 -63zM417 712c-34 0 -60 20 -61 58c0 37 26 64 61 64s60 -28 60 -59c0 -38 -25 -63 -60 -63z" />
    <glyph glyph-name="Agrave" unicode="&#xc0;" horiz-adv-x="624" 
d="M324 226h-112c-24 0 -27 -1 -33 -20l-37 -116c-6 -20 -7 -28 -7 -36c0 -6 8 -12 36 -17l30 -5c6 -7 8 -30 -2 -35c-35 2 -75 2 -117 3c-34 0 -57 -3 -103 -3c-11 6 -10 27 -3 35l27 3c24 3 44 11 61 50c17 40 35 88 62 160l90 244c23 63 42 98 39 127c48 11 85 60 87 60
c13 0 19 -5 23 -20c8 -29 20 -66 45 -137l136 -392c21 -60 30 -83 67 -89l38 -6c6 -5 8 -29 -1 -35c-48 2 -102 3 -154 3c-50 0 -89 -1 -135 -3c-11 6 -13 27 -2 35l32 5c23 4 27 11 27 17c0 7 -7 31 -19 68l-27 86c-5 16 -13 18 -48 18zM232 279h87c23 0 28 3 20 29l-26 81
c-14 43 -27 84 -36 105c-10 -22 -26 -64 -41 -110l-25 -75c-9 -27 -4 -30 21 -30zM232 854l162 -118c3 -8 -3 -23 -11 -30l-196 64c-20 6 -30 17 -32 25c-2 7 -2 22 10 43c12 23 24 31 34 31c7 0 17 -4 33 -15z" />
    <glyph glyph-name="Aring" unicode="&#xc5;" horiz-adv-x="624" 
d="M324 226h-112c-24 0 -27 -1 -33 -20l-37 -116c-6 -20 -7 -28 -7 -36c0 -6 8 -12 36 -17l30 -5c6 -7 8 -30 -2 -35c-35 2 -75 2 -117 3c-34 0 -57 -3 -103 -3c-11 6 -10 27 -3 35l27 3c24 3 44 11 61 50c17 40 35 88 62 160l90 244c23 63 42 98 39 127c48 11 85 60 87 60
c13 0 19 -5 23 -20c8 -29 20 -66 45 -137l136 -392c21 -60 30 -83 67 -89l38 -6c6 -5 8 -29 -1 -35c-48 2 -102 3 -154 3c-50 0 -89 -1 -135 -3c-11 6 -13 27 -2 35l32 5c23 4 27 11 27 17c0 7 -7 31 -19 68l-27 86c-5 16 -13 18 -48 18zM232 279h87c23 0 28 3 20 29l-26 81
c-14 43 -27 84 -36 105c-10 -22 -26 -64 -41 -110l-25 -75c-9 -27 -4 -30 21 -30zM312 689c-64 0 -103 49 -103 99s39 98 103 98s103 -48 103 -98s-39 -99 -103 -99zM312 727c29 0 45 28 45 61s-16 61 -45 63c-29 -2 -45 -30 -45 -63s16 -61 45 -61z" />
    <glyph glyph-name="Atilde" unicode="&#xc3;" horiz-adv-x="624" 
d="M324 226h-112c-24 0 -27 -1 -33 -20l-37 -116c-6 -20 -7 -28 -7 -36c0 -6 8 -12 36 -17l30 -5c6 -7 8 -30 -2 -35c-35 2 -75 2 -117 3c-34 0 -57 -3 -103 -3c-11 6 -10 27 -3 35l27 3c24 3 44 11 61 50c17 40 35 88 62 160l90 244c23 63 42 98 39 127c48 11 85 60 87 60
c13 0 19 -5 23 -20c8 -29 20 -66 45 -137l136 -392c21 -60 30 -83 67 -89l38 -6c6 -5 8 -29 -1 -35c-48 2 -102 3 -154 3c-50 0 -89 -1 -135 -3c-11 6 -13 27 -2 35l32 5c23 4 27 11 27 17c0 7 -7 31 -19 68l-27 86c-5 16 -13 18 -48 18zM232 279h87c23 0 28 3 20 29l-26 81
c-14 43 -27 84 -36 105c-10 -22 -26 -64 -41 -110l-25 -75c-9 -27 -4 -30 21 -30zM361 739h-54c-52 0 -73 -14 -99 -60c-11 -4 -32 -2 -37 7c7 26 29 79 48 101c19 23 39 31 70 31h65c35 0 60 7 78 52c14 3 32 1 36 -6c-7 -35 -21 -69 -38 -94c-17 -23 -33 -31 -69 -31z" />
    <glyph glyph-name="Ccedilla" unicode="&#xc7;" horiz-adv-x="689" 
d="M345 -106l61 91c-88 4 -175 27 -239 75c-72 55 -127 138 -127 262c0 122 52 208 121 265c71 59 173 89 277 89c102 0 176 -24 206 -26c0 -18 3 -98 12 -156c-4 -12 -31 -16 -38 -7c-27 93 -91 143 -188 143c-111 0 -230 -95 -230 -294s115 -306 235 -306
c121 0 177 87 204 155c8 8 32 5 38 -7c-7 -74 -24 -134 -38 -157c-49 -14 -111 -33 -181 -36l-26 -37c-7 -10 -6 -13 9 -21c37 -20 61 -46 61 -85c0 -55 -62 -93 -127 -93c-48 0 -77 16 -77 44c0 18 13 33 32 33c28 0 46 -37 68 -37c11 0 26 9 26 25c0 32 -40 57 -76 72z
" />
    <glyph glyph-name="Eacute" unicode="&#xc9;" horiz-adv-x="593" 
d="M257 575v-175c0 -28 1 -30 28 -30h69c52 0 64 7 74 55l5 25c7 8 32 8 37 -1c-2 -32 -3 -68 -3 -106s1 -74 3 -106c-5 -9 -30 -10 -37 -1l-5 25c-10 48 -22 56 -74 56h-69c-27 0 -28 -1 -28 -31v-119c0 -46 4 -78 16 -95c13 -18 32 -26 105 -26c87 0 121 3 176 116
c8 11 33 7 37 -5c-4 -52 -28 -133 -42 -160c-53 2 -149 3 -231 3h-130c-48 0 -97 -1 -172 -3c-8 6 -8 30 0 35l47 7c45 7 51 13 51 105v373c0 91 -6 97 -51 106l-25 5c-9 6 -8 29 2 35c47 -2 96 -3 144 -3h212c64 0 121 1 134 3c1 -16 8 -88 13 -155c-4 -11 -27 -13 -37 -4
c-11 35 -25 65 -38 79c-19 19 -49 31 -98 31h-80c-33 0 -33 -2 -33 -39zM254 731l162 121c16 12 26 17 33 17c10 0 22 -8 34 -31c12 -21 12 -36 10 -43c-2 -8 -12 -19 -32 -25l-196 -64c-8 3 -14 14 -11 25z" />
    <glyph glyph-name="Ecircumflex" unicode="&#xca;" horiz-adv-x="593" 
d="M257 575v-175c0 -28 1 -30 28 -30h69c52 0 64 7 74 55l5 25c7 8 32 8 37 -1c-2 -32 -3 -68 -3 -106s1 -74 3 -106c-5 -9 -30 -10 -37 -1l-5 25c-10 48 -22 56 -74 56h-69c-27 0 -28 -1 -28 -31v-119c0 -46 4 -78 16 -95c13 -18 32 -26 105 -26c87 0 121 3 176 116
c8 11 33 7 37 -5c-4 -52 -28 -133 -42 -160c-53 2 -149 3 -231 3h-130c-48 0 -97 -1 -172 -3c-8 6 -8 30 0 35l47 7c45 7 51 13 51 105v373c0 91 -6 97 -51 106l-25 5c-9 6 -8 29 2 35c47 -2 96 -3 144 -3h212c64 0 121 1 134 3c1 -16 8 -88 13 -155c-4 -11 -27 -13 -37 -4
c-11 35 -25 65 -38 79c-19 19 -49 31 -98 31h-80c-33 0 -33 -2 -33 -39zM431 706l-115 48c-11 5 -21 6 -32 1l-114 -49c-9 0 -17 12 -13 23l121 113c14 13 31 13 44 0l121 -113c4 -11 -5 -22 -12 -23z" />
    <glyph glyph-name="Edieresis" unicode="&#xcb;" horiz-adv-x="593" 
d="M257 575v-175c0 -28 1 -30 28 -30h69c52 0 64 7 74 55l5 25c7 8 32 8 37 -1c-2 -32 -3 -68 -3 -106s1 -74 3 -106c-5 -9 -30 -10 -37 -1l-5 25c-10 48 -22 56 -74 56h-69c-27 0 -28 -1 -28 -31v-119c0 -46 4 -78 16 -95c13 -18 32 -26 105 -26c87 0 121 3 176 116
c8 11 33 7 37 -5c-4 -52 -28 -133 -42 -160c-53 2 -149 3 -231 3h-130c-48 0 -97 -1 -172 -3c-8 6 -8 30 0 35l47 7c45 7 51 13 51 105v373c0 91 -6 97 -51 106l-25 5c-9 6 -8 29 2 35c47 -2 96 -3 144 -3h212c64 0 121 1 134 3c1 -16 8 -88 13 -155c-4 -11 -27 -13 -37 -4
c-11 35 -25 65 -38 79c-19 19 -49 31 -98 31h-80c-33 0 -33 -2 -33 -39zM207 712c-34 0 -60 20 -61 58c0 37 26 64 61 64s60 -28 60 -59c0 -38 -25 -63 -60 -63zM416 712c-34 0 -60 20 -61 58c0 37 26 64 61 64s60 -28 60 -59c0 -38 -25 -63 -60 -63z" />
    <glyph glyph-name="Egrave" unicode="&#xc8;" horiz-adv-x="593" 
d="M257 575v-175c0 -28 1 -30 28 -30h69c52 0 64 7 74 55l5 25c7 8 32 8 37 -1c-2 -32 -3 -68 -3 -106s1 -74 3 -106c-5 -9 -30 -10 -37 -1l-5 25c-10 48 -22 56 -74 56h-69c-27 0 -28 -1 -28 -31v-119c0 -46 4 -78 16 -95c13 -18 32 -26 105 -26c87 0 121 3 176 116
c8 11 33 7 37 -5c-4 -52 -28 -133 -42 -160c-53 2 -149 3 -231 3h-130c-48 0 -97 -1 -172 -3c-8 6 -8 30 0 35l47 7c45 7 51 13 51 105v373c0 91 -6 97 -51 106l-25 5c-9 6 -8 29 2 35c47 -2 96 -3 144 -3h212c64 0 121 1 134 3c1 -16 8 -88 13 -155c-4 -11 -27 -13 -37 -4
c-11 35 -25 65 -38 79c-19 19 -49 31 -98 31h-80c-33 0 -33 -2 -33 -39zM207 854l162 -118c3 -8 -3 -23 -11 -30l-196 64c-20 6 -30 17 -32 25c-2 7 -2 22 10 43c12 23 24 31 34 31c7 0 17 -4 33 -15z" />
    <glyph glyph-name="Iacute" unicode="&#xcd;" horiz-adv-x="371" 
d="M257 514v-368c0 -94 6 -101 52 -109l28 -5c8 -6 7 -29 -1 -35c-54 2 -103 3 -150 3c-48 0 -98 -1 -152 -3c-8 6 -8 29 0 35l28 5c46 8 52 15 52 109v368c0 94 -6 101 -52 109l-28 5c-8 6 -8 29 0 35c54 -2 104 -3 152 -3c47 0 97 1 151 3c8 -6 8 -29 0 -35l-28 -5
c-46 -8 -52 -15 -52 -109zM113 731l162 125c16 12 26 17 33 17c10 0 22 -8 34 -31c12 -25 12 -40 10 -47c-2 -8 -12 -19 -32 -25l-196 -64c-8 3 -14 14 -11 25z" />
    <glyph glyph-name="Icircumflex" unicode="&#xce;" horiz-adv-x="371" 
d="M257 514v-368c0 -94 6 -101 52 -109l28 -5c8 -6 7 -29 -1 -35c-54 2 -103 3 -150 3c-48 0 -98 -1 -152 -3c-8 6 -8 29 0 35l28 5c46 8 52 15 52 109v368c0 94 -6 101 -52 109l-28 5c-8 6 -8 29 0 35c54 -2 104 -3 152 -3c47 0 97 1 151 3c8 -6 8 -29 0 -35l-28 -5
c-46 -8 -52 -15 -52 -109zM328 706l-121 53c-11 5 -22 5 -33 0l-120 -53c-9 0 -18 13 -14 24l127 119c14 14 33 13 47 0l127 -119c4 -11 -6 -23 -13 -24z" />
    <glyph glyph-name="Idieresis" unicode="&#xcf;" horiz-adv-x="371" 
d="M257 514v-368c0 -94 6 -101 52 -109l28 -5c8 -6 7 -29 -1 -35c-54 2 -103 3 -150 3c-48 0 -98 -1 -152 -3c-8 6 -8 29 0 35l28 5c46 8 52 15 52 109v368c0 94 -6 101 -52 109l-28 5c-8 6 -8 29 0 35c54 -2 104 -3 152 -3c47 0 97 1 151 3c8 -6 8 -29 0 -35l-28 -5
c-46 -8 -52 -15 -52 -109zM82 712c-34 0 -60 20 -61 58c0 37 26 64 61 64s60 -28 60 -59c0 -38 -25 -63 -60 -63zM291 712c-34 0 -60 20 -61 58c0 37 26 64 61 64s60 -28 60 -59c0 -38 -25 -63 -60 -63z" />
    <glyph glyph-name="Igrave" unicode="&#xcc;" horiz-adv-x="371" 
d="M257 514v-368c0 -94 6 -101 52 -109l28 -5c8 -6 7 -29 -1 -35c-54 2 -103 3 -150 3c-48 0 -98 -1 -152 -3c-8 6 -8 29 0 35l28 5c46 8 52 15 52 109v368c0 94 -6 101 -52 109l-28 5c-8 6 -8 29 0 35c54 -2 104 -3 152 -3c47 0 97 1 151 3c8 -6 8 -29 0 -35l-28 -5
c-46 -8 -52 -15 -52 -109zM99 858l158 -122c3 -8 -3 -23 -11 -30l-196 64c-20 6 -30 17 -32 25c-2 7 -2 22 11 42c16 24 28 37 38 37c7 0 17 -4 32 -16z" />
    <glyph glyph-name="Ntilde" unicode="&#xd1;" horiz-adv-x="748" 
d="M652 409v-239c0 -65 0 -128 2 -161c-7 -12 -35 -23 -59 -23c-1 0 -34 51 -81 109l-231 286c-58 71 -91 113 -109 128c-5 -10 -5 -27 -5 -64v-194c0 -81 4 -156 15 -183c9 -21 32 -28 58 -32l28 -4c8 -8 6 -29 0 -35c-54 2 -94 3 -134 3c-37 0 -74 -1 -112 -3
c-6 6 -8 27 0 35l17 3c27 5 47 12 55 33c11 27 14 102 14 183v254c0 55 -1 71 -7 85c-8 17 -22 29 -57 34l-28 4c-7 8 -6 32 4 35c47 -2 97 -3 138 -3c34 0 63 1 84 3c10 -45 75 -121 165 -228l84 -99c44 -52 73 -87 96 -110c4 10 4 27 4 45v138c0 81 -4 156 -15 183
c-9 21 -31 28 -58 32l-27 4c-8 8 -6 29 0 35c54 -2 93 -3 134 -3c37 0 73 1 112 3c6 -6 8 -27 0 -35l-18 -3c-26 -4 -45 -12 -54 -33c-11 -27 -15 -102 -15 -183zM443 746h-51c-49 0 -69 -14 -94 -56c-10 -5 -30 -3 -35 6c7 25 28 75 45 96c19 22 38 29 67 29h62
c33 0 57 7 74 49c14 3 30 1 35 -5c-8 -33 -20 -66 -37 -90c-16 -22 -31 -29 -66 -29z" />
    <glyph glyph-name="Oacute" unicode="&#xd3;" horiz-adv-x="788" 
d="M397 676c208 0 351 -140 351 -343c0 -218 -146 -349 -361 -349c-201 0 -347 132 -347 341c0 198 148 351 357 351zM588 320c0 171 -75 310 -199 310c-123 0 -189 -115 -189 -282c0 -122 43 -318 206 -318c131 0 182 128 182 290zM321 731l162 121c16 12 26 17 33 17
c10 0 22 -8 34 -31c12 -21 12 -36 10 -43c-2 -8 -12 -19 -32 -25l-196 -64c-8 3 -14 14 -11 25z" />
    <glyph glyph-name="Ocircumflex" unicode="&#xd4;" horiz-adv-x="788" 
d="M397 676c208 0 351 -140 351 -343c0 -218 -146 -349 -361 -349c-201 0 -347 132 -347 341c0 198 148 351 357 351zM588 320c0 171 -75 310 -199 310c-123 0 -189 -115 -189 -282c0 -122 43 -318 206 -318c131 0 182 128 182 290zM537 706l-121 50c-11 6 -22 7 -33 1
l-120 -51c-9 0 -18 13 -14 24l127 119c14 14 33 13 47 0l127 -119c4 -11 -6 -23 -13 -24z" />
    <glyph glyph-name="Odieresis" unicode="&#xd6;" horiz-adv-x="788" 
d="M397 676c208 0 351 -140 351 -343c0 -218 -146 -349 -361 -349c-201 0 -347 132 -347 341c0 198 148 351 357 351zM588 320c0 171 -75 310 -199 310c-123 0 -189 -115 -189 -282c0 -122 43 -318 206 -318c131 0 182 128 182 290zM290 712c-34 0 -60 20 -61 58
c0 37 26 64 61 64s60 -28 60 -59c0 -38 -25 -63 -60 -63zM499 712c-34 0 -60 20 -61 58c0 37 26 64 61 64s60 -28 60 -59c0 -38 -25 -63 -60 -63z" />
    <glyph glyph-name="Ograve" unicode="&#xd2;" horiz-adv-x="788" 
d="M397 676c208 0 351 -140 351 -343c0 -218 -146 -349 -361 -349c-201 0 -347 132 -347 341c0 198 148 351 357 351zM588 320c0 171 -75 310 -199 310c-123 0 -189 -115 -189 -282c0 -122 43 -318 206 -318c131 0 182 128 182 290zM314 854l162 -118c3 -8 -3 -23 -11 -30
l-196 64c-20 6 -30 17 -32 25c-2 7 -2 22 10 43c12 23 24 31 34 31c7 0 17 -4 33 -15z" />
    <glyph glyph-name="Otilde" unicode="&#xd5;" horiz-adv-x="788" 
d="M397 676c208 0 351 -140 351 -343c0 -218 -146 -349 -361 -349c-201 0 -347 132 -347 341c0 198 148 351 357 351zM588 320c0 171 -75 310 -199 310c-123 0 -189 -115 -189 -282c0 -122 43 -318 206 -318c131 0 182 128 182 290zM433 746h-51c-49 0 -69 -14 -94 -57
c-11 -4 -31 -2 -35 7c6 25 27 75 45 96c19 22 38 30 67 30h62c34 0 58 6 75 49c13 3 30 1 34 -5c-7 -34 -19 -66 -36 -91c-15 -22 -32 -29 -67 -29z" />
    <glyph glyph-name="Scaron" unicode="&#x160;" horiz-adv-x="506" 
d="M477 187c0 -123 -101 -203 -252 -203c-92 0 -149 26 -170 38c-19 22 -32 94 -32 162c7 13 30 14 38 3c20 -65 87 -157 172 -157c74 0 108 51 108 101c0 81 -76 129 -136 159c-72 36 -151 96 -151 195c-1 113 87 191 232 191c33 0 74 -4 114 -16c13 -4 22 -6 34 -8
c8 -22 18 -76 18 -143c-5 -12 -30 -13 -39 -3c-17 51 -60 124 -132 124c-66 0 -102 -43 -102 -93c0 -46 41 -88 91 -114l66 -35c62 -33 141 -91 141 -201zM120 861l121 -50c13 -5 21 -7 35 -1l120 51c9 0 15 -14 13 -26l-129 -117c-15 -13 -30 -13 -44 0l-128 117
c-2 12 5 25 12 26z" />
    <glyph glyph-name="Uacute" unicode="&#xda;" horiz-adv-x="740" 
d="M109 266v250c0 93 -6 99 -51 108l-25 5c-8 6 -9 28 2 34c48 -2 98 -3 146 -3c49 0 98 1 146 3c8 -6 8 -28 0 -34l-24 -4c-45 -8 -51 -16 -51 -109v-231c0 -117 13 -246 165 -246c128 0 167 112 167 249v121c0 81 -4 157 -15 183c-9 21 -31 27 -58 32l-27 5
c-8 8 -6 28 0 34c54 -2 93 -3 134 -3c37 0 74 1 112 3c6 -6 8 -26 0 -34l-18 -4c-26 -6 -45 -12 -54 -33c-11 -26 -15 -102 -15 -183v-112c0 -94 -9 -180 -64 -241c-44 -47 -117 -72 -198 -72c-76 0 -144 12 -198 56c-52 43 -74 117 -74 226zM337 731l162 121
c16 12 26 17 33 17c10 0 22 -8 34 -31c12 -21 12 -36 10 -43c-2 -8 -12 -19 -32 -25l-196 -64c-8 3 -14 14 -11 25z" />
    <glyph glyph-name="Ucircumflex" unicode="&#xdb;" horiz-adv-x="740" 
d="M109 266v250c0 93 -6 99 -51 108l-25 5c-8 6 -9 28 2 34c48 -2 98 -3 146 -3c49 0 98 1 146 3c8 -6 8 -28 0 -34l-24 -4c-45 -8 -51 -16 -51 -109v-231c0 -117 13 -246 165 -246c128 0 167 112 167 249v121c0 81 -4 157 -15 183c-9 21 -31 27 -58 32l-27 5
c-8 8 -6 28 0 34c54 -2 93 -3 134 -3c37 0 74 1 112 3c6 -6 8 -26 0 -34l-18 -4c-26 -6 -45 -12 -54 -33c-11 -26 -15 -102 -15 -183v-112c0 -94 -9 -180 -64 -241c-44 -47 -117 -72 -198 -72c-76 0 -144 12 -198 56c-52 43 -74 117 -74 226zM512 706l-115 48
c-11 5 -21 6 -32 0l-114 -48c-9 0 -17 12 -13 23l121 113c14 13 31 13 44 0l121 -113c4 -11 -5 -22 -12 -23z" />
    <glyph glyph-name="Udieresis" unicode="&#xdc;" horiz-adv-x="740" 
d="M109 266v250c0 93 -6 99 -51 108l-25 5c-8 6 -9 28 2 34c48 -2 98 -3 146 -3c49 0 98 1 146 3c8 -6 8 -28 0 -34l-24 -4c-45 -8 -51 -16 -51 -109v-231c0 -117 13 -246 165 -246c128 0 167 112 167 249v121c0 81 -4 157 -15 183c-9 21 -31 27 -58 32l-27 5
c-8 8 -6 28 0 34c54 -2 93 -3 134 -3c37 0 74 1 112 3c6 -6 8 -26 0 -34l-18 -4c-26 -6 -45 -12 -54 -33c-11 -26 -15 -102 -15 -183v-112c0 -94 -9 -180 -64 -241c-44 -47 -117 -72 -198 -72c-76 0 -144 12 -198 56c-52 43 -74 117 -74 226zM286 712c-34 0 -60 20 -61 58
c0 37 26 64 61 64s60 -28 60 -59c0 -38 -25 -63 -60 -63zM495 712c-34 0 -60 20 -61 58c0 37 26 64 61 64s60 -28 60 -59c0 -38 -25 -63 -60 -63z" />
    <glyph glyph-name="Ugrave" unicode="&#xd9;" horiz-adv-x="740" 
d="M109 266v250c0 93 -6 99 -51 108l-25 5c-8 6 -9 28 2 34c48 -2 98 -3 146 -3c49 0 98 1 146 3c8 -6 8 -28 0 -34l-24 -4c-45 -8 -51 -16 -51 -109v-231c0 -117 13 -246 165 -246c128 0 167 112 167 249v121c0 81 -4 157 -15 183c-9 21 -31 27 -58 32l-27 5
c-8 8 -6 28 0 34c54 -2 93 -3 134 -3c37 0 74 1 112 3c6 -6 8 -26 0 -34l-18 -4c-26 -6 -45 -12 -54 -33c-11 -26 -15 -102 -15 -183v-112c0 -94 -9 -180 -64 -241c-44 -47 -117 -72 -198 -72c-76 0 -144 12 -198 56c-52 43 -74 117 -74 226zM290 854l162 -118
c3 -8 -3 -23 -11 -30l-196 64c-20 6 -30 17 -32 25c-2 7 -2 22 10 43c12 23 24 31 34 31c7 0 17 -4 33 -15z" />
    <glyph glyph-name="Yacute" unicode="&#xdd;" horiz-adv-x="575" 
d="M367 214v-70c0 -93 6 -101 51 -107l40 -5c7 -6 7 -29 0 -35c-65 2 -114 3 -162 3s-98 -1 -157 -3c-8 6 -8 29 0 35l34 5c45 7 51 14 51 107v50c0 50 -1 66 -27 119l-119 246c-20 41 -29 57 -64 63l-34 6c-9 8 -8 32 4 35c45 -2 82 -3 141 -3c61 0 112 1 146 3
c9 -4 11 -27 2 -35l-34 -8c-18 -4 -24 -8 -24 -9c0 -8 5 -23 26 -70l47 -107c15 -33 34 -73 46 -98c29 49 57 107 84 158c38 71 52 104 52 116c0 6 -10 10 -34 14l-23 4c-8 5 -9 30 1 35c40 -2 76 -3 112 -3c38 0 69 1 98 3c12 -4 12 -28 4 -35l-26 -5
c-18 -3 -37 -10 -48 -24c-15 -19 -40 -55 -88 -142l-63 -114c-26 -47 -36 -72 -36 -129zM245 731l162 121c16 12 26 17 33 17c10 0 22 -8 34 -31c12 -21 12 -36 10 -43c-2 -8 -12 -19 -32 -25l-196 -64c-8 3 -14 14 -11 25z" />
    <glyph glyph-name="Ydieresis" unicode="&#x178;" horiz-adv-x="575" 
d="M367 214v-70c0 -93 6 -101 51 -107l40 -5c7 -6 7 -29 0 -35c-65 2 -114 3 -162 3s-98 -1 -157 -3c-8 6 -8 29 0 35l34 5c45 7 51 14 51 107v50c0 50 -1 66 -27 119l-119 246c-20 41 -29 57 -64 63l-34 6c-9 8 -8 32 4 35c45 -2 82 -3 141 -3c61 0 112 1 146 3
c9 -4 11 -27 2 -35l-34 -8c-18 -4 -24 -8 -24 -9c0 -8 5 -23 26 -70l47 -107c15 -33 34 -73 46 -98c29 49 57 107 84 158c38 71 52 104 52 116c0 6 -10 10 -34 14l-23 4c-8 5 -9 30 1 35c40 -2 76 -3 112 -3c38 0 69 1 98 3c12 -4 12 -28 4 -35l-26 -5
c-18 -3 -37 -10 -48 -24c-15 -19 -40 -55 -88 -142l-63 -114c-26 -47 -36 -72 -36 -129zM219 712c-36 0 -63 21 -64 61c0 39 27 67 64 67s63 -29 63 -62c0 -40 -26 -66 -63 -66zM433 712c-36 0 -63 21 -64 61c0 39 27 67 64 67s63 -29 63 -62c0 -40 -26 -66 -63 -66z" />
    <glyph glyph-name="Zcaron" unicode="&#x17d;" horiz-adv-x="614" 
d="M360 614h-108c-116 0 -137 -31 -171 -115c-13 -8 -35 -4 -41 7c19 70 29 124 39 177c4 4 18 4 26 1c6 -20 11 -24 85 -24h286c69 0 100 1 117 3c5 -3 7 -9 6 -15c-16 -17 -71 -92 -150 -214l-109 -169c-101 -157 -126 -194 -126 -206c0 -8 11 -13 92 -13h93
c98 0 132 13 187 126c12 8 32 4 39 -7c-6 -55 -28 -143 -44 -168c-84 2 -139 3 -209 3h-252c-53 0 -85 -1 -101 -3c-7 3 -10 11 -8 17c15 17 62 89 92 134l197 300c18 28 66 103 84 136c7 13 10 18 10 24c0 4 -9 6 -34 6zM206 861l121 -50c13 -5 21 -7 35 -1l120 51
c9 0 15 -14 13 -26l-129 -117c-15 -13 -30 -13 -44 0l-128 117c-2 12 5 25 12 26z" />
    <glyph glyph-name="aacute" unicode="&#xe1;" horiz-adv-x="443" 
d="M378 269l-7 -132c-4 -68 25 -86 45 -86c12 0 22 3 38 12c9 -2 15 -14 12 -23c-12 -16 -59 -54 -116 -54c-35 0 -57 12 -84 35c-7 6 -11 8 -16 8s-11 -4 -21 -11c-18 -13 -48 -32 -85 -32c-58 0 -112 35 -112 105c0 51 31 82 104 104c38 12 66 20 94 28c18 5 23 12 24 20
c1 11 2 22 2 34c0 38 -15 86 -58 86c-24 0 -45 -14 -52 -57c-2 -16 -8 -25 -17 -32c-15 -11 -54 -23 -72 -23c-17 0 -23 11 -23 25c0 26 24 58 48 77c34 27 97 61 168 61c84 0 133 -42 128 -145zM249 100l2 63c1 16 0 19 -7 18c-45 -6 -84 -23 -84 -70c0 -32 23 -60 51 -60
c31 0 37 18 38 49zM186 463l91 182c11 23 21 30 31 30c11 0 22 -4 39 -16c18 -14 27 -25 27 -36s-9 -24 -22 -37l-141 -139c-14 -2 -23 4 -25 16z" />
    <glyph glyph-name="acircumflex" unicode="&#xe2;" horiz-adv-x="443" 
d="M378 269l-7 -132c-4 -68 25 -86 45 -86c12 0 22 3 38 12c9 -2 15 -14 12 -23c-12 -16 -59 -54 -116 -54c-35 0 -57 12 -84 35c-7 6 -11 8 -16 8s-11 -4 -21 -11c-18 -13 -48 -32 -85 -32c-58 0 -112 35 -112 105c0 51 31 82 104 104c38 12 66 20 94 28c18 5 23 12 24 20
c1 11 2 22 2 34c0 38 -15 86 -58 86c-24 0 -45 -14 -52 -57c-2 -16 -8 -25 -17 -32c-15 -11 -54 -23 -72 -23c-17 0 -23 11 -23 25c0 26 24 58 48 77c34 27 97 61 168 61c84 0 133 -42 128 -145zM249 100l2 63c1 16 0 19 -7 18c-45 -6 -84 -23 -84 -70c0 -32 23 -60 51 -60
c31 0 37 18 38 49zM93 468l106 191c6 11 11 13 23 13s17 -2 23 -13l106 -191c-5 -12 -18 -17 -29 -18l-80 92c-11 13 -17 19 -20 19s-10 -6 -21 -18l-80 -93c-10 1 -23 6 -28 18z" />
    <glyph glyph-name="adieresis" unicode="&#xe4;" horiz-adv-x="443" 
d="M378 269l-7 -132c-4 -68 25 -86 45 -86c12 0 22 3 38 12c9 -2 15 -14 12 -23c-12 -16 -59 -54 -116 -54c-35 0 -57 12 -84 35c-7 6 -11 8 -16 8s-11 -4 -21 -11c-18 -13 -48 -32 -85 -32c-58 0 -112 35 -112 105c0 51 31 82 104 104c38 12 66 20 94 28c18 5 23 12 24 20
c1 11 2 22 2 34c0 38 -15 86 -58 86c-24 0 -45 -14 -52 -57c-2 -16 -8 -25 -17 -32c-15 -11 -54 -23 -72 -23c-17 0 -23 11 -23 25c0 26 24 58 48 77c34 27 97 61 168 61c84 0 133 -42 128 -145zM249 100l2 63c1 16 0 19 -7 18c-45 -6 -84 -23 -84 -70c0 -32 23 -60 51 -60
c31 0 37 18 38 49zM133 482c-35 0 -62 20 -63 59c0 37 27 64 63 64c35 0 61 -28 61 -59c0 -39 -26 -64 -61 -64zM313 482c-35 0 -62 20 -63 59c0 37 27 64 63 64c35 0 61 -28 61 -59c0 -39 -26 -64 -61 -64z" />
    <glyph glyph-name="agrave" unicode="&#xe0;" horiz-adv-x="443" 
d="M378 269l-7 -132c-4 -68 25 -86 45 -86c12 0 22 3 38 12c9 -2 15 -14 12 -23c-12 -16 -59 -54 -116 -54c-35 0 -57 12 -84 35c-7 6 -11 8 -16 8s-11 -4 -21 -11c-18 -13 -48 -32 -85 -32c-58 0 -112 35 -112 105c0 51 31 82 104 104c38 12 66 20 94 28c18 5 23 12 24 20
c1 11 2 22 2 34c0 38 -15 86 -58 86c-24 0 -45 -14 -52 -57c-2 -16 -8 -25 -17 -32c-15 -11 -54 -23 -72 -23c-17 0 -23 11 -23 25c0 26 24 58 48 77c34 27 97 61 168 61c84 0 133 -42 128 -145zM249 100l2 63c1 16 0 19 -7 18c-45 -6 -84 -23 -84 -70c0 -32 23 -60 51 -60
c31 0 37 18 38 49zM191 653l91 -182c-2 -12 -11 -18 -25 -16l-141 139c-13 13 -22 26 -22 37s9 22 27 36c17 12 28 16 39 16c10 0 20 -7 31 -30z" />
    <glyph glyph-name="aring" unicode="&#xe5;" horiz-adv-x="443" 
d="M378 269l-7 -132c-4 -68 25 -86 45 -86c12 0 22 3 38 12c9 -2 15 -14 12 -23c-12 -16 -59 -54 -116 -54c-35 0 -57 12 -84 35c-7 6 -11 8 -16 8s-11 -4 -21 -11c-18 -13 -48 -32 -85 -32c-58 0 -112 35 -112 105c0 51 31 82 104 104c38 12 66 20 94 28c18 5 23 12 24 20
c1 11 2 22 2 34c0 38 -15 86 -58 86c-24 0 -45 -14 -52 -57c-2 -16 -8 -25 -17 -32c-15 -11 -54 -23 -72 -23c-17 0 -23 11 -23 25c0 26 24 58 48 77c34 27 97 61 168 61c84 0 133 -42 128 -145zM249 100l2 63c1 16 0 19 -7 18c-45 -6 -84 -23 -84 -70c0 -32 23 -60 51 -60
c31 0 37 18 38 49zM222 458c-67 0 -108 49 -108 99s41 98 108 98c68 0 108 -48 108 -98s-40 -99 -108 -99zM222 496c31 0 48 28 48 61s-17 61 -48 63c-31 -2 -48 -30 -48 -63s17 -61 48 -61z" />
    <glyph glyph-name="atilde" unicode="&#xe3;" horiz-adv-x="443" 
d="M378 269l-7 -132c-4 -68 25 -86 45 -86c12 0 22 3 38 12c9 -2 15 -14 12 -23c-12 -16 -59 -54 -116 -54c-35 0 -57 12 -84 35c-7 6 -11 8 -16 8s-11 -4 -21 -11c-18 -13 -48 -32 -85 -32c-58 0 -112 35 -112 105c0 51 31 82 104 104c38 12 66 20 94 28c18 5 23 12 24 20
c1 11 2 22 2 34c0 38 -15 86 -58 86c-24 0 -45 -14 -52 -57c-2 -16 -8 -25 -17 -32c-15 -11 -54 -23 -72 -23c-17 0 -23 11 -23 25c0 26 24 58 48 77c34 27 97 61 168 61c84 0 133 -42 128 -145zM249 100l2 63c1 16 0 19 -7 18c-45 -6 -84 -23 -84 -70c0 -32 23 -60 51 -60
c31 0 37 18 38 49zM262 510h-56c-45 0 -68 -18 -86 -49c-6 -4 -27 -2 -31 6c6 19 25 67 41 87c17 21 34 28 61 28h56c40 0 62 6 78 47c8 3 26 1 30 -5c-6 -32 -18 -63 -33 -86c-14 -21 -29 -28 -60 -28z" />
    <glyph glyph-name="ccedilla" unicode="&#xe7;" horiz-adv-x="416" 
d="M153 -106l64 94c-112 10 -186 90 -186 200c0 142 115 226 250 226c34 0 78 -7 105 -17c13 -11 21 -25 21 -52c0 -30 -14 -57 -26 -57c-5 0 -14 2 -16 5c-28 40 -67 75 -103 75c-65 0 -100 -74 -100 -143c0 -79 51 -159 143 -159c37 0 67 12 89 49c12 1 26 -6 26 -22
c-20 -45 -71 -96 -151 -105l-29 -40c-8 -10 -6 -13 9 -21c37 -20 61 -46 61 -85c0 -55 -62 -93 -127 -93c-48 0 -77 16 -77 44c0 18 13 33 32 33c28 0 46 -37 68 -37c11 0 26 9 26 25c0 32 -40 57 -76 72z" />
    <glyph glyph-name="eacute" unicode="&#xe9;" horiz-adv-x="420" 
d="M372 237h-192c-23 0 -25 -2 -25 -18c0 -75 48 -148 141 -148c28 0 66 6 93 52c11 2 26 -6 26 -23c-41 -85 -115 -114 -175 -114c-135 0 -208 95 -208 204c0 126 91 224 216 224c104 0 160 -67 160 -144c0 -19 -5 -33 -36 -33zM209 281h37c14 0 30 2 41 9c5 3 7 13 7 23
c0 33 -19 55 -53 55c-42 0 -78 -40 -78 -72c0 -14 14 -15 46 -15zM199 469l91 182c11 23 21 30 31 30c11 0 22 -4 39 -16c18 -14 27 -25 27 -36s-9 -24 -22 -37l-141 -139c-14 -2 -23 4 -25 16z" />
    <glyph glyph-name="ecircumflex" unicode="&#xea;" horiz-adv-x="420" 
d="M372 237h-192c-23 0 -25 -2 -25 -18c0 -75 48 -148 141 -148c28 0 66 6 93 52c11 2 26 -6 26 -23c-41 -85 -115 -114 -175 -114c-135 0 -208 95 -208 204c0 126 91 224 216 224c104 0 160 -67 160 -144c0 -19 -5 -33 -36 -33zM209 281h37c14 0 30 2 41 9c5 3 7 13 7 23
c0 33 -19 55 -53 55c-42 0 -78 -40 -78 -72c0 -14 14 -15 46 -15zM103 463l106 191c6 11 11 13 23 13s17 -2 23 -13l106 -191c-5 -12 -18 -17 -29 -18l-80 92c-11 13 -17 19 -20 19s-10 -6 -21 -18l-80 -93c-10 1 -23 6 -28 18z" />
    <glyph glyph-name="edieresis" unicode="&#xeb;" horiz-adv-x="420" 
d="M372 237h-192c-23 0 -25 -2 -25 -18c0 -75 48 -148 141 -148c28 0 66 6 93 52c11 2 26 -6 26 -23c-41 -85 -115 -114 -175 -114c-135 0 -208 95 -208 204c0 126 91 224 216 224c104 0 160 -67 160 -144c0 -19 -5 -33 -36 -33zM209 281h37c14 0 30 2 41 9c5 3 7 13 7 23
c0 33 -19 55 -53 55c-42 0 -78 -40 -78 -72c0 -14 14 -15 46 -15zM141 482c-35 0 -62 20 -63 59c0 37 27 64 63 64c35 0 61 -28 61 -59c0 -39 -26 -64 -61 -64zM321 482c-35 0 -62 20 -63 59c0 37 27 64 63 64c35 0 61 -28 61 -59c0 -39 -26 -64 -61 -64z" />
    <glyph glyph-name="egrave" unicode="&#xe8;" horiz-adv-x="420" 
d="M372 237h-192c-23 0 -25 -2 -25 -18c0 -75 48 -148 141 -148c28 0 66 6 93 52c11 2 26 -6 26 -23c-41 -85 -115 -114 -175 -114c-135 0 -208 95 -208 204c0 126 91 224 216 224c104 0 160 -67 160 -144c0 -19 -5 -33 -36 -33zM209 281h37c14 0 30 2 41 9c5 3 7 13 7 23
c0 33 -19 55 -53 55c-42 0 -78 -40 -78 -72c0 -14 14 -15 46 -15zM199 655l91 -182c-2 -12 -11 -18 -25 -16l-141 139c-13 13 -22 26 -22 37s9 22 27 36c17 12 28 16 39 16c10 0 20 -7 31 -30z" />
    <glyph glyph-name="iacute" unicode="&#xed;" horiz-adv-x="286" 
d="M214 300v-184c0 -70 4 -79 37 -82l19 -2c8 -6 8 -29 -1 -35c-35 2 -74 3 -120 3c-45 0 -87 -1 -120 -3c-9 6 -9 29 -1 35l19 2c33 3 37 12 37 82v151c0 40 0 52 -19 64l-14 9c-7 6 -7 24 0 30c47 13 118 40 148 58c8 0 14 -3 18 -9c-2 -30 -3 -74 -3 -119zM96 470l91 182
c11 23 21 30 31 30c11 0 22 -4 39 -16c18 -14 27 -25 27 -36s-9 -24 -22 -37l-141 -139c-14 -2 -23 4 -25 16z" />
    <glyph glyph-name="icircumflex" unicode="&#xee;" horiz-adv-x="286" 
d="M214 300v-184c0 -70 4 -79 37 -82l19 -2c8 -6 8 -29 -1 -35c-35 2 -74 3 -120 3c-45 0 -87 -1 -120 -3c-9 6 -9 29 -1 35l19 2c33 3 37 12 37 82v151c0 40 0 52 -19 64l-14 9c-7 6 -7 24 0 30c47 13 118 40 148 58c8 0 14 -3 18 -9c-2 -30 -3 -74 -3 -119zM14 473
l106 191c6 11 11 13 23 13s17 -2 23 -13l106 -191c-5 -12 -18 -17 -29 -18l-80 92c-11 13 -17 19 -20 19s-10 -6 -21 -18l-80 -93c-10 1 -23 6 -28 18z" />
    <glyph glyph-name="idieresis" unicode="&#xef;" horiz-adv-x="286" 
d="M214 300v-184c0 -70 4 -79 37 -82l19 -2c8 -6 8 -29 -1 -35c-35 2 -74 3 -120 3c-45 0 -87 -1 -120 -3c-9 6 -9 29 -1 35l19 2c33 3 37 12 37 82v151c0 40 0 52 -19 64l-14 9c-7 6 -7 24 0 30c47 13 118 40 148 58c8 0 14 -3 18 -9c-2 -30 -3 -74 -3 -119zM54 482
c-35 0 -62 20 -63 59c0 37 27 64 63 64c35 0 61 -28 61 -59c0 -39 -26 -64 -61 -64zM234 482c-35 0 -62 20 -63 59c0 37 27 64 63 64c35 0 61 -28 61 -59c0 -39 -26 -64 -61 -64z" />
    <glyph glyph-name="igrave" unicode="&#xec;" horiz-adv-x="286" 
d="M214 300v-184c0 -70 4 -79 37 -82l19 -2c8 -6 8 -29 -1 -35c-35 2 -74 3 -120 3c-45 0 -87 -1 -120 -3c-9 6 -9 29 -1 35l19 2c33 3 37 12 37 82v151c0 40 0 52 -19 64l-14 9c-7 6 -7 24 0 30c47 13 118 40 148 58c8 0 14 -3 18 -9c-2 -30 -3 -74 -3 -119zM111 655
l91 -182c-2 -12 -11 -18 -25 -16l-141 139c-13 13 -22 26 -22 37s9 22 27 36c17 12 28 16 39 16c10 0 20 -7 31 -30z" />
    <glyph glyph-name="ntilde" unicode="&#xf1;" horiz-adv-x="550" 
d="M84 116v151c0 40 0 52 -19 64l-14 9c-7 6 -7 24 0 30c47 13 119 40 148 58c8 0 14 -3 18 -9c0 -14 -3 -38 -3 -45c0 -6 2 -8 5 -8s13 5 19 8c22 13 69 40 115 40c83 0 125 -57 125 -126v-172c0 -70 4 -78 40 -82l16 -2c8 -6 8 -29 -1 -35c-31 2 -73 3 -121 3
c-40 0 -79 -1 -108 -3c-9 6 -9 29 -1 35l18 3c23 4 27 11 27 66v169c0 39 -20 71 -70 71c-28 0 -48 -13 -56 -24c-6 -7 -8 -19 -8 -37v-179c0 -55 4 -64 29 -67l16 -2c8 -6 8 -29 -1 -35c-31 2 -63 3 -111 3c-42 0 -83 -1 -118 -3c-9 6 -9 29 -1 35l16 2c36 4 40 12 40 82z
M318 520h-59c-47 0 -71 -19 -90 -51c-7 -5 -29 -3 -33 6c6 20 26 70 43 91c18 22 36 30 64 30h59c42 0 65 6 82 49c8 3 27 1 31 -5c-6 -34 -18 -66 -34 -91c-15 -22 -31 -29 -63 -29z" />
    <glyph glyph-name="oacute" unicode="&#xf3;" horiz-adv-x="516" 
d="M255 -14c-119 0 -223 68 -224 206c-1 143 112 222 230 222s224 -72 224 -213c0 -146 -107 -215 -230 -215zM255 368c-44 0 -80 -45 -80 -154c0 -105 33 -182 91 -182c57 0 76 65 75 155c-1 97 -29 181 -86 181zM204 468l91 182c11 23 21 30 31 30c11 0 22 -4 39 -16
c18 -14 27 -25 27 -36s-9 -24 -22 -37l-141 -139c-14 -2 -23 4 -25 16z" />
    <glyph glyph-name="ocircumflex" unicode="&#xf4;" horiz-adv-x="516" 
d="M255 -14c-119 0 -223 68 -224 206c-1 143 112 222 230 222s224 -72 224 -213c0 -146 -107 -215 -230 -215zM255 368c-44 0 -80 -45 -80 -154c0 -105 33 -182 91 -182c57 0 76 65 75 155c-1 97 -29 181 -86 181zM129 463l106 191c6 11 11 13 23 13s17 -2 23 -13l106 -191
c-5 -12 -18 -17 -29 -18l-80 92c-11 13 -17 19 -20 19s-10 -6 -21 -18l-80 -93c-10 1 -23 6 -28 18z" />
    <glyph glyph-name="odieresis" unicode="&#xf6;" horiz-adv-x="516" 
d="M255 -14c-119 0 -223 68 -224 206c-1 143 112 222 230 222s224 -72 224 -213c0 -146 -107 -215 -230 -215zM255 368c-44 0 -80 -45 -80 -154c0 -105 33 -182 91 -182c57 0 76 65 75 155c-1 97 -29 181 -86 181zM169 482c-35 0 -62 20 -63 59c0 37 27 64 63 64
c35 0 61 -28 61 -59c0 -39 -26 -64 -61 -64zM349 482c-35 0 -62 20 -63 59c0 37 27 64 63 64c35 0 61 -28 61 -59c0 -39 -26 -64 -61 -64z" />
    <glyph glyph-name="ograve" unicode="&#xf2;" horiz-adv-x="516" 
d="M255 -14c-119 0 -223 68 -224 206c-1 143 112 222 230 222s224 -72 224 -213c0 -146 -107 -215 -230 -215zM255 368c-44 0 -80 -45 -80 -154c0 -105 33 -182 91 -182c57 0 76 65 75 155c-1 97 -29 181 -86 181zM208 649l91 -182c-2 -12 -11 -18 -25 -16l-141 139
c-13 13 -22 26 -22 37s9 22 27 36c17 12 28 16 39 16c10 0 20 -7 31 -30z" />
    <glyph glyph-name="otilde" unicode="&#xf5;" horiz-adv-x="516" 
d="M255 -14c-119 0 -223 68 -224 206c-1 143 112 222 230 222s224 -72 224 -213c0 -146 -107 -215 -230 -215zM255 368c-44 0 -80 -45 -80 -154c0 -105 33 -182 91 -182c57 0 76 65 75 155c-1 97 -29 181 -86 181zM298 510h-56c-45 0 -68 -18 -86 -49c-6 -4 -27 -2 -31 6
c6 19 25 67 41 87c17 21 34 28 61 28h56c40 0 62 6 78 47c8 3 26 1 30 -5c-6 -32 -18 -63 -33 -86c-14 -21 -29 -28 -60 -28z" />
    <glyph glyph-name="scaron" unicode="&#x161;" horiz-adv-x="358" 
d="M164 -14c-57 0 -97 10 -124 31c-11 20 -18 68 -16 113c6 10 28 11 34 2c13 -41 51 -100 102 -100c30 0 52 18 52 52c0 37 -32 58 -66 75c-60 30 -103 66 -103 126c0 87 73 129 159 129c51 0 96 -13 107 -21c10 -22 15 -62 15 -100c-4 -11 -29 -11 -35 -4
c-20 58 -45 79 -78 79c-29 0 -50 -17 -50 -44c0 -23 19 -42 64 -64c68 -33 110 -75 110 -140c-1 -89 -77 -134 -171 -134zM327 660l-106 -191c-6 -11 -11 -13 -23 -13s-17 2 -23 13l-106 191c5 12 18 17 29 18l80 -92c11 -13 17 -19 20 -19s10 6 21 18l80 93
c10 -1 23 -6 28 -18z" />
    <glyph glyph-name="uacute" unicode="&#xfa;" horiz-adv-x="544" 
d="M471 314v-182c0 -59 3 -85 27 -85c13 0 28 4 40 8c9 -2 10 -38 -3 -43c-98 -4 -182 -36 -185 -36c-7 1 -11 6 -12 12c2 12 3 28 3 36c0 6 -5 10 -11 10c-39 -25 -74 -48 -136 -48c-83 0 -117 43 -117 128v170c0 53 -6 58 -30 65l-13 4c-7 9 -6 28 4 35c33 1 68 4 97 9
c30 5 59 17 63 17c6 0 11 -7 12 -12c-2 -25 -3 -52 -3 -88v-165c0 -48 7 -90 71 -90c28 0 44 13 52 19c7 5 11 20 11 30v189c0 40 -7 49 -43 54l-14 2c-8 7 -7 31 5 35c36 2 72 6 104 10c35 5 65 16 71 16c4 0 9 -5 10 -12c-1 -18 -3 -51 -3 -88zM225 473l91 182
c11 23 21 30 31 30c11 0 22 -4 39 -16c18 -14 27 -25 27 -36s-9 -24 -22 -37l-141 -139c-14 -2 -23 4 -25 16z" />
    <glyph glyph-name="ucircumflex" unicode="&#xfb;" horiz-adv-x="544" 
d="M471 314v-182c0 -59 3 -85 27 -85c13 0 28 4 40 8c9 -2 10 -38 -3 -43c-98 -4 -182 -36 -185 -36c-7 1 -11 6 -12 12c2 12 3 28 3 36c0 6 -5 10 -11 10c-39 -25 -74 -48 -136 -48c-83 0 -117 43 -117 128v170c0 53 -6 58 -30 65l-13 4c-7 9 -6 28 4 35c33 1 68 4 97 9
c30 5 59 17 63 17c6 0 11 -7 12 -12c-2 -25 -3 -52 -3 -88v-165c0 -48 7 -90 71 -90c28 0 44 13 52 19c7 5 11 20 11 30v189c0 40 -7 49 -43 54l-14 2c-8 7 -7 31 5 35c36 2 72 6 104 10c35 5 65 16 71 16c4 0 9 -5 10 -12c-1 -18 -3 -51 -3 -88zM143 472l106 191
c6 11 11 13 23 13s17 -2 23 -13l106 -191c-5 -12 -18 -17 -29 -18l-80 92c-11 13 -17 19 -20 19s-10 -6 -21 -18l-80 -93c-10 1 -23 6 -28 18z" />
    <glyph glyph-name="udieresis" unicode="&#xfc;" horiz-adv-x="544" 
d="M471 314v-182c0 -59 3 -85 27 -85c13 0 28 4 40 8c9 -2 10 -38 -3 -43c-98 -4 -182 -36 -185 -36c-7 1 -11 6 -12 12c2 12 3 28 3 36c0 6 -5 10 -11 10c-39 -25 -74 -48 -136 -48c-83 0 -117 43 -117 128v170c0 53 -6 58 -30 65l-13 4c-7 9 -6 28 4 35c33 1 68 4 97 9
c30 5 59 17 63 17c6 0 11 -7 12 -12c-2 -25 -3 -52 -3 -88v-165c0 -48 7 -90 71 -90c28 0 44 13 52 19c7 5 11 20 11 30v189c0 40 -7 49 -43 54l-14 2c-8 7 -7 31 5 35c36 2 72 6 104 10c35 5 65 16 71 16c4 0 9 -5 10 -12c-1 -18 -3 -51 -3 -88zM183 482
c-35 0 -62 20 -63 59c0 37 27 64 63 64c35 0 61 -28 61 -59c0 -39 -26 -64 -61 -64zM363 482c-35 0 -62 20 -63 59c0 37 27 64 63 64c35 0 61 -28 61 -59c0 -39 -26 -64 -61 -64z" />
    <glyph glyph-name="ugrave" unicode="&#xf9;" horiz-adv-x="544" 
d="M471 314v-182c0 -59 3 -85 27 -85c13 0 28 4 40 8c9 -2 10 -38 -3 -43c-98 -4 -182 -36 -185 -36c-7 1 -11 6 -12 12c2 12 3 28 3 36c0 6 -5 10 -11 10c-39 -25 -74 -48 -136 -48c-83 0 -117 43 -117 128v170c0 53 -6 58 -30 65l-13 4c-7 9 -6 28 4 35c33 1 68 4 97 9
c30 5 59 17 63 17c6 0 11 -7 12 -12c-2 -25 -3 -52 -3 -88v-165c0 -48 7 -90 71 -90c28 0 44 13 52 19c7 5 11 20 11 30v189c0 40 -7 49 -43 54l-14 2c-8 7 -7 31 5 35c36 2 72 6 104 10c35 5 65 16 71 16c4 0 9 -5 10 -12c-1 -18 -3 -51 -3 -88zM237 644l91 -182
c-2 -12 -11 -18 -25 -16l-141 139c-13 13 -22 26 -22 37s9 22 27 36c17 12 28 16 39 16c10 0 20 -7 31 -30z" />
    <glyph glyph-name="yacute" unicode="&#xfd;" horiz-adv-x="469" 
d="M12 365l-18 3c-7 7 -7 31 3 35c36 -2 79 -3 132 -3c37 0 75 1 112 3c10 -4 11 -28 3 -35l-20 -4c-28 -6 -30 -10 -30 -19c0 -12 11 -38 30 -89c11 -28 33 -89 45 -114c11 21 21 44 31 66l18 41c21 48 37 90 37 101c0 7 -10 12 -22 14l-20 4c-9 7 -8 32 3 35
c22 -2 52 -3 97 -3c26 0 52 1 78 3c10 -4 11 -29 2 -35l-19 -2c-20 -2 -37 -10 -46 -22c-12 -16 -37 -59 -59 -105l-53 -109c-35 -72 -116 -241 -152 -315c-21 -45 -49 -65 -86 -66c-54 -1 -64 33 -64 60c0 30 22 52 57 52h24c24 0 39 8 49 21c11 15 19 34 29 55
c6 12 14 30 14 42c0 13 -3 32 -19 73l-96 242c-19 48 -28 66 -60 71zM218 467l91 182c11 23 21 30 31 30c11 0 22 -4 39 -16c18 -14 27 -25 27 -36s-9 -24 -22 -37l-141 -139c-14 -2 -23 4 -25 16z" />
    <glyph glyph-name="ydieresis" unicode="&#xff;" horiz-adv-x="469" 
d="M12 365l-18 3c-7 7 -7 31 3 35c36 -2 79 -3 132 -3c37 0 75 1 112 3c10 -4 11 -28 3 -35l-20 -4c-28 -6 -30 -10 -30 -19c0 -12 11 -38 30 -89c11 -28 33 -89 45 -114c11 21 21 44 31 66l18 41c21 48 37 90 37 101c0 7 -10 12 -22 14l-20 4c-9 7 -8 32 3 35
c22 -2 52 -3 97 -3c26 0 52 1 78 3c10 -4 11 -29 2 -35l-19 -2c-20 -2 -37 -10 -46 -22c-12 -16 -37 -59 -59 -105l-53 -109c-35 -72 -116 -241 -152 -315c-21 -45 -49 -65 -86 -66c-54 -1 -64 33 -64 60c0 30 22 52 57 52h24c24 0 39 8 49 21c11 15 19 34 29 55
c6 12 14 30 14 42c0 13 -3 32 -19 73l-96 242c-19 48 -28 66 -60 71zM161 492c-35 0 -62 20 -63 59c0 37 27 64 63 64c35 0 61 -28 61 -59c0 -39 -26 -64 -61 -64zM347 492c-35 0 -62 20 -63 59c0 37 27 64 63 64c35 0 61 -28 61 -59c0 -39 -26 -64 -61 -64z" />
    <glyph glyph-name="zcaron" unicode="&#x17e;" horiz-adv-x="415" 
d="M223 0h-97c-54 0 -81 -1 -97 -3c-6 2 -9 9 -7 16c16 24 60 94 88 144l93 165c8 15 11 24 11 29c0 3 -6 5 -28 5h-31c-36 0 -58 -4 -71 -19c-8 -8 -22 -28 -32 -58c-9 -8 -31 -3 -36 8c6 40 21 107 31 132c5 5 17 5 21 0c3 -16 5 -19 56 -19h180c43 0 71 1 83 3
c4 -2 7 -9 6 -13c-19 -26 -39 -63 -71 -117l-107 -182c-12 -21 -18 -34 -18 -41c0 -5 11 -6 40 -6h24c43 0 77 7 94 34c7 10 17 28 30 54c8 8 31 5 36 -5c-3 -38 -25 -111 -38 -130c-82 2 -114 3 -160 3zM343 660l-106 -191c-6 -11 -11 -13 -23 -13s-17 2 -23 13l-106 191
c5 12 18 17 29 18l80 -92c11 -13 17 -19 20 -19s10 6 21 18l80 93c10 -1 23 -6 28 -18z" />
    <glyph glyph-name="dollaroldstyle" unicode="&#xf724;" horiz-adv-x="461" 
d="M222 285l17 113c-63 -1 -84 -26 -84 -57c0 -26 27 -44 67 -56zM247 164l-21 -134c52 2 87 26 87 63c0 30 -18 55 -66 71zM283 394l-19 -121l11 -3c82 -22 152 -64 152 -144c0 -85 -76 -136 -208 -139l-11 -72c-6 -7 -39 -7 -44 0l12 73c-56 4 -99 24 -115 33
c-17 15 -27 66 -27 128c8 10 28 11 34 1c14 -44 51 -100 115 -116l22 143l-5 1c-82 16 -147 56 -147 130c0 82 70 132 193 134l9 56c5 10 39 10 44 0l-9 -58c36 -4 65 -13 96 -19c8 -16 19 -55 18 -118c-5 -10 -27 -10 -34 -1c-12 39 -34 79 -87 92z" />
    <glyph glyph-name="dollarsuperior" unicode="&#xf6e4;" 
d="M215 467l-18 -114c45 0 72 22 72 54c0 33 -27 50 -54 60zM193 573l15 98c-52 -1 -72 -23 -72 -50c0 -22 23 -38 57 -48zM246 665l-16 -104l7 -2c73 -21 127 -60 127 -123c0 -76 -66 -119 -173 -121l-10 -62c-5 -7 -33 -7 -38 0l10 65c-44 4 -83 18 -94 28
c-15 20 -23 64 -23 106c4 10 22 13 31 4c9 -37 39 -84 92 -99l19 121c-75 20 -127 54 -127 112c0 72 58 115 163 118l7 47c5 9 34 9 39 0l-7 -49c29 -2 51 -10 80 -13c7 -16 13 -50 12 -100c-4 -9 -22 -10 -29 -1c-4 17 -24 58 -70 73z" />
    <glyph glyph-name="parenleftsuperior" unicode="&#x207d;" horiz-adv-x="240" 
d="M36 508c0 113 62 211 170 260c8 -1 17 -10 14 -20c-43 -49 -87 -129 -87 -240s44 -191 87 -240c3 -10 -6 -19 -14 -20c-108 49 -170 147 -170 260z" />
    <glyph glyph-name="parenrightsuperior" unicode="&#x207e;" horiz-adv-x="240" 
d="M204 508c0 -113 -62 -211 -170 -260c-8 1 -17 10 -14 20c43 49 87 129 87 240s-44 191 -87 240c-3 10 6 19 14 20c108 -49 170 -147 170 -260z" />
    <glyph glyph-name="twodotenleader" unicode="&#x2025;" horiz-adv-x="500" 
d="M125 -14c-40 0 -81 32 -81 81c0 47 36 83 81 83c48 0 81 -40 81 -83c0 -46 -33 -81 -81 -81zM375 -14c-40 0 -81 32 -81 81c0 47 36 83 81 83c48 0 81 -40 81 -83c0 -46 -33 -81 -81 -81z" />
    <glyph glyph-name="onedotenleader" unicode="&#x2024;" horiz-adv-x="500" 
d="M250 -14c-40 0 -81 32 -81 81c0 47 36 83 81 83c48 0 81 -40 81 -83c0 -46 -33 -81 -81 -81z" />
    <glyph glyph-name="zerooldstyle" unicode="&#xf730;" horiz-adv-x="540" 
d="M270 442c141 0 234 -99 234 -228s-93 -228 -234 -228s-234 99 -234 228s93 228 234 228zM147 214c0 -94 52 -154 123 -154s123 60 123 154s-52 154 -123 154s-123 -60 -123 -154z" />
    <glyph glyph-name="oneoldstyle" unicode="&#xf731;" horiz-adv-x="388" 
d="M128 129v170c0 75 -9 90 -51 95l-31 4c-8 7 -8 29 2 33c37 -2 84 -3 144 -3c62 0 112 1 146 3c10 -4 10 -26 2 -33l-31 -4c-42 -5 -51 -20 -51 -95v-170c0 -75 9 -89 51 -94l41 -5c8 -7 8 -29 -2 -33c-37 2 -87 3 -156 3c-70 0 -117 -1 -154 -3c-10 4 -10 26 -2 33l41 5
c42 5 51 19 51 94z" />
    <glyph glyph-name="twooldstyle" unicode="&#xf732;" horiz-adv-x="486" 
d="M245 91h82c63 0 102 2 132 54c11 6 26 2 34 -7c-24 -49 -45 -105 -62 -141c-52 2 -96 3 -124 3h-156c-38 0 -93 -1 -110 -3c-7 4 -10 15 -7 23c41 25 76 54 129 104c39 37 75 89 75 147c0 54 -29 88 -76 88c-37 0 -72 -24 -105 -81c-13 -4 -29 6 -30 21
c39 88 112 143 200 143c100 0 156 -58 156 -137c0 -86 -94 -145 -159 -202c1 -9 11 -12 21 -12z" />
    <glyph glyph-name="threeoldstyle" unicode="&#xf733;" horiz-adv-x="416" 
d="M237 17c0 54 -18 95 -43 116c-12 9 -30 15 -43 15c-20 0 -45 -15 -65 -32c-18 -2 -29 26 -21 48c66 27 148 60 148 142c0 34 -22 63 -58 63c-25 0 -51 -14 -85 -68c-16 -4 -31 8 -31 25c31 60 89 116 176 116c82 0 135 -45 135 -113c0 -31 -22 -69 -84 -99
c-13 -6 -14 -11 -14 -15s6 -8 17 -11c65 -16 101 -69 101 -130c0 -77 -45 -143 -112 -192c-59 -43 -132 -70 -179 -70c-33 0 -48 25 -48 47c0 18 9 31 24 31c13 0 42 -10 73 -10c57 0 109 27 109 137z" />
    <glyph glyph-name="fouroldstyle" unicode="&#xf734;" horiz-adv-x="522" 
d="M495 13h-80c-23 0 -23 -3 -23 -31v-159c-4 -6 -33 -9 -63 -9c-27 0 -51 3 -56 9v159c0 28 0 31 -22 31h-223c-8 6 -12 19 -10 31l61 71c33 38 242 299 263 323c5 1 13 4 22 4c10 0 22 -8 28 -19v-322c0 -27 0 -28 23 -28h84c7 -5 11 -14 11 -24c0 -11 -4 -31 -15 -36z
M139 73h112c22 0 22 1 22 28v172h-2l-144 -182c-6 -8 -2 -18 12 -18z" />
    <glyph glyph-name="fiveoldstyle" unicode="&#xf735;" horiz-adv-x="409" 
d="M299 323l-135 -14c-36 -4 -44 -8 -44 -20c0 -9 13 -21 70 -47c108 -49 148 -115 148 -193c0 -151 -170 -225 -268 -247c-17 3 -21 25 -12 35c57 19 164 69 164 169c0 61 -41 101 -93 128c-22 12 -74 39 -74 93c0 56 54 169 89 181c14 5 39 9 65 12l104 11
c23 2 43 6 55 14c10 0 17 -6 16 -13c-8 -25 -30 -103 -85 -109z" />
    <glyph glyph-name="sixoldstyle" unicode="&#xf736;" horiz-adv-x="523" 
d="M514 639c7 -4 8 -21 4 -27c-60 -25 -130 -52 -198 -113c-90 -79 -134 -182 -134 -301c0 -102 43 -166 97 -166c38 0 73 26 73 105c0 82 -33 162 -98 162c-6 0 -9 -1 -14 -2c-8 5 -12 20 -5 28c39 25 73 34 105 34c82 0 143 -66 143 -163c0 -133 -106 -210 -226 -210
c-138 0 -216 87 -216 224c0 252 245 413 469 429z" />
    <glyph glyph-name="sevenoldstyle" unicode="&#xf737;" horiz-adv-x="504" 
d="M170 428h175c59 0 131 -1 146 3c5 -2 8 -10 7 -16c-29 -40 -74 -114 -137 -221l-232 -391c-3 -2 -7 -1 -13 -1c-16 0 -35 13 -40 29l247 410c18 30 29 54 29 68c0 11 -8 15 -27 15h-170c-65 0 -79 -11 -107 -58c-12 -5 -27 5 -30 15c23 48 42 112 51 150
c21 -2 63 -3 101 -3z" />
    <glyph glyph-name="eightoldstyle" unicode="&#xf738;" horiz-adv-x="477" 
d="M245 621c117 0 188 -59 188 -156c0 -67 -52 -113 -109 -144c67 -44 111 -95 111 -172c0 -91 -67 -163 -204 -163c-102 0 -189 49 -189 152c0 71 47 121 114 159c-58 34 -105 83 -105 154c0 95 76 170 194 170zM211 258c-37 -33 -50 -76 -50 -122c0 -60 35 -104 79 -104
c41 0 70 30 70 82c0 71 -50 116 -99 144zM319 477c0 52 -28 98 -76 98c-40 0 -73 -34 -73 -87c0 -50 39 -95 108 -131c27 30 41 72 41 120z" />
    <glyph glyph-name="nineoldstyle" unicode="&#xf739;" horiz-adv-x="511" 
d="M42 -198c-9 5 -10 23 -5 30c63 17 112 41 145 69c48 40 145 142 145 336c0 99 -35 159 -79 159c-46 0 -73 -48 -73 -114c0 -48 15 -110 56 -136c13 -9 26 -8 40 -7c6 -6 6 -18 3 -26c-18 -11 -49 -26 -80 -26c-96 0 -155 63 -155 153c0 120 98 202 221 202
c137 0 206 -92 206 -224c0 -103 -40 -219 -139 -306c-66 -57 -163 -103 -285 -110z" />
    <glyph glyph-name="commasuperior" unicode="&#xf6e2;" horiz-adv-x="200" 
d="M177 347c0 -84 -67 -132 -140 -149c-15 2 -19 21 -9 27c32 12 75 41 75 83c0 37 -28 48 -49 55c-14 4 -26 19 -26 39c0 30 27 54 61 54c37 0 88 -30 88 -109z" />
    <glyph glyph-name="threequartersemdash" unicode="&#xf6de;" horiz-adv-x="750" 
d="M0 242h750v-69h-750v69z" />
    <glyph glyph-name="periodsuperior" unicode="&#xf6e8;" horiz-adv-x="200" 
d="M100 308c-33 0 -65 25 -65 66c0 39 28 67 65 67c39 0 65 -31 65 -67c0 -38 -26 -66 -65 -66z" />
    <glyph glyph-name="asuperior" unicode="&#xf6e9;" horiz-adv-x="374" 
d="M196 608c78 0 115 -26 112 -97l-5 -107c-2 -35 11 -50 29 -50c10 0 18 3 27 7c8 -1 14 -9 9 -21c-16 -18 -55 -32 -81 -32c-22 0 -47 5 -62 19c-6 6 -13 10 -16 10s-9 -4 -21 -12c-13 -7 -38 -17 -61 -17c-71 0 -95 44 -95 76c0 30 14 57 55 70c48 16 78 24 101 30
c18 5 21 12 22 19v10c0 29 -10 60 -44 60c-20 0 -31 -11 -34 -32c-2 -14 -7 -24 -16 -31c-12 -7 -35 -15 -59 -15c-16 0 -25 8 -25 17c0 12 5 28 31 51c25 21 79 45 133 45zM132 394c0 -19 17 -39 40 -39s32 13 33 28l3 49c1 12 -2 19 -8 19c-8 0 -18 -1 -28 -5
c-21 -9 -40 -21 -40 -52z" />
    <glyph glyph-name="bsuperior" unicode="&#xf6ea;" horiz-adv-x="431" 
d="M172 676v-70c0 -12 1 -16 6 -18c19 10 47 20 75 20c88 0 144 -62 144 -144c0 -98 -78 -156 -188 -156c-31 0 -61 5 -80 12c-12 5 -18 7 -24 7c-5 0 -18 -6 -24 -11c-6 0 -13 2 -18 7c1 9 2 31 2 68v276c0 28 0 38 -15 45l-14 7c-5 5 -5 20 0 25c35 7 81 23 125 39
c5 0 10 -2 13 -5c-2 -29 -2 -58 -2 -102zM172 521v-99c0 -18 4 -39 14 -55c9 -13 23 -23 37 -23c44 0 61 44 61 102c0 67 -37 114 -82 114c-8 0 -17 -2 -23 -8c-5 -3 -7 -9 -7 -31z" />
    <glyph glyph-name="centsuperior" unicode="&#xf6e0;" 
d="M208 406l40 239c-1 1 -4 1 -7 1c-65 0 -88 -73 -88 -125c0 -55 20 -95 55 -115zM285 632l-41 -239c8 -2 16 -3 25 -3c38 0 76 24 92 53c11 1 22 -6 22 -16c-24 -47 -72 -90 -149 -92l-13 -77c-7 -11 -32 -11 -38 0l13 78c-96 11 -158 75 -158 162c0 123 105 184 216 185
l11 62c7 9 31 9 39 0l-11 -64c21 -2 43 -6 58 -11c8 -6 20 -24 20 -46s-13 -40 -24 -40c-4 0 -9 2 -11 3c-16 15 -31 34 -50 47c-1 0 -1 -1 -1 -2z" />
    <glyph glyph-name="dsuperior" unicode="&#xf6eb;" horiz-adv-x="432" 
d="M367 676v-244c0 -61 4 -77 18 -77s20 1 33 5c8 -6 8 -27 0 -34c-78 -4 -143 -25 -145 -25c-6 0 -12 4 -13 10l2 22c-1 5 -4 7 -7 5c-11 -7 -23 -15 -36 -21c-13 -5 -27 -9 -42 -9c-85 0 -143 62 -143 139c0 97 80 161 181 161c10 0 29 -1 37 -3c5 1 8 5 8 13v54
c0 28 0 36 -15 42l-13 5c-7 4 -6 21 0 25c38 7 85 24 125 39c5 0 10 -1 13 -4c-2 -29 -3 -59 -3 -103zM260 393v129c0 11 -3 18 -6 24c-9 15 -20 26 -39 26c-30 0 -66 -37 -66 -107c0 -46 23 -107 76 -107c11 0 20 3 27 7c7 6 8 15 8 28z" />
    <glyph glyph-name="esuperior" unicode="&#xf6ec;" horiz-adv-x="360" 
d="M298 475h-160c-13 0 -16 -2 -16 -10c0 -29 28 -82 105 -82c34 0 58 8 80 38c10 2 19 -1 22 -12c-30 -78 -94 -101 -146 -101c-106 1 -147 76 -147 142c0 86 66 158 159 158c82 0 133 -51 133 -109c0 -13 -4 -24 -30 -24zM148 511h46c12 0 24 2 28 5c4 4 6 11 6 17
c0 22 -16 39 -42 39c-38 0 -59 -38 -59 -51c0 -8 5 -10 21 -10z" />
    <glyph glyph-name="isuperior" unicode="&#xf6ed;" horiz-adv-x="252" 
d="M129 783c35 0 59 -29 59 -62c0 -41 -32 -63 -63 -63c-37 0 -60 29 -60 62c0 35 29 63 64 63zM182 524v-123c0 -46 3 -53 29 -57l14 -2c9 -5 7 -26 -1 -29c-39 1 -70 2 -99 2c-31 0 -62 -1 -92 -2c-8 3 -10 25 -1 29l14 2c26 4 29 11 29 57v105c0 24 0 33 -17 42l-11 6
c-6 5 -6 20 0 25c41 10 88 25 124 39c7 1 13 -2 13 -10c-1 -20 -2 -54 -2 -84z" />
    <glyph glyph-name="lsuperior" unicode="&#xf6ee;" horiz-adv-x="247" 
d="M70 400v259c0 44 -1 48 -20 60l-8 5c-7 5 -7 21 0 25c40 7 90 23 123 34c6 1 12 -2 14 -8c-2 -26 -2 -71 -2 -102v-273c0 -45 3 -53 29 -56l17 -2c9 -5 8 -26 -1 -29c-39 1 -75 2 -104 2c-32 0 -60 -1 -92 -2c-9 5 -11 24 -1 29l16 2c26 3 29 11 29 56z" />
    <glyph glyph-name="msuperior" unicode="&#xf6ef;" horiz-adv-x="651" 
d="M581 512v-111c0 -45 3 -55 24 -57l18 -2c7 -3 6 -26 -1 -29c-36 2 -62 2 -91 2c-25 0 -52 0 -79 -2c-10 3 -11 24 -3 29l11 2c10 2 14 12 14 37v116c0 34 -17 58 -47 58c-18 0 -30 -7 -38 -17c-9 -9 -10 -23 -10 -46v-91c0 -45 3 -52 20 -56l14 -3c8 -7 7 -24 -1 -29
c-28 2 -54 2 -83 2c-25 0 -52 0 -79 -2c-10 3 -11 24 -3 29l11 2c10 2 14 12 14 37v116c0 34 -17 58 -46 58c-19 0 -31 -7 -40 -16c-8 -8 -9 -21 -9 -47v-111c0 -25 3 -36 12 -37l15 -2c7 -4 3 -26 -5 -29c-27 2 -54 2 -83 2c-25 0 -52 0 -86 -2c-9 3 -9 24 -2 29l17 2
c22 3 25 12 25 57v101c0 28 0 37 -20 48l-9 5c-6 5 -6 19 1 24c44 9 97 26 127 39c8 0 12 -3 13 -8c-1 -13 -2 -25 -2 -31c0 -5 2 -6 7 -7c28 18 55 36 93 36c45 0 72 -16 88 -43l14 9c23 15 59 34 99 34c69 0 100 -40 100 -96z" />
    <glyph glyph-name="nsuperior" unicode="&#x207f;" horiz-adv-x="449" 
d="M177 492v-111c0 -25 3 -35 12 -37l11 -2c9 -4 8 -26 -1 -29c-27 2 -54 2 -83 2c-25 0 -52 0 -86 -2c-9 3 -9 24 -2 29l17 2c22 3 25 12 25 57v101c0 28 0 37 -20 48l-9 5c-6 5 -6 19 1 24c41 9 94 26 124 39c8 0 12 -3 13 -8c-1 -13 -2 -25 -2 -31c0 -5 2 -6 7 -7
c28 18 55 36 95 36c69 0 100 -40 100 -96v-111c0 -45 3 -55 24 -57l18 -2c7 -3 6 -26 -1 -29c-36 2 -62 2 -91 2c-25 0 -52 0 -79 -2c-10 3 -11 24 -3 29l11 2c10 2 14 12 14 37v116c0 34 -17 58 -47 58c-18 0 -30 -7 -39 -16c-8 -8 -9 -21 -9 -47z" />
    <glyph glyph-name="osuperior" unicode="&#xf6f0;" horiz-adv-x="404" 
d="M205 608c98 0 166 -58 166 -148c0 -101 -76 -152 -171 -152c-93 0 -166 50 -166 143c0 102 80 157 171 157zM257 438c0 76 -18 134 -56 134c-29 0 -53 -31 -53 -99c0 -79 22 -129 59 -129c34 0 50 44 50 94z" />
    <glyph glyph-name="rsuperior" unicode="&#xf6f1;" horiz-adv-x="310" 
d="M70 400v102c0 28 0 37 -17 48l-12 8c-4 4 -3 18 1 21c58 10 100 26 123 39c5 0 9 -2 11 -7c-1 -13 -2 -26 -2 -32c0 -5 3 -9 8 -9c24 16 48 38 77 38c28 0 46 -18 46 -46c0 -34 -27 -49 -45 -49c-15 0 -22 3 -30 8c-27 18 -36 19 -42 19c-9 0 -11 -16 -11 -45v-91
c0 -49 3 -56 30 -59l30 -3c7 -4 6 -26 -1 -29c-43 1 -83 2 -118 2c-25 0 -55 -1 -90 -2c-7 3 -8 26 -1 29l14 2c26 4 29 11 29 56z" />
    <glyph glyph-name="ssuperior" unicode="&#xf6f2;" horiz-adv-x="310" 
d="M171 608c42 0 76 -13 88 -18c7 -16 13 -46 12 -74c-6 -8 -26 -10 -32 -3c-17 41 -43 59 -71 59c-23 0 -37 -11 -37 -26c0 -19 21 -28 65 -42c56 -18 84 -54 84 -98c0 -65 -58 -98 -137 -98c-48 0 -80 12 -99 26c-9 12 -15 57 -14 82c5 9 26 9 30 2c15 -42 48 -74 90 -74
c23 0 37 14 37 32s-10 32 -56 48c-42 14 -91 38 -91 90c0 61 55 94 131 94z" />
    <glyph glyph-name="tsuperior" unicode="&#xf6f3;" horiz-adv-x="280" 
d="M261 558h-70c-14 0 -14 -2 -14 -25v-93c0 -49 10 -80 49 -80c14 0 29 5 41 13c9 -2 14 -16 10 -26c-23 -20 -58 -39 -114 -39c-67 0 -93 35 -93 81v147c0 21 -1 22 -14 22h-27c-8 3 -9 23 -2 27c27 9 48 19 65 30c15 10 32 25 55 44c7 8 26 5 30 -3v-43
c0 -12 0 -14 15 -14h73c5 -2 6 -8 6 -15c-1 -12 -4 -20 -10 -26z" />
    <glyph glyph-name="parenleftinferior" unicode="&#x208d;" horiz-adv-x="240" 
d="M36 28c0 113 62 211 170 260c8 -1 17 -10 14 -20c-43 -49 -87 -129 -87 -240s44 -191 87 -240c3 -10 -6 -19 -14 -20c-108 49 -170 147 -170 260z" />
    <glyph glyph-name="parenrightinferior" unicode="&#x208e;" horiz-adv-x="240" 
d="M204 28c0 -113 -62 -211 -170 -260c-8 1 -17 10 -14 20c43 49 87 129 87 240s-44 191 -87 240c-3 10 6 19 14 20c108 -49 170 -147 170 -260z" />
    <glyph glyph-name="hyphensuperior" unicode="&#xf6e6;" horiz-adv-x="280" 
d="M245 483h-209c-15 11 -15 56 0 64h209c14 -8 14 -53 0 -64z" />
    <glyph glyph-name="colonmonetary" unicode="&#x20a1;" horiz-adv-x="613" 
d="M237 119l116 477c-85 -15 -170 -98 -170 -281c0 -79 19 -148 54 -196zM394 598l-124 -515c14 -13 31 -23 49 -30l129 532c-16 8 -34 12 -54 13zM515 694l-17 -67c28 -6 47 -11 58 -14c-1 -14 5 -88 11 -143c-9 -10 -24 -10 -30 -1c-12 40 -29 72 -54 94l-125 -520
c5 -2 10 -2 16 -2c90 0 149 81 176 140c8 7 26 6 29 -4c-11 -66 -30 -121 -42 -146c-45 -11 -100 -31 -165 -31c-8 0 -17 0 -24 2l-17 -67c-9 -6 -32 -6 -41 0l17 70c-18 2 -35 6 -53 11l-20 -81c-9 -6 -32 -6 -41 0l23 95c-123 48 -174 164 -174 283c0 113 48 196 108 246
c58 49 134 76 213 79l14 56c8 7 33 7 41 0l-14 -55c21 0 39 -3 56 -5l14 60c8 7 33 7 41 0z" />
    <glyph glyph-name="rupiah" unicode="&#xf6dd;" horiz-adv-x="1098" 
d="M255 546v-186c0 -34 3 -37 55 -37c34 0 54 10 72 27s36 48 36 103c0 88 -51 141 -124 141c-37 0 -39 -6 -39 -48zM650 31v223c0 38 0 48 -18 60l-13 9c-7 6 -7 23 0 29c42 11 110 41 139 59c6 1 16 -2 20 -11c-2 -11 -2 -22 -2 -31c0 -7 3 -13 7 -14c27 15 69 38 119 38
c100 0 160 -79 160 -181c0 -133 -94 -225 -232 -225c-13 0 -33 1 -40 3c-9 -2 -14 -8 -14 -28v-100c0 -67 3 -76 35 -78l32 -2c8 -6 8 -27 -1 -33c-47 2 -87 3 -132 3c-39 0 -79 -1 -113 -3c-8 6 -8 27 -1 33l19 1c32 2 35 12 35 79v129c-18 -1 -35 -1 -55 -1
c-88 0 -139 31 -177 95c-37 61 -59 109 -84 164c-11 23 -23 30 -46 30c-31 0 -33 -2 -33 -24v-116c0 -94 6 -103 50 -107l23 -2c7 -6 7 -27 0 -33c-48 2 -98 3 -145 3c-43 0 -84 -1 -132 -3c-7 6 -7 27 0 33l23 2c44 4 49 13 49 107v342c0 102 -2 115 -42 117l-20 1
c-10 5 -10 32 2 33c64 5 131 8 230 8c83 0 153 -13 192 -35c52 -30 80 -79 80 -142c0 -89 -59 -128 -105 -150c-7 -4 -5 -13 -1 -22c61 -124 100 -200 156 -244c10 -8 21 -13 35 -16zM776 259v-157c0 -21 7 -41 20 -53c10 -11 28 -18 45 -18c58 -1 88 62 88 150
c0 94 -46 147 -105 147c-16 0 -30 -4 -38 -14c-5 -5 -10 -18 -10 -55z" />
    <glyph glyph-name="centoldstyle" unicode="&#xf7a2;" horiz-adv-x="434" 
d="M228 93l36 261c-73 -1 -96 -82 -96 -139c0 -56 22 -101 60 -122zM306 343l-37 -265c6 -1 14 -2 22 -2c41 0 82 26 100 61c11 0 23 -6 23 -16c-24 -53 -65 -98 -153 -102l-12 -84c-10 -10 -35 -10 -43 0l12 85c-105 10 -173 79 -173 174c0 130 106 196 225 199l9 66
c9 7 31 7 43 0l-9 -67c24 -2 51 -6 69 -12c8 -7 21 -26 21 -50s-14 -43 -26 -43c-4 0 -9 2 -11 4c-20 20 -38 40 -60 52z" />
    <glyph glyph-name="figuredash" unicode="&#x2012;" horiz-adv-x="520" 
d="M42 349h436v-69h-436v69z" />
    <glyph glyph-name="hypheninferior" unicode="&#xf6e5;" horiz-adv-x="280" 
d="M245 3h-209c-15 11 -15 56 0 64h209c14 -8 14 -53 0 -64z" />
    <glyph glyph-name="oneeighth" unicode="&#x215b;" horiz-adv-x="840" 
d="M632 -7c-84 0 -152 29 -152 102c0 44 35 80 81 92c-39 21 -68 53 -68 93c0 63 48 113 148 113c86 0 138 -35 138 -101c0 -43 -40 -71 -66 -82c43 -23 81 -56 81 -111c0 -58 -51 -106 -162 -106zM606 165c-21 -17 -33 -43 -33 -67c0 -38 26 -71 67 -71c32 0 54 20 54 49
c0 41 -35 71 -88 89zM667 235c16 14 28 37 28 59c0 41 -30 65 -57 65c-29 0 -53 -19 -53 -52c0 -27 22 -49 82 -72zM115 344v160c0 35 -3 50 -32 54l-31 4c-8 5 -8 23 0 28c59 8 128 29 167 50c7 0 11 -3 12 -8c-1 -17 -3 -55 -3 -88v-200c0 -51 -1 -64 30 -68l30 -4
c6 -6 5 -23 -2 -27c-37 1 -77 2 -115 2c-37 0 -77 -1 -114 -2c-7 4 -8 21 -2 27l30 4c31 4 30 17 30 68zM607 630l-370 -670c-18 -4 -40 7 -47 24l370 670c15 2 42 -7 47 -24z" />
    <glyph glyph-name="threeeighths" unicode="&#x215c;" horiz-adv-x="840" 
d="M653 -7c-84 0 -152 29 -152 102c0 44 35 80 81 92c-39 21 -68 53 -68 93c0 63 48 113 148 113c86 0 138 -35 138 -101c0 -43 -40 -71 -66 -82c43 -23 81 -56 81 -111c0 -58 -51 -106 -162 -106zM627 165c-21 -17 -33 -43 -33 -67c0 -38 26 -71 67 -71c32 0 54 20 54 49
c0 41 -35 71 -88 89zM688 235c16 14 28 37 28 59c0 41 -30 65 -57 65c-29 0 -53 -19 -53 -52c0 -27 22 -49 82 -72zM102 208c-34 0 -76 15 -76 53c0 17 11 41 43 41c25 0 39 -26 47 -37c8 -12 16 -17 29 -17c28 -1 75 30 75 105c0 52 -27 84 -65 84c-27 0 -49 -9 -67 -25
c-19 4 -24 25 -16 36c40 15 125 45 125 100c0 23 -16 40 -45 40c-22 0 -50 -14 -74 -50c-12 -5 -26 5 -25 17c28 54 85 85 142 85c65 0 109 -32 109 -74c0 -29 -13 -52 -77 -78c-7 -3 0 -8 8 -9c51 -6 105 -31 105 -98c0 -49 -25 -90 -83 -126c-55 -35 -119 -47 -155 -47z
M628 630l-370 -670c-18 -4 -40 7 -47 24l370 670c15 2 42 -7 47 -24z" />
    <glyph glyph-name="fiveeighths" unicode="&#x215d;" horiz-adv-x="840" 
d="M638 -7c-84 0 -152 29 -152 102c0 44 35 80 81 92c-39 21 -68 53 -68 93c0 63 48 113 148 113c86 0 138 -35 138 -101c0 -43 -40 -71 -66 -82c43 -23 81 -56 81 -111c0 -58 -51 -106 -162 -106zM612 165c-21 -17 -33 -43 -33 -67c0 -38 26 -71 67 -71c32 0 54 20 54 49
c0 41 -35 71 -88 89zM673 235c16 14 28 37 28 59c0 41 -30 65 -57 65c-29 0 -53 -19 -53 -52c0 -27 22 -49 82 -72zM126 624l183 19c4 -1 6 -4 7 -10c-3 -15 -13 -52 -41 -72l-140 -16c-8 -1 -15 -4 -16 -10l-2 -6c-3 -9 4 -15 19 -17c76 -11 196 -35 196 -137
c1 -119 -156 -164 -280 -165c-14 6 -14 27 -4 37c64 0 186 14 183 99c-1 50 -59 76 -154 85c-21 2 -27 8 -21 31l40 143c4 14 10 17 30 19zM613 630l-370 -670c-18 -4 -40 7 -47 24l370 670c15 2 42 -7 47 -24z" />
    <glyph glyph-name="seveneighths" unicode="&#x215e;" horiz-adv-x="840" 
d="M640 -7c-84 0 -152 29 -152 102c0 44 35 80 81 92c-39 21 -68 53 -68 93c0 63 48 113 148 113c86 0 138 -35 138 -101c0 -43 -40 -71 -66 -82c43 -23 81 -56 81 -111c0 -58 -51 -106 -162 -106zM614 165c-21 -17 -33 -43 -33 -67c0 -38 26 -71 67 -71c32 0 54 20 54 49
c0 41 -35 71 -88 89zM675 235c16 14 28 37 28 59c0 41 -30 65 -57 65c-29 0 -53 -19 -53 -52c0 -27 22 -49 82 -72zM151 633h124c41 0 78 0 95 2c4 -1 5 -5 5 -11c-15 -27 -35 -53 -63 -99l-188 -310c-17 -5 -34 6 -41 25l160 256c13 21 19 34 19 46c0 6 -7 9 -19 9h-108
c-33 0 -53 -7 -66 -38c-5 -9 -27 -2 -30 6c18 45 28 93 32 116c19 -1 44 -2 80 -2zM584 630l-370 -670c-18 -4 -40 7 -47 24l370 670c15 2 42 -7 47 -24z" />
    <glyph glyph-name="onethird" unicode="&#x2153;" horiz-adv-x="840" 
d="M118 344v160c0 35 -3 50 -32 54l-31 4c-8 5 -8 23 0 28c59 8 128 29 167 50c7 0 11 -3 12 -8c-1 -17 -3 -55 -3 -88v-200c0 -51 -1 -64 30 -68l30 -4c6 -6 5 -23 -2 -27c-37 1 -77 2 -115 2c-37 0 -77 -1 -114 -2c-7 4 -8 21 -2 27l30 4c31 4 30 17 30 68zM613 630
l-370 -670c-18 -4 -40 7 -47 24l370 670c15 2 42 -7 47 -24zM553 -39c-34 0 -76 15 -76 53c0 17 11 41 43 41c25 0 39 -26 47 -37c8 -12 16 -17 29 -17c28 -1 75 30 75 105c0 52 -27 84 -65 84c-27 0 -49 -9 -67 -25c-19 4 -24 25 -16 36c40 15 125 45 125 100
c0 23 -16 40 -45 40c-22 0 -50 -14 -74 -50c-12 -5 -26 5 -25 17c28 54 85 85 142 85c65 0 109 -32 109 -74c0 -29 -13 -52 -77 -78c-7 -3 0 -8 8 -9c51 -6 105 -31 105 -98c0 -49 -25 -90 -83 -126c-55 -35 -119 -47 -155 -47z" />
    <glyph glyph-name="twothirds" unicode="&#x2154;" horiz-adv-x="840" 
d="M197 247h-96c-37 0 -54 -1 -65 -2c-7 4 -9 13 -7 19c23 18 47 36 101 91c36 38 75 97 75 158c0 41 -22 69 -59 69c-33 0 -61 -23 -81 -59c-10 -7 -28 1 -28 17c34 67 94 100 155 100c88 0 135 -48 135 -112c0 -42 -20 -87 -98 -145l-31 -23l-25 -21c-10 -9 -5 -17 8 -17
h62c46 0 67 2 84 34c8 3 18 1 23 -4c-6 -33 -26 -87 -39 -107c-27 1 -55 2 -114 2zM647 630l-370 -670c-18 -4 -40 7 -47 24l370 670c15 2 42 -7 47 -24zM575 -39c-34 0 -76 15 -76 53c0 17 11 41 43 41c25 0 39 -26 47 -37c8 -12 16 -17 29 -17c28 -1 75 30 75 105
c0 52 -27 84 -65 84c-27 0 -49 -9 -67 -25c-19 4 -24 25 -16 36c40 15 125 45 125 100c0 23 -16 40 -45 40c-22 0 -50 -14 -74 -50c-12 -5 -26 5 -25 17c28 54 85 85 142 85c65 0 109 -32 109 -74c0 -29 -13 -52 -77 -78c-7 -3 0 -8 8 -9c51 -6 105 -31 105 -98
c0 -49 -25 -90 -83 -126c-55 -35 -119 -47 -155 -47z" />
    <glyph glyph-name="zerosuperior" unicode="&#x2070;" 
d="M200 713c116 0 166 -105 166 -200c0 -97 -50 -200 -166 -200c-115 0 -165 102 -165 200c0 95 50 200 165 200zM200 679c-44 0 -52 -111 -52 -166c0 -53 8 -166 52 -166c45 0 53 113 53 166c0 55 -8 166 -53 166z" />
    <glyph glyph-name="foursuperior" unicode="&#x2074;" 
d="M200 396v14c0 17 -1 18 -15 18h-153c-7 4 -9 14 -7 23l216 283c6 7 11 12 20 12h29c11 0 13 -9 3 -22l-196 -247c-5 -6 -3 -11 15 -11h73c14 0 15 2 15 17v75c0 14 8 19 18 22c20 6 71 18 82 18c8 0 11 -4 11 -10v-105c0 -15 1 -17 15 -17h44c11 -4 11 -32 0 -38h-44
c-14 0 -15 -1 -15 -18v-14c0 -39 2 -47 36 -50l13 -1c7 -5 7 -22 -1 -27c-39 1 -74 2 -112 2s-77 -1 -106 -2c-8 4 -8 22 -2 27l20 1c41 2 41 8 41 50z" />
    <glyph glyph-name="fivesuperior" unicode="&#x2075;" 
d="M135 697l183 19c4 -1 6 -4 7 -10c-3 -15 -13 -52 -41 -72l-140 -16c-8 -1 -15 -4 -16 -10l-2 -6c-3 -9 4 -15 19 -17c76 -11 196 -35 196 -137c1 -119 -156 -164 -280 -165c-14 6 -14 27 -4 37c64 0 186 14 183 99c-1 50 -59 76 -154 85c-21 2 -27 8 -21 31l40 143
c4 14 10 17 30 19z" />
    <glyph glyph-name="sixsuperior" unicode="&#x2076;" 
d="M157 479c0 -68 21 -132 62 -132c33 0 42 35 42 64c0 51 -19 101 -52 109c-8 2 -17 2 -28 1c-6 7 -6 11 -4 20c12 12 42 26 71 26c77 0 119 -57 119 -117c0 -83 -64 -137 -162 -137c-110 0 -166 66 -166 167c0 69 30 128 82 176c47 44 130 80 226 80c8 -5 8 -22 1 -27
c-70 -16 -110 -39 -144 -78c-33 -39 -47 -94 -47 -152z" />
    <glyph glyph-name="sevensuperior" unicode="&#x2077;" 
d="M144 706h124c41 0 78 0 95 2c4 -1 5 -5 5 -11c-15 -27 -35 -53 -63 -99l-188 -310c-17 -5 -34 6 -41 25l160 256c13 21 19 34 19 46c0 6 -7 9 -19 9h-108c-33 0 -53 -7 -66 -38c-5 -9 -27 -2 -30 6c18 45 28 93 32 116c19 -1 44 -2 80 -2z" />
    <glyph glyph-name="eightsuperior" unicode="&#x2078;" 
d="M195 313c-84 0 -152 29 -152 102c0 44 35 80 81 92c-39 21 -68 53 -68 93c0 63 48 113 148 113c86 0 138 -35 138 -101c0 -43 -40 -71 -66 -82c43 -23 81 -56 81 -111c0 -58 -51 -106 -162 -106zM169 485c-21 -17 -33 -43 -33 -67c0 -38 26 -71 67 -71c32 0 54 20 54 49
c0 41 -35 71 -88 89zM230 555c16 14 28 37 28 59c0 41 -30 65 -57 65c-29 0 -53 -19 -53 -52c0 -27 22 -49 82 -72z" />
    <glyph glyph-name="ninesuperior" unicode="&#x2079;" 
d="M151 460c-66 0 -116 42 -116 110c0 87 68 143 157 143c114 0 169 -72 169 -163c0 -165 -152 -256 -302 -267c-11 3 -15 25 -5 31c125 32 189 122 189 235c0 66 -16 130 -54 130c-31 0 -48 -32 -48 -74s22 -96 57 -102h14c7 -3 9 -15 5 -21c-12 -9 -41 -22 -66 -22z" />
    <glyph glyph-name="zeroinferior" unicode="&#x2080;" 
d="M200 228c116 0 166 -105 166 -200c0 -97 -50 -200 -166 -200c-115 0 -165 102 -165 200c0 95 50 200 165 200zM200 194c-44 0 -52 -111 -52 -166c0 -53 8 -166 52 -166c45 0 53 113 53 166c0 55 -8 166 -53 166z" />
    <glyph glyph-name="oneinferior" unicode="&#x2081;" 
d="M150 -68v160c0 35 -3 50 -32 54l-31 4c-8 5 -8 23 0 28c59 8 128 29 167 50c7 0 11 -3 12 -8c-1 -17 -3 -55 -3 -88v-200c0 -51 -1 -64 30 -68l30 -4c6 -6 5 -23 -2 -27c-37 1 -77 2 -115 2c-37 0 -77 -1 -114 -2c-7 4 -8 21 -2 27l30 4c31 4 30 17 30 68z" />
    <glyph glyph-name="twoinferior" unicode="&#x2082;" 
d="M210 -165h-96c-37 0 -54 -1 -65 -2c-7 4 -9 13 -7 19c23 18 47 36 101 91c36 38 75 97 75 158c0 41 -22 69 -59 69c-33 0 -61 -23 -81 -59c-10 -7 -28 1 -28 17c34 67 94 100 155 100c88 0 135 -48 135 -112c0 -42 -20 -87 -98 -145l-31 -23l-25 -21c-10 -9 -5 -17 8 -17
h62c46 0 67 2 84 34c8 3 18 1 23 -4c-6 -33 -26 -87 -39 -107c-27 1 -55 2 -114 2z" />
    <glyph glyph-name="threeinferior" unicode="&#x2083;" 
d="M116 -204c-34 0 -76 15 -76 53c0 17 11 41 43 41c25 0 39 -26 47 -37c8 -12 16 -17 29 -17c28 -1 75 30 75 105c0 52 -27 84 -65 84c-27 0 -49 -9 -67 -25c-19 4 -24 25 -16 36c40 15 125 45 125 100c0 23 -16 40 -45 40c-22 0 -50 -14 -74 -50c-12 -5 -26 5 -25 17
c28 54 85 85 142 85c65 0 109 -32 109 -74c0 -29 -13 -52 -77 -78c-7 -3 0 -8 8 -9c51 -6 105 -31 105 -98c0 -49 -25 -90 -83 -126c-55 -35 -119 -47 -155 -47z" />
    <glyph glyph-name="fourinferior" unicode="&#x2084;" 
d="M200 -89v14c0 17 -1 18 -15 18h-153c-7 4 -9 14 -7 23l216 283c6 7 11 12 20 12h29c11 0 13 -9 3 -22l-196 -247c-5 -6 -3 -11 15 -11h73c14 0 15 2 15 17v75c0 14 8 19 18 22c20 6 71 18 82 18c8 0 11 -4 11 -10v-105c0 -15 1 -17 15 -17h44c11 -4 11 -32 0 -38h-44
c-14 0 -15 -1 -15 -18v-14c0 -39 2 -47 36 -50l13 -1c7 -5 7 -22 -1 -27c-39 1 -74 2 -112 2s-77 -1 -106 -2c-8 4 -8 22 -2 27l20 1c41 2 41 8 41 50z" />
    <glyph glyph-name="fiveinferior" unicode="&#x2085;" 
d="M135 212l183 19c4 -1 6 -4 7 -10c-3 -15 -13 -52 -41 -72l-140 -16c-8 -1 -15 -4 -16 -10l-2 -6c-3 -9 4 -15 19 -17c76 -11 196 -35 196 -137c1 -119 -156 -164 -280 -165c-14 6 -14 27 -4 37c64 0 186 14 183 99c-1 50 -59 76 -154 85c-21 2 -27 8 -21 31l40 143
c4 14 10 17 30 19z" />
    <glyph glyph-name="sixinferior" unicode="&#x2086;" 
d="M157 -6c0 -68 21 -132 62 -132c33 0 42 35 42 64c0 51 -19 101 -52 109c-8 2 -17 2 -28 1c-6 7 -6 11 -4 20c12 12 42 26 71 26c77 0 119 -57 119 -117c0 -83 -64 -137 -162 -137c-110 0 -166 66 -166 167c0 69 30 128 82 176c47 44 130 80 226 80c8 -5 8 -22 1 -27
c-70 -16 -110 -39 -144 -78c-33 -39 -47 -94 -47 -152z" />
    <glyph glyph-name="seveninferior" unicode="&#x2087;" 
d="M144 221h124c41 0 78 0 95 2c4 -1 5 -5 5 -11c-15 -27 -35 -53 -63 -99l-188 -310c-17 -5 -34 6 -41 25l160 256c13 21 19 34 19 46c0 6 -7 9 -19 9h-108c-33 0 -53 -7 -66 -38c-5 -9 -27 -2 -30 6c18 45 28 93 32 116c19 -1 44 -2 80 -2z" />
    <glyph glyph-name="eightinferior" unicode="&#x2088;" 
d="M195 -172c-84 0 -152 29 -152 102c0 44 35 80 81 92c-39 21 -68 53 -68 93c0 63 48 113 148 113c86 0 138 -35 138 -101c0 -43 -40 -71 -66 -82c43 -23 81 -56 81 -111c0 -58 -51 -106 -162 -106zM169 0c-21 -17 -33 -43 -33 -67c0 -38 26 -71 67 -71c32 0 54 20 54 49
c0 41 -35 71 -88 89zM230 70c16 14 28 37 28 59c0 41 -30 65 -57 65c-29 0 -53 -19 -53 -52c0 -27 22 -49 82 -72z" />
    <glyph glyph-name="nineinferior" unicode="&#x2089;" 
d="M151 -25c-66 0 -116 42 -116 110c0 87 68 143 157 143c114 0 169 -72 169 -163c0 -165 -152 -256 -302 -267c-11 3 -15 25 -5 31c125 32 189 122 189 235c0 66 -16 130 -54 130c-31 0 -48 -32 -48 -74s22 -96 57 -102h14c7 -3 9 -15 5 -21c-12 -9 -41 -22 -66 -22z" />
    <glyph glyph-name="centinferior" unicode="&#xf6df;" 
d="M208 -74l40 239c-1 1 -4 1 -7 1c-65 0 -88 -73 -88 -125c0 -55 20 -95 55 -115zM285 152l-41 -239c8 -2 16 -3 25 -3c38 0 76 24 92 53c11 1 22 -6 22 -16c-24 -47 -72 -90 -149 -92l-13 -77c-7 -11 -32 -11 -38 0l13 78c-96 11 -158 75 -158 162c0 123 105 184 216 185
l11 62c7 9 31 9 39 0l-11 -64c21 -2 43 -6 58 -11c8 -6 20 -24 20 -46s-13 -40 -24 -40c-4 0 -9 2 -11 3c-16 15 -31 34 -50 47c-1 0 -1 -1 -1 -2z" />
    <glyph glyph-name="dollarinferior" unicode="&#xf6e3;" 
d="M215 -13l-18 -114c45 0 72 22 72 54c0 33 -27 50 -54 60zM193 93l15 98c-52 -1 -72 -23 -72 -50c0 -22 23 -38 57 -48zM246 185l-16 -104l7 -2c73 -21 127 -60 127 -123c0 -76 -66 -119 -173 -121l-10 -62c-5 -7 -33 -7 -38 0l10 65c-44 4 -83 18 -94 28
c-15 20 -23 64 -23 106c4 10 22 13 31 4c9 -37 39 -84 92 -99l19 121c-75 20 -127 54 -127 112c0 72 58 115 163 118l7 47c5 9 34 9 39 0l-7 -49c29 -2 51 -10 80 -13c7 -16 13 -50 12 -100c-4 -9 -22 -10 -29 -1c-4 17 -24 58 -70 73z" />
    <glyph glyph-name="periodinferior" unicode="&#xf6e7;" horiz-adv-x="200" 
d="M100 -172c-33 0 -65 25 -65 66c0 39 28 67 65 67c39 0 65 -31 65 -67c0 -38 -26 -66 -65 -66z" />
    <glyph glyph-name="commainferior" unicode="&#xf6e1;" horiz-adv-x="200" 
d="M177 -133c0 -84 -67 -132 -140 -149c-15 2 -19 21 -9 27c32 12 75 41 75 83c0 37 -28 48 -49 55c-14 4 -26 19 -26 39c0 30 27 54 61 54c37 0 88 -30 88 -109z" />
    <glyph glyph-name="commaaccent" unicode="&#xf6c3;" horiz-adv-x="380" 
d="M178 -45c33 0 84 -28 84 -99c0 -82 -60 -125 -131 -140c-14 1 -17 27 -8 33c28 10 68 37 68 71c0 31 -25 45 -44 50c-14 4 -24 18 -24 35c0 28 25 50 55 50z" />
    <glyph glyph-name="Abreve" unicode="&#x102;" horiz-adv-x="624" 
d="M324 226h-112c-24 0 -27 -1 -33 -20l-37 -116c-6 -20 -7 -28 -7 -36c0 -6 8 -12 36 -17l30 -5c6 -7 8 -30 -2 -35c-35 2 -75 2 -117 3c-34 0 -57 -3 -103 -3c-11 6 -10 27 -3 35l27 3c24 3 44 11 61 50c17 40 35 88 62 160l90 244c23 63 42 98 39 127c48 11 85 60 87 60
c13 0 19 -5 23 -20c8 -29 20 -66 45 -137l136 -392c21 -60 30 -83 67 -89l38 -6c6 -5 8 -29 -1 -35c-48 2 -102 3 -154 3c-50 0 -89 -1 -135 -3c-11 6 -13 27 -2 35l32 5c23 4 27 11 27 17c0 7 -7 31 -19 68l-27 86c-5 16 -13 18 -48 18zM232 279h87c23 0 28 3 20 29l-26 81
c-14 43 -27 84 -36 105c-10 -22 -26 -64 -41 -110l-25 -75c-9 -27 -4 -30 21 -30zM312 720c-91 0 -139 53 -134 143c8 4 22 4 29 0c11 -44 57 -68 105 -68s94 24 105 68c7 4 21 4 29 0c5 -90 -43 -143 -134 -143z" />
    <glyph glyph-name="Amacron" unicode="&#x100;" horiz-adv-x="624" 
d="M324 226h-112c-24 0 -27 -1 -33 -20l-37 -116c-6 -20 -7 -28 -7 -36c0 -6 8 -12 36 -17l30 -5c6 -7 8 -30 -2 -35c-35 2 -75 2 -117 3c-34 0 -57 -3 -103 -3c-11 6 -10 27 -3 35l27 3c24 3 44 11 61 50c17 40 35 88 62 160l90 244c23 63 42 98 39 127c48 11 85 60 87 60
c13 0 19 -5 23 -20c8 -29 20 -66 45 -137l136 -392c21 -60 30 -83 67 -89l38 -6c6 -5 8 -29 -1 -35c-48 2 -102 3 -154 3c-50 0 -89 -1 -135 -3c-11 6 -13 27 -2 35l32 5c23 4 27 11 27 17c0 7 -7 31 -19 68l-27 86c-5 16 -13 18 -48 18zM232 279h87c23 0 28 3 20 29l-26 81
c-14 43 -27 84 -36 105c-10 -22 -26 -64 -41 -110l-25 -75c-9 -27 -4 -30 21 -30zM438 725h-253c-12 16 -12 59 0 75h253c13 -16 13 -59 0 -75z" />
    <glyph glyph-name="Aogonek" unicode="&#x104;" horiz-adv-x="624" 
d="M232 279h87c23 0 28 3 20 29l-26 81c-14 43 -27 84 -36 105c-10 -22 -26 -64 -41 -110l-25 -75c-9 -27 -4 -30 21 -30zM324 226h-112c-24 0 -27 -1 -33 -20l-37 -116c-6 -20 -7 -28 -7 -36c0 -6 8 -12 36 -17l30 -5c6 -7 8 -30 -2 -35c-35 2 -75 2 -117 3
c-34 0 -57 -3 -103 -3c-11 6 -10 27 -3 35l27 3c24 3 44 11 61 50c17 40 35 88 62 160l90 244c23 63 42 98 39 127c48 11 85 60 87 60c13 0 19 -5 23 -20c8 -29 20 -66 45 -137l136 -392c21 -60 30 -83 67 -89l38 -6c6 -5 8 -29 -1 -35c-48 2 -102 3 -134 3
c-17 -30 -28 -65 -28 -92c0 -47 36 -73 76 -73c13 0 31 2 45 9c6 -3 9 -9 9 -18c-27 -32 -68 -54 -109 -54c-66 0 -102 41 -102 92c0 46 26 91 65 136c-51 0 -96 -3 -111 -3c-11 6 -13 27 -2 35l32 5c23 4 27 11 27 17c0 7 -7 31 -19 68l-27 86c-5 16 -13 18 -48 18z" />
    <glyph glyph-name="Cacute" unicode="&#x106;" horiz-adv-x="689" 
d="M438 676c102 0 176 -24 206 -26c0 -18 3 -98 12 -156c-4 -12 -31 -16 -38 -7c-27 93 -91 143 -188 143c-111 0 -230 -95 -230 -294s115 -306 235 -306c121 0 177 87 204 155c8 8 32 5 38 -7c-7 -74 -24 -134 -38 -157c-54 -15 -125 -37 -203 -37c-98 0 -198 23 -269 76
c-72 55 -127 138 -127 262c0 122 52 208 121 265c71 59 173 89 277 89zM352 731l162 121c16 12 26 17 33 17c10 0 22 -8 34 -31c12 -21 12 -36 10 -43c-2 -8 -12 -19 -32 -25l-196 -64c-8 3 -14 14 -11 25z" />
    <glyph glyph-name="Ccaron" unicode="&#x10c;" horiz-adv-x="689" 
d="M438 676c102 0 176 -24 206 -26c0 -18 3 -98 12 -156c-4 -12 -31 -16 -38 -7c-27 93 -91 143 -188 143c-111 0 -230 -95 -230 -294s115 -306 235 -306c121 0 177 87 204 155c8 8 32 5 38 -7c-7 -74 -24 -134 -38 -157c-54 -15 -125 -37 -203 -37c-98 0 -198 23 -269 76
c-72 55 -127 138 -127 262c0 122 52 208 121 265c71 59 173 89 277 89zM264 861l121 -58c13 -6 21 -7 35 0l120 58c9 0 15 -14 13 -26l-129 -117c-15 -13 -30 -13 -44 0l-128 117c-2 12 5 25 12 26z" />
    <glyph glyph-name="Dcaron" unicode="&#x10e;" horiz-adv-x="793" 
d="M114 144v354c0 95 -2 114 -48 119l-19 2c-10 5 -10 34 2 35c84 5 162 9 268 9c82 0 164 -8 233 -33c131 -47 203 -165 203 -290c0 -134 -64 -242 -179 -299c-68 -34 -150 -47 -253 -47c-47 0 -97 6 -133 6c-48 0 -99 -1 -156 -3c-8 6 -8 30 0 35l31 5c45 7 51 15 51 107z
M257 546v-365c0 -55 2 -91 20 -112c18 -20 47 -29 83 -29c173 0 232 154 232 290c0 180 -95 287 -276 287c-27 0 -46 -5 -52 -13s-7 -27 -7 -58zM236 861l121 -58c13 -6 21 -7 35 0l120 58c9 0 15 -14 13 -26l-129 -117c-15 -13 -30 -13 -44 0l-128 117c-2 12 5 25 12 26z
" />
    <glyph glyph-name="Dcroat" unicode="&#x110;" horiz-adv-x="803" 
d="M120 144v173h-84c-10 12 -10 38 0 53h84v128c0 95 -2 114 -48 119l-19 2c-10 5 -10 34 2 35c84 5 162 9 268 9c82 0 164 -8 233 -33c131 -47 203 -165 203 -290c0 -134 -64 -242 -179 -299c-68 -34 -150 -47 -253 -47c-47 0 -97 6 -133 6c-48 0 -99 -1 -156 -3
c-8 6 -8 30 0 35l31 5c45 7 51 15 51 107zM263 546v-176h134c11 -11 10 -41 0 -53h-134v-136c0 -55 2 -91 20 -112c18 -20 47 -29 83 -29c173 0 232 154 232 290c0 180 -95 287 -276 287c-27 0 -46 -5 -52 -13s-7 -27 -7 -58z" />
    <glyph glyph-name="Ecaron" unicode="&#x11a;" horiz-adv-x="593" 
d="M257 575v-175c0 -28 1 -30 28 -30h69c52 0 64 7 74 55l5 25c7 8 32 8 37 -1c-2 -32 -3 -68 -3 -106s1 -74 3 -106c-5 -9 -30 -10 -37 -1l-5 25c-10 48 -22 56 -74 56h-69c-27 0 -28 -1 -28 -31v-119c0 -46 4 -78 16 -95c13 -18 32 -26 105 -26c87 0 121 3 176 116
c8 11 33 7 37 -5c-4 -52 -28 -133 -42 -160c-53 2 -149 3 -231 3h-130c-48 0 -97 -1 -172 -3c-8 6 -8 30 0 35l47 7c45 7 51 13 51 105v373c0 91 -6 97 -51 106l-25 5c-9 6 -8 29 2 35c47 -2 96 -3 144 -3h212c64 0 121 1 134 3c1 -16 8 -88 13 -155c-4 -11 -27 -13 -37 -4
c-11 35 -25 65 -38 79c-19 19 -49 31 -98 31h-80c-33 0 -33 -2 -33 -39zM156 861l121 -50c13 -5 21 -7 35 -1l120 51c9 0 15 -14 13 -26l-129 -117c-15 -13 -30 -13 -44 0l-128 117c-2 12 5 25 12 26z" />
    <glyph glyph-name="Edotaccent" unicode="&#x116;" horiz-adv-x="593" 
d="M257 575v-175c0 -28 1 -30 28 -30h69c52 0 64 7 74 55l5 25c7 8 32 8 37 -1c-2 -32 -3 -68 -3 -106s1 -74 3 -106c-5 -9 -30 -10 -37 -1l-5 25c-10 48 -22 56 -74 56h-69c-27 0 -28 -1 -28 -31v-119c0 -46 4 -78 16 -95c13 -18 32 -26 105 -26c87 0 121 3 176 116
c8 11 33 7 37 -5c-4 -52 -28 -133 -42 -160c-53 2 -149 3 -231 3h-130c-48 0 -97 -1 -172 -3c-8 6 -8 30 0 35l47 7c45 7 51 13 51 105v373c0 91 -6 97 -51 106l-25 5c-9 6 -8 29 2 35c47 -2 96 -3 144 -3h212c64 0 121 1 134 3c1 -16 8 -88 13 -155c-4 -11 -27 -13 -37 -4
c-11 35 -25 65 -38 79c-19 19 -49 31 -98 31h-80c-33 0 -33 -2 -33 -39zM298 712c-36 0 -65 21 -66 61c0 39 29 67 66 67c36 0 63 -29 63 -61c0 -41 -27 -67 -63 -67z" />
    <glyph glyph-name="Emacron" unicode="&#x112;" horiz-adv-x="593" 
d="M257 575v-175c0 -28 1 -30 28 -30h69c52 0 64 7 74 55l5 25c7 8 32 8 37 -1c-2 -32 -3 -68 -3 -106s1 -74 3 -106c-5 -9 -30 -10 -37 -1l-5 25c-10 48 -22 56 -74 56h-69c-27 0 -28 -1 -28 -31v-119c0 -46 4 -78 16 -95c13 -18 32 -26 105 -26c87 0 121 3 176 116
c8 11 33 7 37 -5c-4 -52 -28 -133 -42 -160c-53 2 -149 3 -231 3h-130c-48 0 -97 -1 -172 -3c-8 6 -8 30 0 35l47 7c45 7 51 13 51 105v373c0 91 -6 97 -51 106l-25 5c-9 6 -8 29 2 35c47 -2 96 -3 144 -3h212c64 0 121 1 134 3c1 -16 8 -88 13 -155c-4 -11 -27 -13 -37 -4
c-11 35 -25 65 -38 79c-19 19 -49 31 -98 31h-80c-33 0 -33 -2 -33 -39zM423 725h-253c-12 16 -12 59 0 75h253c13 -16 13 -59 0 -75z" />
    <glyph glyph-name="Eogonek" unicode="&#x118;" horiz-adv-x="593" 
d="M114 144v373c0 91 -6 97 -51 106l-25 5c-9 6 -8 29 2 35c24 -1 48 -2 72 -2c24 -1 48 -1 72 -1h212c64 0 121 1 134 3c1 -16 8 -88 13 -155c-4 -11 -27 -13 -37 -4c-11 35 -25 65 -38 79c-19 19 -49 31 -98 31h-80c-33 0 -33 -2 -33 -39v-175c0 -28 1 -30 28 -30h69
c52 0 64 7 74 55l5 25c7 8 32 8 37 -1c-2 -32 -3 -68 -3 -106s1 -74 3 -106c-5 -9 -30 -10 -37 -1l-5 25c-10 48 -22 56 -74 56h-69c-27 0 -28 -1 -28 -31v-119c0 -46 4 -78 16 -95c13 -18 32 -26 105 -26c87 0 121 3 176 116c8 11 33 7 37 -5c-4 -52 -28 -133 -42 -160h-18
c-50 -44 -72 -87 -72 -124c0 -30 21 -53 49 -53c18 0 32 4 50 14c6 -2 9 -10 9 -18c-28 -35 -69 -49 -104 -49c-70 0 -90 43 -90 81c0 46 38 93 111 150c-9 1 -24 1 -40 1c-40 1 -85 1 -126 1h-130c-48 0 -97 -1 -172 -3c-8 6 -8 30 0 35l47 7c45 7 51 13 51 105z" />
    <glyph glyph-name="Gbreve" unicode="&#x11e;" horiz-adv-x="734" 
d="M663 169v-56c0 -42 2 -62 21 -66c4 -4 3 -21 -3 -24c-17 -3 -43 -6 -70 -15c-35 -11 -121 -24 -177 -24c-68 0 -126 7 -197 35c-117 47 -197 158 -197 302c0 125 56 235 176 302c68 37 149 53 234 53c111 0 166 -24 198 -24c3 -30 4 -100 14 -161c-4 -11 -31 -12 -38 -2
c-32 94 -95 141 -188 141c-159 0 -236 -132 -236 -290c0 -143 49 -228 114 -272c48 -32 100 -38 137 -38c57 0 69 11 69 76v63c0 54 -6 60 -54 67l-44 6c-11 6 -11 29 0 35c71 -2 120 -3 169 -3c48 0 97 1 131 3c8 -6 8 -29 0 -35l-23 -4c-30 -5 -36 -15 -36 -69zM417 720
c-91 0 -139 53 -134 143c8 4 22 4 29 0c11 -44 57 -72 105 -72s94 28 105 72c7 4 21 4 29 0c5 -90 -43 -143 -134 -143z" />
    <glyph glyph-name="Gcommaaccent" unicode="&#x122;" horiz-adv-x="734" 
d="M663 169v-56c0 -42 2 -62 21 -66c4 -4 3 -21 -3 -24c-17 -3 -43 -6 -70 -15c-35 -11 -121 -24 -177 -24c-68 0 -126 7 -197 35c-117 47 -197 158 -197 302c0 125 56 235 176 302c68 37 149 53 234 53c111 0 166 -24 198 -24c3 -30 4 -100 14 -161c-4 -11 -31 -12 -38 -2
c-32 94 -95 141 -188 141c-159 0 -236 -132 -236 -290c0 -143 49 -228 114 -272c48 -32 100 -38 137 -38c57 0 69 11 69 76v63c0 54 -6 60 -54 67l-44 6c-11 6 -11 29 0 35c71 -2 120 -3 169 -3c48 0 97 1 131 3c8 -6 8 -29 0 -35l-23 -4c-30 -5 -36 -15 -36 -69zM404 -55
c40 0 88 -28 88 -102c0 -85 -61 -130 -136 -145c-14 1 -17 27 -9 33c30 11 71 42 71 76c0 30 -26 43 -46 48c-13 4 -25 17 -25 39c0 28 26 51 57 51z" />
    <glyph glyph-name="Imacron" unicode="&#x12a;" horiz-adv-x="371" 
d="M257 514v-368c0 -94 6 -101 52 -109l28 -5c8 -6 7 -29 -1 -35c-54 2 -103 3 -150 3c-48 0 -98 -1 -152 -3c-8 6 -8 29 0 35l28 5c46 8 52 15 52 109v368c0 94 -6 101 -52 109l-28 5c-8 6 -8 29 0 35c54 -2 104 -3 152 -3c47 0 97 1 151 3c8 -6 8 -29 0 -35l-28 -5
c-46 -8 -52 -15 -52 -109zM312 725h-253c-12 16 -12 54 0 70h253c13 -16 13 -54 0 -70z" />
    <glyph glyph-name="Iogonek" unicode="&#x12e;" horiz-adv-x="371" 
d="M114 146v368c0 94 -6 101 -52 109l-28 5c-8 6 -8 29 0 35c54 -2 104 -3 152 -3c47 0 97 1 151 3c8 -6 8 -29 0 -35l-28 -5c-46 -8 -52 -15 -52 -109v-368c0 -94 6 -101 52 -109l28 -5c8 -6 7 -29 -1 -35c-51 2 -98 3 -132 3c-17 -30 -28 -65 -28 -92c0 -47 36 -73 76 -73
c13 0 31 2 45 9c6 -3 9 -9 9 -18c-27 -32 -68 -54 -109 -54c-66 0 -102 41 -102 92c0 46 26 91 65 136c-39 0 -81 -1 -126 -3c-8 6 -8 29 0 35l28 5c46 8 52 15 52 109z" />
    <glyph glyph-name="Kcommaaccent" unicode="&#x136;" horiz-adv-x="715" 
d="M257 516v-122c0 -33 6 -37 18 -37c21 0 61 38 77 58c53 64 102 123 134 170c9 13 13 22 13 26s-4 11 -17 13l-23 4c-11 7 -9 31 4 35c51 -2 88 -3 124 -3c37 0 81 1 121 3c12 -4 13 -27 5 -35c-35 -4 -65 -9 -86 -18c-40 -16 -83 -54 -148 -128l-46 -52
c-10 -11 -13 -19 -13 -23c0 -5 6 -17 36 -62c50 -75 109 -171 177 -261c27 -36 46 -43 74 -47l32 -5c6 -9 6 -30 -3 -35c-50 2 -98 3 -144 3c-51 0 -101 -1 -157 -3c-13 4 -13 29 -2 35l25 6c11 3 17 6 17 10s-2 11 -8 20s-48 74 -58 89l-53 81c-36 55 -53 79 -75 79
c-23 0 -24 -14 -24 -68v-105c0 -93 6 -102 51 -108l28 -4c8 -7 8 -29 0 -35c-53 2 -103 3 -151 3c-45 0 -97 -1 -150 -3c-8 6 -8 29 0 35l28 4c45 6 51 15 51 108v372c0 93 -6 102 -51 108l-28 4c-11 6 -11 29 0 35c50 -2 100 -3 150 -3c48 0 98 1 151 3c9 -6 9 -29 0 -35
l-28 -4c-45 -6 -51 -15 -51 -108zM347 -55c40 0 88 -28 88 -102c0 -85 -61 -130 -136 -145c-14 1 -17 27 -9 33c30 11 71 42 71 76c0 30 -26 43 -46 48c-13 4 -25 17 -25 39c0 28 26 51 57 51z" />
    <glyph glyph-name="Lacute" unicode="&#x139;" horiz-adv-x="585" 
d="M257 516v-350c0 -47 4 -79 17 -95c13 -17 31 -25 104 -25c91 0 119 3 178 119c8 10 31 6 38 -6c-5 -52 -29 -135 -43 -162c-53 2 -149 3 -231 3h-134c-46 0 -96 -1 -158 -3c-9 6 -11 29 -3 35l38 5c45 6 51 14 51 107v372c0 93 -6 102 -51 108l-29 4c-10 6 -10 29 2 35
c52 -2 102 -3 150 -3s98 1 148 3c8 -6 8 -29 0 -35l-26 -4c-45 -7 -51 -15 -51 -108zM180 731l162 121c16 12 26 17 33 17c10 0 22 -8 34 -31c12 -21 12 -36 10 -43c-2 -8 -12 -19 -32 -25l-196 -64c-8 3 -14 14 -11 25z" />
    <glyph glyph-name="Lcaron" unicode="&#x13d;" horiz-adv-x="585" 
d="M257 516v-350c0 -47 4 -79 17 -95c13 -17 31 -25 104 -25c91 0 119 3 178 119c8 10 31 6 38 -6c-5 -52 -29 -135 -43 -162c-53 2 -149 3 -231 3h-134c-46 0 -96 -1 -158 -3c-9 6 -11 29 -3 35l38 5c45 6 51 14 51 107v372c0 93 -6 102 -51 108l-29 4c-10 6 -10 29 2 35
c52 -2 102 -3 150 -3s98 1 148 3c8 -6 8 -29 0 -35l-26 -4c-45 -7 -51 -15 -51 -108zM446 700c36 0 86 -31 86 -110c0 -88 -65 -141 -137 -158c-15 2 -19 27 -9 33c31 14 74 44 74 86c0 36 -27 48 -48 54c-14 4 -26 19 -26 39c0 31 27 56 60 56z" />
    <glyph glyph-name="Lcommaaccent" unicode="&#x13b;" horiz-adv-x="585" 
d="M257 516v-350c0 -47 4 -79 17 -95c13 -17 31 -25 104 -25c91 0 119 3 178 119c8 10 31 6 38 -6c-5 -52 -29 -135 -43 -162c-53 2 -149 3 -231 3h-134c-46 0 -96 -1 -158 -3c-9 6 -11 29 -3 35l38 5c45 6 51 14 51 107v372c0 93 -6 102 -51 108l-29 4c-10 6 -10 29 2 35
c52 -2 102 -3 150 -3s98 1 148 3c8 -6 8 -29 0 -35l-26 -4c-45 -7 -51 -15 -51 -108zM297 -55c40 0 88 -28 88 -102c0 -85 -61 -130 -136 -145c-14 1 -17 27 -9 33c30 11 71 42 71 76c0 30 -26 43 -46 48c-13 4 -25 17 -25 39c0 28 26 51 57 51z" />
    <glyph glyph-name="Nacute" unicode="&#x143;" horiz-adv-x="748" 
d="M652 409v-239c0 -65 0 -128 2 -161c-7 -12 -35 -23 -59 -23c-1 0 -34 51 -81 109l-231 286c-58 71 -91 113 -109 128c-5 -10 -5 -27 -5 -64v-194c0 -81 4 -156 15 -183c9 -21 32 -28 58 -32l28 -4c8 -8 6 -29 0 -35c-54 2 -94 3 -134 3c-37 0 -74 -1 -112 -3
c-6 6 -8 27 0 35l17 3c27 5 47 12 55 33c11 27 14 102 14 183v254c0 55 -1 71 -7 85c-8 17 -22 29 -57 34l-28 4c-7 8 -6 32 4 35c47 -2 97 -3 138 -3c34 0 63 1 84 3c10 -45 75 -121 165 -228l84 -99c44 -52 73 -87 96 -110c4 10 4 27 4 45v138c0 81 -4 156 -15 183
c-9 21 -31 28 -58 32l-27 4c-8 8 -6 29 0 35c54 -2 93 -3 134 -3c37 0 73 1 112 3c6 -6 8 -27 0 -35l-18 -3c-26 -4 -45 -12 -54 -33c-11 -27 -15 -102 -15 -183zM321 731l162 121c16 12 26 17 33 17c10 0 22 -8 34 -31c12 -21 12 -36 10 -43c-2 -8 -12 -19 -32 -25
l-196 -64c-8 3 -14 14 -11 25z" />
    <glyph glyph-name="Ncaron" unicode="&#x147;" horiz-adv-x="748" 
d="M652 409v-239c0 -65 0 -128 2 -161c-7 -12 -35 -23 -59 -23c-1 0 -34 51 -81 109l-231 286c-58 71 -91 113 -109 128c-5 -10 -5 -27 -5 -64v-194c0 -81 4 -156 15 -183c9 -21 32 -28 58 -32l28 -4c8 -8 6 -29 0 -35c-54 2 -94 3 -134 3c-37 0 -74 -1 -112 -3
c-6 6 -8 27 0 35l17 3c27 5 47 12 55 33c11 27 14 102 14 183v254c0 55 -1 71 -7 85c-8 17 -22 29 -57 34l-28 4c-7 8 -6 32 4 35c47 -2 97 -3 138 -3c34 0 63 1 84 3c10 -45 75 -121 165 -228l84 -99c44 -52 73 -87 96 -110c4 10 4 27 4 45v138c0 81 -4 156 -15 183
c-9 21 -31 28 -58 32l-27 4c-8 8 -6 29 0 35c54 -2 93 -3 134 -3c37 0 73 1 112 3c6 -6 8 -27 0 -35l-18 -3c-26 -4 -45 -12 -54 -33c-11 -27 -15 -102 -15 -183zM233 861l121 -50c13 -5 21 -7 35 -1l120 51c9 0 15 -14 13 -26l-129 -117c-15 -13 -30 -13 -44 0l-128 117
c-2 12 5 25 12 26z" />
    <glyph glyph-name="Ncommaaccent" unicode="&#x145;" horiz-adv-x="748" 
d="M652 409v-239c0 -65 0 -128 2 -161c-7 -12 -35 -23 -59 -23c-1 0 -34 51 -81 109l-231 286c-58 71 -91 113 -109 128c-5 -10 -5 -27 -5 -64v-194c0 -81 4 -156 15 -183c9 -21 32 -28 58 -32l28 -4c8 -8 6 -29 0 -35c-54 2 -94 3 -134 3c-37 0 -74 -1 -112 -3
c-6 6 -8 27 0 35l17 3c27 5 47 12 55 33c11 27 14 102 14 183v254c0 55 -1 71 -7 85c-8 17 -22 29 -57 34l-28 4c-7 8 -6 32 4 35c47 -2 97 -3 138 -3c34 0 63 1 84 3c10 -45 75 -121 165 -228l84 -99c44 -52 73 -87 96 -110c4 10 4 27 4 45v138c0 81 -4 156 -15 183
c-9 21 -31 28 -58 32l-27 4c-8 8 -6 29 0 35c54 -2 93 -3 134 -3c37 0 73 1 112 3c6 -6 8 -27 0 -35l-18 -3c-26 -4 -45 -12 -54 -33c-11 -27 -15 -102 -15 -183zM363 -55c40 0 88 -28 88 -102c0 -85 -61 -130 -136 -145c-14 1 -17 27 -9 33c30 11 71 42 71 76
c0 30 -26 43 -46 48c-13 4 -25 17 -25 39c0 28 26 51 57 51z" />
    <glyph glyph-name="Ohungarumlaut" unicode="&#x150;" horiz-adv-x="788" 
d="M397 676c208 0 351 -140 351 -343c0 -218 -146 -349 -361 -349c-201 0 -347 132 -347 341c0 198 148 351 357 351zM588 320c0 171 -75 310 -199 310c-123 0 -189 -115 -189 -282c0 -122 43 -318 206 -318c131 0 182 128 182 290zM441 726l73 134c7 10 15 20 27 20
c10 0 24 -7 38 -19c21 -20 24 -30 24 -42c0 -10 -13 -22 -32 -36l-106 -77c-8 0 -22 10 -24 20zM269 726l73 134c7 10 16 20 27 20s24 -6 41 -21c16 -14 22 -28 22 -40c0 -10 -14 -22 -33 -36l-106 -77c-8 0 -22 10 -24 20z" />
    <glyph glyph-name="Omacron" unicode="&#x14c;" horiz-adv-x="788" 
d="M397 676c208 0 351 -140 351 -343c0 -218 -146 -349 -361 -349c-201 0 -347 132 -347 341c0 198 148 351 357 351zM588 320c0 171 -75 310 -199 310c-123 0 -189 -115 -189 -282c0 -122 43 -318 206 -318c131 0 182 128 182 290zM520 725h-253c-12 16 -12 59 0 75h253
c13 -16 13 -59 0 -75z" />
    <glyph glyph-name="Racute" unicode="&#x154;" horiz-adv-x="664" 
d="M114 144v354c0 100 -2 111 -44 117l-27 4c-10 5 -10 30 2 35c75 5 153 9 248 9c85 0 158 -13 196 -36c58 -34 88 -84 88 -148c0 -89 -60 -127 -106 -150c-10 -5 -10 -11 -5 -22c66 -134 107 -209 155 -250c26 -21 52 -27 67 -28c9 -5 9 -20 4 -26c-16 -7 -48 -9 -79 -9
c-92 0 -150 33 -194 105c-32 53 -55 102 -78 155c-12 27 -28 35 -53 35c-35 0 -37 -2 -37 -22v-123c0 -92 6 -99 51 -107l27 -5c7 -5 7 -29 0 -35c-53 2 -99 3 -147 3c-50 0 -94 -1 -146 -3c-8 6 -8 30 0 35l27 5c45 8 51 15 51 107zM251 566v-195c0 -35 3 -38 62 -38
c36 0 57 9 76 28c17 17 36 49 36 108c0 90 -53 148 -131 148c-41 0 -43 -3 -43 -51zM259 731l162 121c16 12 26 17 33 17c10 0 22 -8 34 -31c12 -21 12 -36 10 -43c-2 -8 -12 -19 -32 -25l-196 -64c-8 3 -14 14 -11 25z" />
    <glyph glyph-name="Rcaron" unicode="&#x158;" horiz-adv-x="664" 
d="M114 144v354c0 100 -2 111 -44 117l-27 4c-10 5 -10 30 2 35c75 5 153 9 248 9c85 0 158 -13 196 -36c58 -34 88 -84 88 -148c0 -89 -60 -127 -106 -150c-10 -5 -10 -11 -5 -22c66 -134 107 -209 155 -250c26 -21 52 -27 67 -28c9 -5 9 -20 4 -26c-16 -7 -48 -9 -79 -9
c-92 0 -150 33 -194 105c-32 53 -55 102 -78 155c-12 27 -28 35 -53 35c-35 0 -37 -2 -37 -22v-123c0 -92 6 -99 51 -107l27 -5c7 -5 7 -29 0 -35c-53 2 -99 3 -147 3c-50 0 -94 -1 -146 -3c-8 6 -8 30 0 35l27 5c45 8 51 15 51 107zM251 566v-195c0 -35 3 -38 62 -38
c36 0 57 9 76 28c17 17 36 49 36 108c0 90 -53 148 -131 148c-41 0 -43 -3 -43 -51zM164 861l127 -54c13 -6 22 -7 37 0l126 54c9 0 15 -14 13 -26l-135 -117c-16 -14 -32 -13 -46 0l-135 117c-2 12 5 25 13 26z" />
    <glyph glyph-name="Rcommaaccent" unicode="&#x156;" horiz-adv-x="664" 
d="M114 144v354c0 100 -2 111 -44 117l-27 4c-10 5 -10 30 2 35c75 5 153 9 248 9c85 0 158 -13 196 -36c58 -34 88 -84 88 -148c0 -89 -60 -127 -106 -150c-10 -5 -10 -11 -5 -22c66 -134 107 -209 155 -250c26 -21 52 -27 67 -28c9 -5 9 -20 4 -26c-16 -7 -48 -9 -79 -9
c-92 0 -150 33 -194 105c-32 53 -55 102 -78 155c-12 27 -28 35 -53 35c-35 0 -37 -2 -37 -22v-123c0 -92 6 -99 51 -107l27 -5c7 -5 7 -29 0 -35c-53 2 -99 3 -147 3c-50 0 -94 -1 -146 -3c-8 6 -8 30 0 35l27 5c45 8 51 15 51 107zM251 566v-195c0 -35 3 -38 62 -38
c36 0 57 9 76 28c17 17 36 49 36 108c0 90 -53 148 -131 148c-41 0 -43 -3 -43 -51zM329 -55c40 0 88 -28 88 -102c0 -85 -61 -130 -136 -145c-14 1 -17 27 -9 33c30 11 71 42 71 76c0 30 -26 43 -46 48c-13 4 -25 17 -25 39c0 28 26 51 57 51z" />
    <glyph glyph-name="Sacute" unicode="&#x15a;" horiz-adv-x="506" 
d="M477 187c0 -123 -101 -203 -252 -203c-92 0 -149 26 -170 38c-19 22 -32 94 -32 162c7 13 30 14 38 3c20 -65 87 -157 172 -157c74 0 108 51 108 101c0 81 -76 129 -136 159c-72 36 -151 96 -151 195c-1 113 87 191 232 191c33 0 74 -4 114 -16c13 -4 22 -6 34 -8
c8 -22 18 -76 18 -143c-5 -12 -30 -13 -39 -3c-17 51 -60 124 -132 124c-66 0 -102 -43 -102 -93c0 -46 41 -88 91 -114l66 -35c62 -33 141 -91 141 -201zM190 731l162 121c16 12 26 17 33 17c10 0 22 -8 34 -31c12 -21 12 -36 10 -43c-2 -8 -12 -19 -32 -25l-196 -64
c-8 3 -14 14 -11 25z" />
    <glyph glyph-name="Scedilla" unicode="&#x15e;" horiz-adv-x="506" 
d="M185 -96l55 81c-4 -1 -9 -1 -15 -1c-92 0 -149 26 -170 38c-19 22 -32 94 -32 162c7 13 30 14 38 3c20 -65 87 -157 172 -157c74 0 108 51 108 101c0 81 -76 129 -136 159c-72 36 -151 96 -151 195c-1 113 87 191 232 191c33 0 74 -4 114 -16c13 -4 22 -6 34 -8
c8 -22 18 -76 18 -143c-5 -12 -30 -13 -39 -3c-17 51 -60 124 -132 124c-66 0 -102 -43 -102 -93c0 -46 41 -88 91 -114l66 -35c62 -33 141 -91 141 -201c0 -103 -72 -177 -186 -197l-27 -37c-8 -9 -6 -12 8 -19c33 -18 55 -41 55 -77c0 -49 -56 -84 -115 -84
c-43 0 -69 15 -69 40c0 16 11 30 28 30c26 0 42 -33 62 -33c10 0 23 8 23 22c0 29 -36 52 -68 65z" />
    <glyph glyph-name="Scedilla" unicode="&#xf6c1;" horiz-adv-x="506" 
d="M185 -96l55 81c-4 -1 -9 -1 -15 -1c-92 0 -149 26 -170 38c-19 22 -32 94 -32 162c7 13 30 14 38 3c20 -65 87 -157 172 -157c74 0 108 51 108 101c0 81 -76 129 -136 159c-72 36 -151 96 -151 195c-1 113 87 191 232 191c33 0 74 -4 114 -16c13 -4 22 -6 34 -8
c8 -22 18 -76 18 -143c-5 -12 -30 -13 -39 -3c-17 51 -60 124 -132 124c-66 0 -102 -43 -102 -93c0 -46 41 -88 91 -114l66 -35c62 -33 141 -91 141 -201c0 -103 -72 -177 -186 -197l-27 -37c-8 -9 -6 -12 8 -19c33 -18 55 -41 55 -77c0 -49 -56 -84 -115 -84
c-43 0 -69 15 -69 40c0 16 11 30 28 30c26 0 42 -33 62 -33c10 0 23 8 23 22c0 29 -36 52 -68 65z" />
    <glyph glyph-name="Scommaaccent" unicode="&#x218;" horiz-adv-x="506" 
d="M477 187c0 -123 -101 -203 -252 -203c-92 0 -149 26 -170 38c-19 22 -32 94 -32 162c7 13 30 14 38 3c20 -65 87 -157 172 -157c74 0 108 51 108 101c0 81 -76 129 -136 159c-72 36 -151 96 -151 195c-1 113 87 191 232 191c33 0 74 -4 114 -16c13 -4 22 -6 34 -8
c8 -22 18 -76 18 -143c-5 -12 -30 -13 -39 -3c-17 51 -60 124 -132 124c-66 0 -102 -43 -102 -93c0 -46 41 -88 91 -114l66 -35c62 -33 141 -91 141 -201zM232 -55c40 0 88 -28 88 -102c0 -85 -61 -130 -136 -145c-14 1 -17 27 -9 33c30 11 71 42 71 76c0 30 -26 43 -46 48
c-13 4 -25 17 -25 39c0 28 26 51 57 51z" />
    <glyph glyph-name="Tcaron" unicode="&#x164;" horiz-adv-x="645" 
d="M255 144v441c0 24 0 29 -24 29h-62c-73 0 -94 -40 -124 -113c-12 -6 -31 -4 -37 9c21 69 26 131 33 170c4 3 9 5 14 5s10 -1 14 -4c5 -17 8 -21 84 -21h372c66 0 81 1 90 22c4 2 7 3 13 3s13 -4 15 -7c-10 -34 -17 -115 -15 -172c-5 -9 -32 -11 -37 -3
c-17 64 -31 111 -106 111h-60c-24 0 -27 -3 -27 -29v-441c0 -93 6 -101 51 -107l40 -5c7 -6 7 -29 0 -35c-65 2 -115 3 -160 3c-48 0 -100 -1 -170 -3c-8 6 -8 29 0 35l45 5c45 5 51 14 51 107zM187 861l121 -50c13 -5 21 -7 35 -1l120 51c9 0 15 -14 13 -26l-129 -117
c-15 -13 -30 -13 -44 0l-128 117c-2 12 5 25 12 26z" />
    <glyph glyph-name="Tcommaaccent" unicode="&#x162;" horiz-adv-x="645" 
d="M255 144v441c0 24 0 29 -24 29h-62c-73 0 -94 -40 -124 -113c-12 -6 -31 -4 -37 9c21 69 26 131 33 170c4 3 9 5 14 5s10 -1 14 -4c5 -17 8 -21 84 -21h372c66 0 81 1 90 22c4 2 7 3 13 3s13 -4 15 -7c-10 -34 -17 -115 -15 -172c-5 -9 -32 -11 -37 -3
c-17 64 -31 111 -106 111h-60c-24 0 -27 -3 -27 -29v-441c0 -93 6 -101 51 -107l40 -5c7 -6 7 -29 0 -35c-65 2 -115 3 -160 3c-48 0 -100 -1 -170 -3c-8 6 -8 29 0 35l45 5c45 5 51 14 51 107zM312 -55c40 0 88 -28 88 -102c0 -85 -61 -130 -136 -145c-14 1 -17 27 -9 33
c30 11 71 42 71 76c0 30 -26 43 -46 48c-13 4 -25 17 -25 39c0 28 26 51 57 51z" />
    <glyph glyph-name="Tcommaaccent" unicode="&#x21a;" horiz-adv-x="645" 
d="M255 144v441c0 24 0 29 -24 29h-62c-73 0 -94 -40 -124 -113c-12 -6 -31 -4 -37 9c21 69 26 131 33 170c4 3 9 5 14 5s10 -1 14 -4c5 -17 8 -21 84 -21h372c66 0 81 1 90 22c4 2 7 3 13 3s13 -4 15 -7c-10 -34 -17 -115 -15 -172c-5 -9 -32 -11 -37 -3
c-17 64 -31 111 -106 111h-60c-24 0 -27 -3 -27 -29v-441c0 -93 6 -101 51 -107l40 -5c7 -6 7 -29 0 -35c-65 2 -115 3 -160 3c-48 0 -100 -1 -170 -3c-8 6 -8 29 0 35l45 5c45 5 51 14 51 107zM312 -55c40 0 88 -28 88 -102c0 -85 -61 -130 -136 -145c-14 1 -17 27 -9 33
c30 11 71 42 71 76c0 30 -26 43 -46 48c-13 4 -25 17 -25 39c0 28 26 51 57 51z" />
    <glyph glyph-name="Uhungarumlaut" unicode="&#x170;" horiz-adv-x="740" 
d="M109 266v250c0 93 -6 99 -51 108l-25 5c-8 6 -9 28 2 34c48 -2 98 -3 146 -3c49 0 98 1 146 3c8 -6 8 -28 0 -34l-24 -4c-45 -8 -51 -16 -51 -109v-231c0 -117 13 -246 165 -246c128 0 167 112 167 249v121c0 81 -4 157 -15 183c-9 21 -31 27 -58 32l-27 5
c-8 8 -6 28 0 34c54 -2 93 -3 134 -3c37 0 74 1 112 3c6 -6 8 -26 0 -34l-18 -4c-26 -6 -45 -12 -54 -33c-11 -26 -15 -102 -15 -183v-112c0 -94 -9 -180 -64 -241c-44 -47 -117 -72 -198 -72c-76 0 -144 12 -198 56c-52 43 -74 117 -74 226zM437 726l73 134
c7 10 15 20 27 20c10 0 24 -7 38 -19c21 -20 24 -30 24 -42c0 -10 -13 -22 -32 -36l-106 -77c-8 0 -22 10 -24 20zM265 726l73 134c7 10 16 20 27 20s24 -6 41 -21c16 -14 22 -28 22 -40c0 -10 -14 -22 -33 -36l-106 -77c-8 0 -22 10 -24 20z" />
    <glyph glyph-name="Umacron" unicode="&#x16a;" horiz-adv-x="740" 
d="M109 266v250c0 93 -6 99 -51 108l-25 5c-8 6 -9 28 2 34c48 -2 98 -3 146 -3c49 0 98 1 146 3c8 -6 8 -28 0 -34l-24 -4c-45 -8 -51 -16 -51 -109v-231c0 -117 13 -246 165 -246c128 0 167 112 167 249v121c0 81 -4 157 -15 183c-9 21 -31 27 -58 32l-27 5
c-8 8 -6 28 0 34c54 -2 93 -3 134 -3c37 0 74 1 112 3c6 -6 8 -26 0 -34l-18 -4c-26 -6 -45 -12 -54 -33c-11 -26 -15 -102 -15 -183v-112c0 -94 -9 -180 -64 -241c-44 -47 -117 -72 -198 -72c-76 0 -144 12 -198 56c-52 43 -74 117 -74 226zM514 725h-253
c-12 16 -12 59 0 75h253c13 -11 13 -59 0 -75z" />
    <glyph glyph-name="Uogonek" unicode="&#x172;" horiz-adv-x="740" 
d="M109 266v250c0 93 -6 99 -51 108l-25 5c-8 6 -9 28 2 34c48 -2 98 -3 146 -3c49 0 98 1 146 3c8 -6 8 -28 0 -34l-24 -4c-45 -8 -51 -16 -51 -109v-231c0 -117 13 -246 165 -246c128 0 167 112 167 249v121c0 81 -4 157 -15 183c-9 21 -31 27 -58 32l-27 5
c-8 8 -6 28 0 34c54 -2 93 -3 134 -3c37 0 74 1 112 3c6 -6 8 -26 0 -34l-18 -4c-26 -6 -45 -12 -54 -33c-11 -26 -15 -102 -15 -183v-112c0 -94 -9 -180 -64 -241c-29 -31 -70 -53 -118 -62c-48 -39 -69 -85 -69 -121c0 -30 21 -53 49 -53c18 0 32 4 45 9c6 -2 9 -10 9 -18
c-23 -31 -65 -49 -105 -49c-65 0 -85 43 -85 81c0 47 34 94 95 143c-6 -2 -12 -2 -19 -2c-76 0 -144 12 -198 56c-52 43 -74 117 -74 226z" />
    <glyph glyph-name="Uring" unicode="&#x16e;" horiz-adv-x="740" 
d="M109 266v250c0 93 -6 99 -51 108l-25 5c-8 6 -9 28 2 34c48 -2 98 -3 146 -3c49 0 98 1 146 3c8 -6 8 -28 0 -34l-24 -4c-45 -8 -51 -16 -51 -109v-231c0 -117 13 -246 165 -246c128 0 167 112 167 249v121c0 81 -4 157 -15 183c-9 21 -31 27 -58 32l-27 5
c-8 8 -6 28 0 34c54 -2 93 -3 134 -3c37 0 74 1 112 3c6 -6 8 -26 0 -34l-18 -4c-26 -6 -45 -12 -54 -33c-11 -26 -15 -102 -15 -183v-112c0 -94 -9 -180 -64 -241c-44 -47 -117 -72 -198 -72c-76 0 -144 12 -198 56c-52 43 -74 117 -74 226zM398 689c-64 0 -103 49 -103 99
s39 98 103 98s103 -48 103 -98s-39 -99 -103 -99zM398 727c29 0 45 28 45 61s-16 61 -45 63c-29 -2 -45 -30 -45 -63s16 -61 45 -61z" />
    <glyph glyph-name="Zacute" unicode="&#x179;" horiz-adv-x="614" 
d="M360 614h-108c-116 0 -137 -31 -171 -115c-13 -8 -35 -4 -41 7c19 70 29 124 39 177c4 4 18 4 26 1c6 -20 11 -24 85 -24h286c69 0 100 1 117 3c5 -3 7 -9 6 -15c-16 -17 -71 -92 -150 -214l-109 -169c-101 -157 -126 -194 -126 -206c0 -8 11 -13 92 -13h93
c98 0 132 13 187 126c12 8 32 4 39 -7c-6 -55 -28 -143 -44 -168c-84 2 -139 3 -209 3h-252c-53 0 -85 -1 -101 -3c-7 3 -10 11 -8 17c15 17 62 89 92 134l197 300c18 28 66 103 84 136c7 13 10 18 10 24c0 4 -9 6 -34 6zM253 732l171 127c17 12 27 18 34 18
c11 0 23 -8 36 -32c13 -22 13 -38 10 -46c-2 -8 -12 -19 -33 -26l-206 -67c-8 3 -15 15 -12 26z" />
    <glyph glyph-name="Zdotaccent" unicode="&#x17b;" horiz-adv-x="614" 
d="M360 614h-108c-116 0 -137 -31 -171 -115c-13 -8 -35 -4 -41 7c19 70 29 124 39 177c4 4 18 4 26 1c6 -20 11 -24 85 -24h286c69 0 100 1 117 3c5 -3 7 -9 6 -15c-16 -17 -71 -92 -150 -214l-109 -169c-101 -157 -126 -194 -126 -206c0 -8 11 -13 92 -13h93
c98 0 132 13 187 126c12 8 32 4 39 -7c-6 -55 -28 -143 -44 -168c-84 2 -139 3 -209 3h-252c-53 0 -85 -1 -101 -3c-7 3 -10 11 -8 17c15 17 62 89 92 134l197 300c18 28 66 103 84 136c7 13 10 18 10 24c0 4 -9 6 -34 6zM338 712c-36 0 -65 21 -66 61c0 39 29 67 66 67
c36 0 63 -29 63 -61c0 -41 -27 -67 -63 -67z" />
    <glyph glyph-name="Idotaccent" unicode="&#x130;" horiz-adv-x="371" 
d="M257 514v-368c0 -94 6 -101 52 -109l28 -5c8 -6 7 -29 -1 -35c-54 2 -103 3 -150 3c-48 0 -98 -1 -152 -3c-8 6 -8 29 0 35l28 5c46 8 52 15 52 109v368c0 94 -6 101 -52 109l-28 5c-8 6 -8 29 0 35c54 -2 104 -3 152 -3c47 0 97 1 151 3c8 -6 8 -29 0 -35l-28 -5
c-46 -8 -52 -15 -52 -109zM187 712c-36 0 -65 21 -66 61c0 39 29 67 66 67c36 0 63 -29 63 -61c0 -41 -27 -67 -63 -67z" />
    <glyph glyph-name="abreve" unicode="&#x103;" horiz-adv-x="443" 
d="M378 269l-7 -132c-4 -68 25 -86 45 -86c12 0 22 3 38 12c9 -2 15 -14 12 -23c-12 -16 -59 -54 -116 -54c-35 0 -57 12 -84 35c-7 6 -11 8 -16 8s-11 -4 -21 -11c-18 -13 -48 -32 -85 -32c-58 0 -112 35 -112 105c0 51 31 82 104 104c38 12 66 20 94 28c18 5 23 12 24 20
c1 11 2 22 2 34c0 38 -15 86 -58 86c-24 0 -45 -14 -52 -57c-2 -16 -8 -25 -17 -32c-15 -11 -54 -23 -72 -23c-17 0 -23 11 -23 25c0 26 24 58 48 77c34 27 97 61 168 61c84 0 133 -42 128 -145zM249 100l2 63c1 16 0 19 -7 18c-45 -6 -84 -23 -84 -70c0 -32 23 -60 51 -60
c31 0 37 18 38 49zM222 478c-86 0 -131 59 -127 162c7 5 25 5 31 0c11 -52 50 -83 96 -83s85 31 96 83c6 5 24 5 31 0c4 -103 -41 -162 -127 -162z" />
    <glyph glyph-name="amacron" unicode="&#x101;" horiz-adv-x="443" 
d="M378 269l-7 -132c-4 -68 25 -86 45 -86c12 0 22 3 38 12c9 -2 15 -14 12 -23c-12 -16 -59 -54 -116 -54c-35 0 -57 12 -84 35c-7 6 -11 8 -16 8s-11 -4 -21 -11c-18 -13 -48 -32 -85 -32c-58 0 -112 35 -112 105c0 51 31 82 104 104c38 12 66 20 94 28c18 5 23 12 24 20
c1 11 2 22 2 34c0 38 -15 86 -58 86c-24 0 -45 -14 -52 -57c-2 -16 -8 -25 -17 -32c-15 -11 -54 -23 -72 -23c-17 0 -23 11 -23 25c0 26 24 58 48 77c34 27 97 61 168 61c84 0 133 -42 128 -145zM249 100l2 63c1 16 0 19 -7 18c-45 -6 -84 -23 -84 -70c0 -32 23 -60 51 -60
c31 0 37 18 38 49zM348 496h-253c-12 16 -12 56 0 72h253c13 -11 13 -56 0 -72z" />
    <glyph glyph-name="aogonek" unicode="&#x105;" horiz-adv-x="443" 
d="M249 100l2 63c1 16 0 19 -7 18c-45 -6 -84 -23 -84 -70c0 -32 23 -60 51 -60c31 0 37 18 38 49zM250 414c84 0 133 -42 128 -145l-7 -132c-4 -68 25 -86 45 -86c12 0 22 3 38 12c9 -2 15 -14 12 -23c-5 -6 -15 -16 -27 -26c-61 -55 -89 -107 -89 -151
c0 -34 23 -59 60 -59c20 0 35 4 50 15c7 -2 10 -11 10 -19c-26 -39 -67 -55 -106 -55c-77 0 -100 48 -100 90c0 43 28 93 107 158c-8 -3 -16 -5 -22 -6s-10 -1 -14 -1c-19 0 -55 11 -71 33c-5 8 -9 10 -14 10s-11 -4 -21 -11c-18 -13 -48 -32 -85 -32
c-58 0 -112 35 -112 105c0 51 31 82 104 104c38 12 66 20 94 28c18 5 23 12 24 20c1 11 2 22 2 34c0 38 -15 86 -58 86c-24 0 -45 -14 -52 -57c-2 -16 -8 -25 -17 -32c-15 -11 -54 -23 -72 -23c-17 0 -23 11 -23 25c0 26 24 58 48 77c34 27 97 61 168 61z" />
    <glyph glyph-name="cacute" unicode="&#x107;" horiz-adv-x="416" 
d="M281 414c34 0 78 -7 105 -17c13 -11 21 -25 21 -52c0 -30 -14 -57 -26 -57c-5 0 -14 2 -16 5c-28 40 -67 75 -103 75c-65 0 -100 -74 -100 -143c0 -79 51 -159 143 -159c37 0 67 12 89 49c12 1 26 -6 26 -22c-22 -50 -82 -107 -177 -107c-126 0 -212 84 -212 202
c0 142 115 226 250 226zM213 465l91 182c11 23 21 30 31 30c11 0 22 -4 39 -16c18 -14 27 -25 27 -36s-9 -24 -22 -37l-141 -139c-14 -2 -23 4 -25 16z" />
    <glyph glyph-name="ccaron" unicode="&#x10d;" horiz-adv-x="416" 
d="M281 414c34 0 78 -7 105 -17c13 -11 21 -25 21 -52c0 -30 -14 -57 -26 -57c-5 0 -14 2 -16 5c-28 40 -67 75 -103 75c-65 0 -100 -74 -100 -143c0 -79 51 -159 143 -159c37 0 67 12 89 49c12 1 26 -6 26 -22c-22 -50 -82 -107 -177 -107c-126 0 -212 84 -212 202
c0 142 115 226 250 226zM380 657l-106 -191c-6 -11 -11 -13 -23 -13s-17 2 -23 13l-106 191c5 12 18 17 29 18l80 -92c11 -13 17 -19 20 -19s10 6 21 18l80 93c10 -1 23 -6 28 -18z" />
    <glyph glyph-name="dcaron" unicode="&#x10f;" horiz-adv-x="537" 
d="M466 562v-398c0 -94 4 -117 23 -117c18 0 26 2 43 8c11 -9 11 -34 1 -43c-99 -6 -177 -36 -180 -36c-7 0 -15 6 -17 14l3 31c-1 8 -5 11 -9 8c-35 -22 -71 -43 -108 -43c-114 0 -191 89 -191 197c0 141 106 231 238 231c22 0 46 -2 57 -5c7 3 10 11 10 19v128
c0 40 0 51 -20 63l-17 10c-8 6 -7 24 0 30c43 10 104 34 153 56c7 0 13 -2 17 -7c-2 -41 -3 -83 -3 -146zM336 103v194c0 16 -3 26 -7 34c-12 21 -34 37 -57 37c-51 0 -101 -53 -101 -158c0 -66 30 -157 112 -157c14 0 28 4 41 12c11 7 12 20 12 38zM573 715
c32 0 73 -29 73 -99c0 -84 -59 -135 -119 -151c-14 2 -17 24 -8 30c23 11 58 40 58 77c0 33 -20 47 -34 53c-14 4 -24 18 -24 37c0 29 25 53 54 53z" />
    <glyph glyph-name="dcroat" unicode="&#x111;" horiz-adv-x="537" 
d="M336 103v194c0 16 -3 26 -7 34c-12 21 -34 37 -57 37c-51 0 -101 -53 -101 -158c0 -66 30 -157 112 -157c14 0 28 4 41 12c11 7 12 20 12 38zM532 562v-52h-66v-346c0 -94 4 -117 23 -117c18 0 26 2 43 8c11 -9 11 -34 1 -43c-99 -6 -177 -36 -180 -36c-7 0 -15 6 -17 14
l3 31c-1 8 -5 11 -9 8c-35 -22 -71 -43 -108 -43c-114 0 -191 89 -191 197c0 141 106 231 238 231c22 0 46 -2 57 -5c7 3 10 11 10 19v82h-94v52h94c0 36 -1 46 -20 57l-17 10c-8 6 -7 24 0 30c43 10 104 34 153 56c7 0 13 -2 17 -7c-2 -41 -3 -83 -3 -146h66z" />
    <glyph glyph-name="ecaron" unicode="&#x11b;" horiz-adv-x="420" 
d="M372 237h-192c-23 0 -25 -2 -25 -18c0 -75 48 -148 141 -148c28 0 66 6 93 52c11 2 26 -6 26 -23c-41 -85 -115 -114 -175 -114c-135 0 -208 95 -208 204c0 126 91 224 216 224c104 0 160 -67 160 -144c0 -19 -5 -33 -36 -33zM209 281h37c14 0 30 2 41 9c5 3 7 13 7 23
c0 33 -19 55 -53 55c-42 0 -78 -40 -78 -72c0 -14 14 -15 46 -15zM369 660l-106 -191c-6 -11 -11 -13 -23 -13s-17 2 -23 13l-106 191c5 12 18 17 29 18l80 -92c11 -13 17 -19 20 -19s10 6 21 18l80 93c10 -1 23 -6 28 -18z" />
    <glyph glyph-name="edotaccent" unicode="&#x117;" horiz-adv-x="420" 
d="M372 237h-192c-23 0 -25 -2 -25 -18c0 -75 48 -148 141 -148c28 0 66 6 93 52c11 2 26 -6 26 -23c-41 -85 -115 -114 -175 -114c-135 0 -208 95 -208 204c0 126 91 224 216 224c104 0 160 -67 160 -144c0 -19 -5 -33 -36 -33zM209 281h37c14 0 30 2 41 9c5 3 7 13 7 23
c0 33 -19 55 -53 55c-42 0 -78 -40 -78 -72c0 -14 14 -15 46 -15zM239 487c-35 0 -62 20 -63 59c0 37 27 64 63 64c35 0 61 -28 61 -59c0 -39 -26 -64 -61 -64z" />
    <glyph glyph-name="emacron" unicode="&#x113;" horiz-adv-x="420" 
d="M372 237h-192c-23 0 -25 -2 -25 -18c0 -75 48 -148 141 -148c28 0 66 6 93 52c11 2 26 -6 26 -23c-41 -85 -115 -114 -175 -114c-135 0 -208 95 -208 204c0 126 91 224 216 224c104 0 160 -67 160 -144c0 -19 -5 -33 -36 -33zM209 281h37c14 0 30 2 41 9c5 3 7 13 7 23
c0 33 -19 55 -53 55c-42 0 -78 -40 -78 -72c0 -14 14 -15 46 -15zM358 491h-253c-12 16 -12 56 0 72h253c13 -11 13 -56 0 -72z" />
    <glyph glyph-name="eogonek" unicode="&#x119;" horiz-adv-x="420" 
d="M209 281h37c14 0 30 2 41 9c5 3 7 13 7 23c0 33 -19 55 -53 55c-42 0 -78 -40 -78 -72c0 -14 14 -15 46 -15zM248 414c104 0 160 -67 160 -144c0 -19 -5 -33 -36 -33h-192c-23 0 -25 -2 -25 -18c0 -75 48 -148 141 -148c28 0 66 6 93 52c11 2 26 -6 26 -23
c-17 -36 -46 -62 -68 -84c-70 -71 -84 -115 -84 -153c0 -34 23 -59 60 -59c20 0 35 4 50 15c7 -2 10 -11 10 -19c-26 -39 -67 -55 -106 -55c-77 0 -100 48 -100 90c0 41 25 88 100 156c-8 -2 -15 -3 -21 -4s-11 -1 -16 -1c-135 0 -208 95 -208 204c0 126 91 224 216 224z
" />
    <glyph glyph-name="gbreve" unicode="&#x11f;" horiz-adv-x="479" 
d="M377 377h115c7 -6 9 -14 9 -25c0 -16 -5 -34 -15 -40h-74c2 -9 3 -18 3 -35c0 -79 -47 -175 -205 -175c-16 0 -30 2 -41 3c-10 -4 -17 -12 -17 -24c0 -22 21 -36 51 -36c34 0 75 2 122 2c75 0 155 -20 155 -121c0 -63 -38 -119 -90 -151c-52 -31 -117 -44 -175 -44
c-144 0 -196 66 -196 128c0 24 15 40 32 50c20 12 38 25 49 31c12 7 9 12 1 14c-37 12 -62 45 -62 80c0 8 2 16 7 21c28 18 58 41 64 47c9 7 13 13 8 22c-50 20 -85 68 -85 129c0 83 65 161 195 161c59 0 112 -17 149 -37zM163 270c0 -76 29 -123 69 -123c31 0 57 29 57 102
c0 81 -29 119 -65 119c-31 0 -61 -30 -61 -98zM277 -56h-67c-27 0 -47 -6 -56 -13c-10 -9 -14 -22 -14 -35c0 -68 51 -112 130 -112c63 0 105 31 105 79c0 58 -43 81 -98 81zM240 481c-86 0 -131 59 -127 162c7 5 25 5 31 0c11 -52 50 -83 96 -83s85 31 96 83c6 5 24 5 31 0
c4 -103 -41 -162 -127 -162z" />
    <glyph glyph-name="gcommaaccent" unicode="&#x123;" horiz-adv-x="479" 
d="M377 377h115c7 -6 9 -14 9 -25c0 -16 -5 -34 -15 -40h-74c2 -9 3 -18 3 -35c0 -79 -47 -175 -205 -175c-16 0 -30 2 -41 3c-10 -4 -17 -12 -17 -24c0 -22 21 -36 51 -36c34 0 75 2 122 2c75 0 155 -20 155 -121c0 -63 -38 -119 -90 -151c-52 -31 -117 -44 -175 -44
c-144 0 -196 66 -196 128c0 24 15 40 32 50c20 12 38 25 49 31c12 7 9 12 1 14c-37 12 -62 45 -62 80c0 8 2 16 7 21c28 18 58 41 64 47c9 7 13 13 8 22c-50 20 -85 68 -85 129c0 83 65 161 195 161c59 0 112 -17 149 -37zM163 270c0 -76 29 -123 69 -123c31 0 57 29 57 102
c0 81 -29 119 -65 119c-31 0 -61 -30 -61 -98zM277 -56h-67c-27 0 -47 -6 -56 -13c-10 -9 -14 -22 -14 -35c0 -68 51 -112 130 -112c63 0 105 31 105 79c0 58 -43 81 -98 81zM245 476c-37 0 -86 27 -86 95c0 73 62 118 135 132c14 -2 18 -24 9 -30c-30 -10 -65 -35 -65 -70
c0 -28 20 -38 40 -44c14 -4 25 -17 25 -35c0 -26 -26 -48 -58 -48z" />
    <glyph glyph-name="imacron" unicode="&#x12b;" horiz-adv-x="286" 
d="M214 300v-184c0 -70 4 -79 37 -82l19 -2c8 -6 8 -29 -1 -35c-35 2 -74 3 -120 3c-45 0 -87 -1 -120 -3c-9 6 -9 29 -1 35l19 2c33 3 37 12 37 82v151c0 40 0 52 -19 64l-14 9c-7 6 -7 24 0 30c47 13 118 40 148 58c8 0 14 -3 18 -9c-2 -30 -3 -74 -3 -119zM274 500h-253
c-12 16 -12 51 0 67h253c13 -16 13 -51 0 -67z" />
    <glyph glyph-name="iogonek" unicode="&#x12f;" horiz-adv-x="286" 
d="M214 300v-184c0 -70 4 -79 37 -82l19 -2c8 -6 8 -29 -1 -35c-29 2 -61 3 -98 3c-17 -30 -28 -65 -28 -92c0 -47 36 -73 76 -73c13 0 31 2 45 9c6 -3 9 -9 9 -18c-27 -32 -68 -54 -109 -54c-66 0 -102 41 -102 92c0 46 26 91 65 136c-23 0 -65 -1 -98 -3c-9 6 -9 29 -1 35
l19 2c33 3 37 12 37 82v151c0 40 0 52 -19 64l-14 9c-7 6 -7 24 0 30c47 13 118 40 148 58c8 0 14 -3 18 -9c-2 -30 -3 -74 -3 -119zM152 639c42 0 70 -31 70 -71c0 -48 -37 -73 -75 -73c-44 0 -70 30 -70 71c0 44 35 73 75 73z" />
    <glyph glyph-name="kcommaaccent" unicode="&#x137;" horiz-adv-x="532" 
d="M76 116v440c0 40 0 51 -20 63l-17 10c-7 6 -7 24 0 30c41 10 102 34 153 56c6 0 13 -2 17 -7c-2 -41 -3 -83 -3 -146v-314c0 -11 3 -14 14 -14c17 0 38 5 58 28l42 49c19 23 24 34 24 40c0 5 -10 9 -19 10l-25 4c-9 9 -8 31 2 35h24c47 0 130 5 189 14
c10 -5 11 -27 4 -35l-32 -7c-19 -4 -40 -14 -67 -35c-38 -29 -53 -44 -67 -58c-5 -6 -6 -10 -6 -13s2 -9 7 -17c18 -32 106 -168 131 -191c14 -13 33 -18 59 -23l15 -3c8 -7 6 -31 -4 -35c-31 2 -68 3 -126 3c-59 0 -95 -1 -123 -3c-10 5 -12 26 -4 35l13 3c10 2 16 4 16 8
s-9 20 -17 32l-71 108c-7 11 -15 15 -25 15c-7 0 -12 -5 -12 -24v-58c0 -70 4 -78 39 -82l16 -2c8 -6 8 -29 -1 -35c-32 2 -74 3 -120 3s-87 -1 -122 -3c-9 6 -9 29 -1 35l19 2c36 4 40 12 40 82zM255 -45c33 0 84 -28 84 -99c0 -82 -60 -125 -131 -140c-14 1 -17 27 -8 33
c28 10 68 37 68 71c0 31 -25 45 -44 50c-14 4 -24 18 -24 35c0 28 25 50 55 50z" />
    <glyph glyph-name="lacute" unicode="&#x13a;" horiz-adv-x="278" 
d="M76 116v440c0 40 0 51 -20 63l-17 10c-7 6 -7 24 0 30c43 10 103 34 153 56c6 0 13 -2 17 -7c-2 -41 -3 -83 -3 -146v-446c0 -70 4 -78 39 -82l17 -2c8 -6 8 -29 -1 -35c-33 2 -75 3 -120 3c-43 0 -85 -1 -120 -3c-9 6 -9 29 -1 35l19 2c33 3 37 12 37 82zM56 761
l162 121c16 12 26 17 33 17c10 0 22 -8 34 -31c12 -21 12 -36 10 -43c-2 -8 -12 -19 -32 -25l-196 -64c-8 3 -14 14 -11 25z" />
    <glyph glyph-name="lcaron" unicode="&#x13e;" horiz-adv-x="278" 
d="M76 116v440c0 40 0 51 -20 63l-17 10c-7 6 -7 24 0 30c43 10 103 34 153 56c6 0 13 -2 17 -7c-2 -41 -3 -83 -3 -146v-446c0 -70 4 -78 39 -82l17 -2c8 -6 8 -29 -1 -35c-33 2 -75 3 -120 3c-43 0 -85 -1 -120 -3c-9 6 -9 29 -1 35l19 2c33 3 37 12 37 82zM313 715
c32 0 73 -29 73 -99c0 -84 -59 -135 -119 -151c-14 2 -17 24 -8 30c23 11 58 40 58 77c0 33 -20 47 -34 53c-14 4 -24 18 -24 37c0 29 25 53 54 53z" />
    <glyph glyph-name="lcommaaccent" unicode="&#x13c;" horiz-adv-x="278" 
d="M76 116v440c0 40 0 51 -20 63l-17 10c-7 6 -7 24 0 30c43 10 103 34 153 56c6 0 13 -2 17 -7c-2 -41 -3 -83 -3 -146v-446c0 -70 4 -78 39 -82l17 -2c8 -6 8 -29 -1 -35c-33 2 -75 3 -120 3c-43 0 -85 -1 -120 -3c-9 6 -9 29 -1 35l19 2c33 3 37 12 37 82zM128 -45
c33 0 84 -28 84 -99c0 -82 -60 -125 -131 -140c-14 1 -17 27 -8 33c28 10 68 37 68 71c0 31 -25 45 -44 50c-14 4 -24 18 -24 35c0 28 25 50 55 50z" />
    <glyph glyph-name="nacute" unicode="&#x144;" horiz-adv-x="550" 
d="M84 116v151c0 40 0 52 -19 64l-14 9c-7 6 -7 24 0 30c47 13 119 40 148 58c8 0 14 -3 18 -9c0 -14 -3 -38 -3 -45c0 -6 2 -8 5 -8s13 5 19 8c22 13 69 40 115 40c83 0 125 -57 125 -126v-172c0 -70 4 -78 40 -82l16 -2c8 -6 8 -29 -1 -35c-31 2 -73 3 -121 3
c-40 0 -79 -1 -108 -3c-9 6 -9 29 -1 35l18 3c23 4 27 11 27 66v169c0 39 -20 71 -70 71c-28 0 -48 -13 -56 -24c-6 -7 -8 -19 -8 -37v-179c0 -55 4 -64 29 -67l16 -2c8 -6 8 -29 -1 -35c-31 2 -63 3 -111 3c-42 0 -83 -1 -118 -3c-9 6 -9 29 -1 35l16 2c36 4 40 12 40 82z
M239 473l91 182c11 23 21 30 31 30c11 0 22 -4 39 -16c18 -14 27 -25 27 -36s-9 -24 -22 -37l-141 -139c-14 -2 -23 4 -25 16z" />
    <glyph glyph-name="ncaron" unicode="&#x148;" horiz-adv-x="550" 
d="M84 116v151c0 40 0 52 -19 64l-14 9c-7 6 -7 24 0 30c47 13 119 40 148 58c8 0 14 -3 18 -9c0 -14 -3 -38 -3 -45c0 -6 2 -8 5 -8s13 5 19 8c22 13 69 40 115 40c83 0 125 -57 125 -126v-172c0 -70 4 -78 40 -82l16 -2c8 -6 8 -29 -1 -35c-31 2 -73 3 -121 3
c-40 0 -79 -1 -108 -3c-9 6 -9 29 -1 35l18 3c23 4 27 11 27 66v169c0 39 -20 71 -70 71c-28 0 -48 -13 -56 -24c-6 -7 -8 -19 -8 -37v-179c0 -55 4 -64 29 -67l16 -2c8 -6 8 -29 -1 -35c-31 2 -63 3 -111 3c-42 0 -83 -1 -118 -3c-9 6 -9 29 -1 35l16 2c36 4 40 12 40 82z
M404 660l-106 -191c-6 -11 -11 -13 -23 -13s-17 2 -23 13l-106 191c5 12 18 17 29 18l80 -92c11 -13 17 -19 20 -19s10 6 21 18l80 93c10 -1 23 -6 28 -18z" />
    <glyph glyph-name="ncommaaccent" unicode="&#x146;" horiz-adv-x="550" 
d="M84 116v151c0 40 0 52 -19 64l-14 9c-7 6 -7 24 0 30c47 13 119 40 148 58c8 0 14 -3 18 -9c0 -14 -3 -38 -3 -45c0 -6 2 -8 5 -8s13 5 19 8c22 13 69 40 115 40c83 0 125 -57 125 -126v-172c0 -70 4 -78 40 -82l16 -2c8 -6 8 -29 -1 -35c-31 2 -73 3 -121 3
c-40 0 -79 -1 -108 -3c-9 6 -9 29 -1 35l18 3c23 4 27 11 27 66v169c0 39 -20 71 -70 71c-28 0 -48 -13 -56 -24c-6 -7 -8 -19 -8 -37v-179c0 -55 4 -64 29 -67l16 -2c8 -6 8 -29 -1 -35c-31 2 -63 3 -111 3c-42 0 -83 -1 -118 -3c-9 6 -9 29 -1 35l16 2c36 4 40 12 40 82z
M264 -45c33 0 84 -28 84 -99c0 -82 -60 -125 -131 -140c-14 1 -17 27 -8 33c28 10 68 37 68 71c0 31 -25 45 -44 50c-14 4 -24 18 -24 35c0 28 25 50 55 50z" />
    <glyph glyph-name="ohungarumlaut" unicode="&#x151;" horiz-adv-x="516" 
d="M255 -14c-119 0 -223 68 -224 206c-1 143 112 222 230 222s224 -72 224 -213c0 -146 -107 -215 -230 -215zM255 368c-44 0 -80 -45 -80 -154c0 -105 33 -182 91 -182c57 0 76 65 75 155c-1 97 -29 181 -86 181zM139 463l64 181c8 24 18 31 28 31c11 0 22 -4 39 -16
c18 -14 27 -25 27 -36s-9 -24 -20 -38l-110 -138c-14 -2 -26 4 -28 16zM314 463l64 181c8 24 18 31 28 31c11 0 22 -4 39 -16c18 -14 27 -25 27 -36s-9 -24 -20 -38l-109 -138c-14 -2 -27 4 -29 16z" />
    <glyph glyph-name="omacron" unicode="&#x14d;" horiz-adv-x="516" 
d="M255 -14c-119 0 -223 68 -224 206c-1 143 112 222 230 222s224 -72 224 -213c0 -146 -107 -215 -230 -215zM255 368c-44 0 -80 -45 -80 -154c0 -105 33 -182 91 -182c57 0 76 65 75 155c-1 97 -29 181 -86 181zM384 496h-253c-12 16 -12 56 0 72h253c13 -16 13 -56 0 -72
z" />
    <glyph glyph-name="racute" unicode="&#x155;" horiz-adv-x="371" 
d="M84 114v151c0 40 0 52 -19 64l-14 9c-7 6 -7 24 0 30c46 13 115 40 146 60c8 0 14 -3 18 -9c-2 -20 -4 -34 -4 -43c0 -7 2 -10 10 -12c27 17 56 50 98 50c27 0 55 -21 55 -59c0 -46 -32 -65 -64 -65c-14 0 -26 6 -39 18c-23 19 -32 20 -38 20c-14 0 -19 -22 -19 -60v-154
c0 -70 4 -78 37 -81l32 -3c8 -6 8 -29 -1 -35c-48 2 -88 3 -135 3c-41 0 -85 -1 -118 -3c-9 6 -9 29 -1 35l19 2c33 3 37 12 37 82zM152 473l91 182c11 23 21 30 31 30c11 0 22 -4 39 -16c18 -14 27 -25 27 -36s-9 -24 -22 -37l-141 -139c-14 -2 -23 4 -25 16z" />
    <glyph glyph-name="rcaron" unicode="&#x159;" horiz-adv-x="371" 
d="M84 114v151c0 40 0 52 -19 64l-14 9c-7 6 -7 24 0 30c46 13 115 40 146 60c8 0 14 -3 18 -9c-2 -20 -4 -34 -4 -43c0 -7 2 -10 10 -12c27 17 56 50 98 50c27 0 55 -21 55 -59c0 -46 -32 -65 -64 -65c-14 0 -26 6 -39 18c-23 19 -32 20 -38 20c-14 0 -19 -22 -19 -60v-154
c0 -70 4 -78 37 -81l32 -3c8 -6 8 -29 -1 -35c-48 2 -88 3 -135 3c-41 0 -85 -1 -118 -3c-9 6 -9 29 -1 35l19 2c33 3 37 12 37 82zM330 660l-106 -191c-6 -11 -11 -13 -23 -13s-17 2 -23 13l-106 191c5 12 18 17 29 18l80 -92c11 -13 17 -19 20 -19s10 6 21 18l80 93
c10 -1 23 -6 28 -18z" />
    <glyph glyph-name="rcommaaccent" unicode="&#x157;" horiz-adv-x="371" 
d="M84 114v151c0 40 0 52 -19 64l-14 9c-7 6 -7 24 0 30c46 13 115 40 146 60c8 0 14 -3 18 -9c-2 -20 -4 -34 -4 -43c0 -7 2 -10 10 -12c27 17 56 50 98 50c27 0 55 -21 55 -59c0 -46 -32 -65 -64 -65c-14 0 -26 6 -39 18c-23 19 -32 20 -38 20c-14 0 -19 -22 -19 -60v-154
c0 -70 4 -78 37 -81l32 -3c8 -6 8 -29 -1 -35c-48 2 -88 3 -135 3c-41 0 -85 -1 -118 -3c-9 6 -9 29 -1 35l19 2c33 3 37 12 37 82zM143 -45c33 0 84 -28 84 -99c0 -82 -60 -125 -131 -140c-14 1 -17 27 -8 33c28 10 68 37 68 71c0 31 -25 45 -44 50c-14 4 -24 18 -24 35
c0 28 25 50 55 50z" />
    <glyph glyph-name="sacute" unicode="&#x15b;" horiz-adv-x="358" 
d="M164 -14c-57 0 -97 10 -124 31c-11 20 -18 68 -16 113c6 10 28 11 34 2c13 -41 51 -100 102 -100c30 0 52 18 52 52c0 37 -32 58 -66 75c-60 30 -103 66 -103 126c0 87 73 129 159 129c51 0 96 -13 107 -21c10 -22 15 -62 15 -100c-4 -11 -29 -11 -35 -4
c-20 58 -45 79 -78 79c-29 0 -50 -17 -50 -44c0 -23 19 -42 64 -64c68 -33 110 -75 110 -140c-1 -89 -77 -134 -171 -134zM151 462l91 182c11 23 21 30 31 30c11 0 22 -4 39 -16c18 -14 27 -25 27 -36s-9 -24 -22 -37l-141 -139c-14 -2 -23 4 -25 16z" />
    <glyph glyph-name="scedilla" unicode="&#x15f;" horiz-adv-x="358" 
d="M99 -106l63 92c-56 0 -95 10 -122 31c-11 20 -18 68 -16 113c6 10 28 11 34 2c13 -41 51 -100 102 -100c30 0 52 18 52 52c0 37 -32 58 -66 75c-60 30 -103 66 -103 126c0 87 73 129 159 129c51 0 96 -13 107 -21c10 -22 15 -62 15 -100c-4 -11 -29 -11 -35 -4
c-20 58 -45 79 -78 79c-29 0 -50 -17 -50 -44c0 -23 19 -42 64 -64c68 -33 110 -75 110 -140c-1 -71 -49 -114 -117 -128l-32 -44c-8 -10 -6 -13 9 -21c37 -20 61 -46 61 -85c0 -55 -62 -93 -127 -93c-48 0 -77 16 -77 44c0 18 13 33 32 33c28 0 46 -37 68 -37
c11 0 26 9 26 25c0 32 -40 57 -76 72z" />
    <glyph glyph-name="scedilla" unicode="&#xf6c2;" horiz-adv-x="358" 
d="M99 -106l63 92c-56 0 -95 10 -122 31c-11 20 -18 68 -16 113c6 10 28 11 34 2c13 -41 51 -100 102 -100c30 0 52 18 52 52c0 37 -32 58 -66 75c-60 30 -103 66 -103 126c0 87 73 129 159 129c51 0 96 -13 107 -21c10 -22 15 -62 15 -100c-4 -11 -29 -11 -35 -4
c-20 58 -45 79 -78 79c-29 0 -50 -17 -50 -44c0 -23 19 -42 64 -64c68 -33 110 -75 110 -140c-1 -71 -49 -114 -117 -128l-32 -44c-8 -10 -6 -13 9 -21c37 -20 61 -46 61 -85c0 -55 -62 -93 -127 -93c-48 0 -77 16 -77 44c0 18 13 33 32 33c28 0 46 -37 68 -37
c11 0 26 9 26 25c0 32 -40 57 -76 72z" />
    <glyph glyph-name="scommaaccent" unicode="&#x219;" horiz-adv-x="358" 
d="M164 -14c-57 0 -97 10 -124 31c-11 20 -18 68 -16 113c6 10 28 11 34 2c13 -41 51 -100 102 -100c30 0 52 18 52 52c0 37 -32 58 -66 75c-60 30 -103 66 -103 126c0 87 73 129 159 129c51 0 96 -13 107 -21c10 -22 15 -62 15 -100c-4 -11 -29 -11 -35 -4
c-20 58 -45 79 -78 79c-29 0 -50 -17 -50 -44c0 -23 19 -42 64 -64c68 -33 110 -75 110 -140c-1 -89 -77 -134 -171 -134zM158 -45c33 0 84 -28 84 -99c0 -82 -60 -125 -131 -140c-14 1 -17 27 -8 33c28 10 68 37 68 71c0 31 -25 45 -44 50c-14 4 -24 18 -24 35
c0 28 25 50 55 50z" />
    <glyph glyph-name="tcaron" unicode="&#x165;" horiz-adv-x="323" 
d="M311 346h-90c-13 0 -14 -1 -14 -23v-150c0 -56 0 -118 70 -118c14 0 30 7 42 15c10 -3 16 -14 14 -26c-28 -30 -82 -58 -144 -58c-83 0 -112 48 -112 114v223c0 21 -1 23 -19 23h-31c-11 4 -14 24 -6 31c31 11 59 29 83 45c18 13 43 34 74 78c7 4 25 3 30 -5v-75
c0 -19 1 -20 19 -20h89c5 -4 8 -10 8 -19c0 -11 -3 -29 -13 -35zM322 715c32 0 73 -29 73 -99c0 -84 -59 -135 -119 -151c-14 2 -17 24 -8 30c23 11 58 40 58 77c0 33 -20 47 -34 53c-14 4 -24 18 -24 37c0 29 25 53 54 53z" />
    <glyph glyph-name="tcommaaccent" unicode="&#x163;" horiz-adv-x="323" 
d="M311 346h-90c-13 0 -14 -1 -14 -23v-150c0 -56 0 -118 70 -118c14 0 30 7 42 15c10 -3 16 -14 14 -26c-28 -30 -82 -58 -144 -58c-83 0 -112 48 -112 114v223c0 21 -1 23 -19 23h-31c-11 4 -14 24 -6 31c31 11 59 29 83 45c18 13 43 34 74 78c7 4 25 3 30 -5v-75
c0 -19 1 -20 19 -20h89c5 -4 8 -10 8 -19c0 -11 -3 -29 -13 -35zM181 -45c33 0 84 -28 84 -99c0 -82 -60 -125 -131 -140c-14 1 -17 27 -8 33c28 10 68 37 68 71c0 31 -25 45 -44 50c-14 4 -24 18 -24 35c0 28 25 50 55 50z" />
    <glyph glyph-name="tcommaaccent" unicode="&#x21b;" horiz-adv-x="323" 
d="M311 346h-90c-13 0 -14 -1 -14 -23v-150c0 -56 0 -118 70 -118c14 0 30 7 42 15c10 -3 16 -14 14 -26c-28 -30 -82 -58 -144 -58c-83 0 -112 48 -112 114v223c0 21 -1 23 -19 23h-31c-11 4 -14 24 -6 31c31 11 59 29 83 45c18 13 43 34 74 78c7 4 25 3 30 -5v-75
c0 -19 1 -20 19 -20h89c5 -4 8 -10 8 -19c0 -11 -3 -29 -13 -35zM181 -45c33 0 84 -28 84 -99c0 -82 -60 -125 -131 -140c-14 1 -17 27 -8 33c28 10 68 37 68 71c0 31 -25 45 -44 50c-14 4 -24 18 -24 35c0 28 25 50 55 50z" />
    <glyph glyph-name="uhungarumlaut" unicode="&#x171;" horiz-adv-x="544" 
d="M471 314v-182c0 -59 3 -85 27 -85c13 0 28 4 40 8c9 -2 10 -38 -3 -43c-98 -4 -182 -36 -185 -36c-7 1 -11 6 -12 12c2 12 3 28 3 36c0 6 -5 10 -11 10c-39 -25 -74 -48 -136 -48c-83 0 -117 43 -117 128v170c0 53 -6 58 -30 65l-13 4c-7 9 -6 28 4 35c33 1 68 4 97 9
c30 5 59 17 63 17c6 0 11 -7 12 -12c-2 -25 -3 -52 -3 -88v-165c0 -48 7 -90 71 -90c28 0 44 13 52 19c7 5 11 20 11 30v189c0 40 -7 49 -43 54l-14 2c-8 7 -7 31 5 35c36 2 72 6 104 10c35 5 65 16 71 16c4 0 9 -5 10 -12c-1 -18 -3 -51 -3 -88zM153 468l64 181
c8 24 18 31 28 31c11 0 22 -4 39 -16c18 -14 27 -25 27 -36s-9 -24 -20 -38l-110 -138c-14 -2 -26 4 -28 16zM328 468l64 181c8 24 18 31 28 31c11 0 22 -4 39 -16c18 -14 27 -25 27 -36s-9 -24 -20 -38l-109 -138c-14 -2 -27 4 -29 16z" />
    <glyph glyph-name="umacron" unicode="&#x16b;" horiz-adv-x="544" 
d="M471 314v-182c0 -59 3 -85 27 -85c13 0 28 4 40 8c9 -2 10 -38 -3 -43c-98 -4 -182 -36 -185 -36c-7 1 -11 6 -12 12c2 12 3 28 3 36c0 6 -5 10 -11 10c-39 -25 -74 -48 -136 -48c-83 0 -117 43 -117 128v170c0 53 -6 58 -30 65l-13 4c-7 9 -6 28 4 35c33 1 68 4 97 9
c30 5 59 17 63 17c6 0 11 -7 12 -12c-2 -25 -3 -52 -3 -88v-165c0 -48 7 -90 71 -90c28 0 44 13 52 19c7 5 11 20 11 30v189c0 40 -7 49 -43 54l-14 2c-8 7 -7 31 5 35c36 2 72 6 104 10c35 5 65 16 71 16c4 0 9 -5 10 -12c-1 -18 -3 -51 -3 -88zM398 502h-253
c-12 16 -12 56 0 72h253c13 -11 13 -56 0 -72z" />
    <glyph glyph-name="uogonek" unicode="&#x173;" horiz-adv-x="544" 
d="M471 314v-182c0 -59 3 -85 27 -85c13 0 28 4 40 8c9 -2 10 -38 -3 -43c-5 0 -9 0 -14 -1c-51 -52 -86 -104 -86 -148c0 -34 23 -59 60 -59c20 0 35 4 50 15c7 -2 10 -11 10 -19c-26 -39 -67 -55 -106 -55c-77 0 -100 48 -100 90c0 51 40 111 115 170
c-64 -11 -112 -29 -114 -29c-7 1 -11 6 -12 12c2 12 3 28 3 36c0 6 -5 10 -11 10c-39 -25 -74 -48 -136 -48c-83 0 -117 43 -117 128v170c0 53 -6 58 -30 65l-13 4c-7 9 -6 28 4 35c33 1 68 4 97 9c30 5 59 17 63 17c6 0 11 -7 12 -12c-2 -25 -3 -52 -3 -88v-165
c0 -48 7 -90 71 -90c28 0 44 13 52 19c7 5 11 20 11 30v189c0 40 -7 49 -43 54l-14 2c-8 7 -7 31 5 35c36 2 72 6 104 10c35 5 65 16 71 16c4 0 9 -5 10 -12c-1 -18 -3 -51 -3 -88z" />
    <glyph glyph-name="uring" unicode="&#x16f;" horiz-adv-x="544" 
d="M471 314v-182c0 -59 3 -85 27 -85c13 0 28 4 40 8c9 -2 10 -38 -3 -43c-98 -4 -182 -36 -185 -36c-7 1 -11 6 -12 12c2 12 3 28 3 36c0 6 -5 10 -11 10c-39 -25 -74 -48 -136 -48c-83 0 -117 43 -117 128v170c0 53 -6 58 -30 65l-13 4c-7 9 -6 28 4 35c33 1 68 4 97 9
c30 5 59 17 63 17c6 0 11 -7 12 -12c-2 -25 -3 -52 -3 -88v-165c0 -48 7 -90 71 -90c28 0 44 13 52 19c7 5 11 20 11 30v189c0 40 -7 49 -43 54l-14 2c-8 7 -7 31 5 35c36 2 72 6 104 10c35 5 65 16 71 16c4 0 9 -5 10 -12c-1 -18 -3 -51 -3 -88zM272 457
c-67 0 -108 49 -108 99s41 98 108 98c68 0 108 -48 108 -98s-40 -99 -108 -99zM272 495c31 0 48 28 48 61s-17 61 -48 63c-31 -2 -48 -30 -48 -63s17 -61 48 -61z" />
    <glyph glyph-name="zacute" unicode="&#x17a;" horiz-adv-x="415" 
d="M223 0h-97c-54 0 -81 -1 -97 -3c-6 2 -9 9 -7 16c16 24 60 94 88 144l93 165c8 15 11 24 11 29c0 3 -6 5 -28 5h-31c-36 0 -58 -4 -71 -19c-8 -8 -22 -28 -32 -58c-9 -8 -31 -3 -36 8c6 40 21 107 31 132c5 5 17 5 21 0c3 -16 5 -19 56 -19h180c43 0 71 1 83 3
c4 -2 7 -9 6 -13c-19 -26 -39 -63 -71 -117l-107 -182c-12 -21 -18 -34 -18 -41c0 -5 11 -6 40 -6h24c43 0 77 7 94 34c7 10 17 28 30 54c8 8 31 5 36 -5c-3 -38 -25 -111 -38 -130c-82 2 -114 3 -160 3zM184 463l91 182c11 23 21 30 31 30c11 0 22 -4 39 -16
c18 -14 27 -25 27 -36s-9 -24 -22 -37l-141 -139c-14 -2 -23 4 -25 16z" />
    <glyph glyph-name="zdotaccent" unicode="&#x17c;" horiz-adv-x="415" 
d="M223 0h-97c-54 0 -81 -1 -97 -3c-6 2 -9 9 -7 16c16 24 60 94 88 144l93 165c8 15 11 24 11 29c0 3 -6 5 -28 5h-31c-36 0 -58 -4 -71 -19c-8 -8 -22 -28 -32 -58c-9 -8 -31 -3 -36 8c6 40 21 107 31 132c5 5 17 5 21 0c3 -16 5 -19 56 -19h180c43 0 71 1 83 3
c4 -2 7 -9 6 -13c-19 -26 -39 -63 -71 -117l-107 -182c-12 -21 -18 -34 -18 -41c0 -5 11 -6 40 -6h24c43 0 77 7 94 34c7 10 17 28 30 54c8 8 31 5 36 -5c-3 -38 -25 -111 -38 -130c-82 2 -114 3 -160 3zM216 487c-35 0 -62 20 -63 59c0 37 27 64 63 64c35 0 61 -28 61 -59
c0 -39 -26 -64 -61 -64z" />
    <glyph glyph-name="Delta" unicode="&#x394;" horiz-adv-x="680" 
d="M642 0h-603c-16 0 -6 47 -1 58c35 72 63 127 114 239l119 261c21 45 24 64 23 70c35 7 62 35 74 48c13 0 17 -2 19 -9c18 -44 35 -84 56 -134l200 -467c9 -20 10 -66 -1 -66zM161 68h289c35 0 34 8 28 23l-132 340c-16 42 -25 62 -31 74h-3c-7 -15 -16 -36 -29 -66
l-153 -350c-6 -14 1 -21 31 -21z" />
    <glyph glyph-name="Delta" unicode="&#x2206;" horiz-adv-x="680" 
d="M642 0h-603c-16 0 -6 47 -1 58c35 72 63 127 114 239l119 261c21 45 24 64 23 70c35 7 62 35 74 48c13 0 17 -2 19 -9c18 -44 35 -84 56 -134l200 -467c9 -20 10 -66 -1 -66zM161 68h289c35 0 34 8 28 23l-132 340c-16 42 -25 62 -31 74h-3c-7 -15 -16 -36 -29 -66
l-153 -350c-6 -14 1 -21 31 -21z" />
    <glyph glyph-name="Omega" unicode="&#x3a9;" horiz-adv-x="823" 
d="M409 676c192 0 348 -110 344 -309c-3 -143 -100 -213 -179 -265h61c72 0 93 23 119 60c5 10 36 10 39 0c-14 -44 -21 -105 -34 -169c-23 2 -57 7 -100 7h-205v30c68 83 146 194 146 342c0 150 -74 258 -189 258c-121 0 -193 -109 -194 -262c-1 -149 78 -254 147 -338v-30
h-205c-33 0 -57 -5 -100 -7c-13 64 -20 113 -34 169c3 10 34 10 39 0c26 -37 39 -60 119 -60h61c-43 29 -179 115 -179 261c0 196 154 313 344 313z" />
    <glyph glyph-name="Omega" unicode="&#x2126;" horiz-adv-x="823" 
d="M409 676c192 0 348 -110 344 -309c-3 -143 -100 -213 -179 -265h61c72 0 93 23 119 60c5 10 36 10 39 0c-14 -44 -21 -105 -34 -169c-23 2 -57 7 -100 7h-205v30c68 83 146 194 146 342c0 150 -74 258 -189 258c-121 0 -193 -109 -194 -262c-1 -149 78 -254 147 -338v-30
h-205c-33 0 -57 -5 -100 -7c-13 64 -20 113 -34 169c3 10 34 10 39 0c26 -37 39 -60 119 -60h61c-43 29 -179 115 -179 261c0 196 154 313 344 313z" />
    <glyph glyph-name="pi" unicode="&#x3c0;" horiz-adv-x="539" 
d="M345 309h-127c-21 -134 -32 -191 -41 -231c-14 -61 -35 -92 -73 -92c-34 0 -55 17 -54 54c0 12 10 25 20 32c31 21 69 72 96 237c-66 0 -106 -9 -129 -42c-7 -10 -17 -10 -19 7c-3 20 3 77 55 108c22 13 52 18 94 18h217c77 0 104 3 115 9c3 3 9 2 9 -8
c0 -29 -15 -70 -34 -83c-10 -6 -26 -9 -68 -9c-12 -46 -19 -92 -20 -139c-2 -64 17 -96 45 -96c14 0 34 7 56 33c13 15 33 10 24 -16c-26 -73 -78 -105 -138 -105c-78 0 -89 65 -89 104c0 72 32 149 61 219z" />
    </font>
</defs>
</svg>
